<?xml version="1.0" encoding="utf-8"?>
<!-- Generator: Adobe Illustrator 18.0.0, SVG Export Plug-In . SVG Version: 6.00 Build 0)  -->
<!DOCTYPE svg PUBLIC "-//W3C//DTD SVG 1.1//EN" "http://www.w3.org/Graphics/SVG/1.1/DTD/svg11.dtd">
<svg version="1.1" id="Layer_1" xmlns="http://www.w3.org/2000/svg" xmlns:xlink="http://www.w3.org/1999/xlink" x="0px" y="0px"
	 viewBox="0 329 960 391" enable-background="new 0 329 960 391" xml:space="preserve">
<g>
	<path fill="none" d="M188.1,570.1c-0.1,0-0.1,0.1-0.2,0.1c3.7-2.6,7.4-4.3,11.2-7.3l0,0C195.4,566,191.7,567.6,188.1,570.1z"/>
	<path fill="none" d="M150.4,522.9C95.5,510.4,42.9,499-11.8,498.5C43,499,95.5,510.4,150.4,522.9L150.4,522.9z"/>
	<path fill="none" d="M207.5,558c2.7-1.4,5.5-2.9,8.2-4.3C213,555.1,210.3,556.5,207.5,558z"/>
	<path fill="none" d="M-19.7,594.1c-8.8,2.3-17.5,3.9-25.5,7c-22.5,8.9-44.9,17.8-66.9,27.8c22-10,44.3-18.9,66.9-27.8
		C-37.2,597.9-28.5,596.4-19.7,594.1c46.8-13.2,91.3-24,138.8-30.2c15.2-1.7,30.3-2.6,45.3-2.5c-15,0-30,0.8-45.3,2.5
		C71.6,570,27,580.9-19.7,594.1z"/>
	<path fill="none" d="M997,514.8L997,514.8c27.1-0.8,54-4.2,80-9.1C1051,510.6,1024,514,997,514.8z"/>
	<path fill="none" d="M997,514.8c-0.1,0-0.2,0-0.3,0C996.8,514.8,996.9,514.8,997,514.8L997,514.8z"/>
	<path fill="none" d="M184,573c-0.2,0.1-0.4,0.3-0.6,0.4c-5.4,4-10.7,8.2-15.9,12.8c-65.6,37.4-141.5,36.5-215,42.7
		c-2.6,0.2-5.1,0.4-7.7,0.7c76-7,154.9-4.6,222.8-43.4C172.9,581.5,178.4,577.1,184,573z"/>
	<path fill="none" d="M1076.7,615c-41.6,17.8-86.1,10.1-129.2,10.1c-73.8-0.8-141.7-24.8-217-40.3c-35.8-7.7-68.7-3.1-103.7,3.1
		C507.7,611.1,396,607.2,278.3,577c-26.5-6.9-52.7-11.8-78.9-14.1c-0.1,0.1-0.2,0.2-0.3,0.2H199v-0.3c26,2.3,52.6,7.3,79.2,14.2
		c117.6,30.2,229.4,34.1,348.5,10.9c35.1-6.2,68-10.8,103.7-3.1c75.2,15.5,143.2,39.5,217,40.3C990.5,625,1035,632.8,1076.7,615
		c0.1,0,0.3-0.1,0.3-0.1S1076.8,614.9,1076.7,615z"/>
	<path fill="none" d="M-55.3,629.6c-1.8,0.1-3.6,0.4-5.4,0.6c-7.9,1.1-16.1,3.1-23.8,5.6c-10.2,3.9-19.7,6.2-29.9,10.1
		c10.2-3.9,19.7-6.2,29.9-10.1C-75,632.7-64.8,630.4-55.3,629.6z"/>
	<path fill="none" d="M699.1,507.5c18.7-0.7,37.3,0.3,55.8,2.1c-18.6-1.9-37.2-2.9-55.8-2.2c-40.4,1.7-79.1,8.2-117.9,17
		c0.1,0,0.1,0,0.2,0C620.1,515.7,658.7,509.2,699.1,507.5z"/>
	<path fill="none" d="M187.8,570.3c0.1,0,0.1-0.1,0.2-0.1c-1.3,0.9-2.6,1.9-4,2.8c0.2-0.1,0.4-0.3,0.6-0.4
		C185.6,571.8,186.7,571,187.8,570.3z"/>
	<path fill="none" d="M841.2,520.8c14.2,1.7,28.4,3,42.6,3.6c4.8,0.1,9.5,0.2,14.3,0.2c-4.8,0-9.5,0-14.3-0.2
		C869.7,523.9,855.5,522.5,841.2,520.8c-9.9-1.2-19.9-2.6-29.9-4c9.5,1.4,19.1,2.8,28.6,4.1C840.4,520.9,840.8,520.9,841.2,520.8z"
		/>
	<path fill="none" d="M1176.8,502.1c-4.1,1.1-8.3,2.1-12.4,4c-5.8,2.6-11.4,5.2-17.4,7.8c6-2.6,11.7-5.2,17.5-7.8
		C1168.6,504.2,1172.7,503.2,1176.8,502.1z"/>
	<path fill="none" d="M-60.9,466c-24-0.1-47.8,2.5-72.1,5.8c-0.4,0-1.1,0.1-1.1,0.2c0-0.1,0.7-0.1,1.1-0.2
		C-108.6,468.5-84.9,465.8-60.9,466z"/>
	<path fill="#C2B2D6" d="M-60.9,466c16.4,0.1,33,1.5,49.9,5c57.8,11.5,108.2,33,161.4,51.9l0,0l0,0c10.6,2.4,21.3,4.9,32.2,7.3
		c21.2,4.5,42,8.4,62.7,11.5c51.8-17.1,108.6-16.2,164.1-7.2c5.8-2.1,11.6-4,17.9-5.1c52.7-8.8,102.1-14,153.9-5
		c38.7-8.7,77.5-15.3,117.9-17c18.7-0.7,37.3,0.4,55.8,2.2c18.9,1.8,37.7,4.6,56.5,7.3c10,1.4,19.9,2.8,29.9,4
		c42.9-3.8,84.4-0.3,126.9-2.8c6.6-0.8,14.6-3.1,21.2-3.1c2.5,0,4.9-0.1,7.4-0.2c0.1,0,0.2,0,0.3,0l0,0c0,0,0,0-0.1,0
		c27-5.1,54.1-12.1,80.1-20.4V-7H-134v478.9c0-0.1,0.7-0.1,1.1-0.2C-108.6,468.5-84.9,465.8-60.9,466z"/>
	<rect x="-150" y="748" opacity="0.75" fill="#827BB9" enable-background="new    " width="1262" height="51"/>
	<polygon opacity="0.39" fill="#8F89C1" enable-background="new    " points="1147,708 1112,708 1112,748 1192,748 1192,696 
		1147,696 	"/>
	<rect x="-170" y="708" opacity="0.39" fill="#8F89C1" enable-background="new    " width="20" height="40"/>
	<path fill="#C2B2D6" d="M230,547.1c0.1,0,0.2-0.1,0.3-0.1s0.2,0,0.3,0.1c4.8-2,9.7-3.8,14.7-5.4c-20.6-3.1-41.4-7-62.7-11.5
		c-10.8-2.4-21.6-4.9-32.2-7.3c11.3,4,22.7,7.9,34.4,11.6C199.8,539.2,214.9,543.4,230,547.1z"/>
	<path opacity="0.39" fill="#8F89C1" enable-background="new    " d="M230,547.1c0.1,0,0.2-0.1,0.3-0.1s0.2,0,0.3,0.1
		c4.8-2,9.7-3.8,14.7-5.4c-20.6-3.1-41.4-7-62.7-11.5c-10.8-2.4-21.6-4.9-32.2-7.3c11.3,4,22.7,7.9,34.4,11.6
		C199.8,539.2,214.9,543.4,230,547.1z"/>
	<path fill="#C2B2D6" d="M480.6,549.8c34.3-8.9,67.4-18,100.6-25.5c-51.8-8.9-101.2-3.7-153.9,5c-6.2,1.1-12.1,3-17.9,5.1
		c19.7,3.2,39.3,7.4,58.4,12.2C472.1,547.8,476.3,548.8,480.6,549.8z"/>
	<path opacity="0.39" fill="#8F89C1" enable-background="new    " d="M480.6,549.8c34.3-8.9,67.4-18,100.6-25.5
		c-51.8-8.9-101.2-3.7-153.9,5c-6.2,1.1-12.1,3-17.9,5.1c19.7,3.2,39.3,7.4,58.4,12.2C472.1,547.8,476.3,548.8,480.6,549.8z"/>
	<polygon opacity="0.75" fill="#827BB9" enable-background="new    " points="1077,708 1077,734 -134,734 -134,708 -150,708 
		-150,748 1112,748 1112,708 	"/>
	<polygon opacity="0.39" fill="#8F89C1" enable-background="new    " points="1077,708 1077,734 -134,734 -134,708 -150,708 
		-150,748 1112,748 1112,708 	"/>
	<rect x="-134" y="708" fill="#C2B2D6" width="1211" height="26"/>
	<rect x="-134" y="708" opacity="0.75" fill="#827BB9" enable-background="new    " width="1211" height="26"/>
	<rect x="-134" y="708" opacity="0.39" fill="#8F89C1" enable-background="new    " width="1211" height="26"/>
	<path opacity="0.58" fill="#8F89C1" enable-background="new    " d="M1222.6,466.9c-11,3.1-20.5,8.5-31.5,11.6
		c-14.8,3.9-29.1,7.8-44.1,11.5v23.9c6-2.6,11.6-5.2,17.4-7.8c4.1-1.9,8.3-3,12.4-4c2.5-0.6,4.9-1.3,7.4-2.2
		c2.6-0.8,4.8-1.7,7.8-2.6V696h55V461.2C1239,463.1,1230.8,464.9,1222.6,466.9z"/>
	<path fill="#C2B2D6" d="M898.2,524.6c33.3-0.1,66.2-3.6,98.8-9.8c-0.1,0-0.2,0-0.2,0c-2.4,0.1-4.9,0.1-7.4,0.2
		c-6.6,0-14.6,2.3-21.2,3.1c-42.5,2.5-84-1.1-126.9,2.8c14.2,1.7,28.4,3,42.7,3.6C888.7,524.5,893.4,524.6,898.2,524.6z"/>
	<path opacity="0.58" fill="#8F89C1" enable-background="new    " d="M898.2,524.6c33.3-0.1,66.2-3.6,98.8-9.8c-0.1,0-0.2,0-0.2,0
		c-2.4,0.1-4.9,0.1-7.4,0.2c-6.6,0-14.6,2.3-21.2,3.1c-42.5,2.5-84-1.1-126.9,2.8c14.2,1.7,28.4,3,42.7,3.6
		C888.7,524.5,893.4,524.6,898.2,524.6z"/>
	<path fill="#C2B2D6" d="M377.6,544.1c11.3-1.5,21.4-5.9,31.8-9.6c-55.5-9-112.4-10-164.1,7.2C289.2,548.1,332.4,550.4,377.6,544.1z
		"/>
	<path opacity="0.58" fill="#8F89C1" enable-background="new    " d="M377.6,544.1c11.3-1.5,21.4-5.9,31.8-9.6
		c-55.5-9-112.4-10-164.1,7.2C289.2,548.1,332.4,550.4,377.6,544.1z"/>
	<path opacity="0.39" fill="#8F89C1" enable-background="new    " d="M1184.2,499.9c-2.5,0.9-4.9,1.5-7.4,2.2
		c-4.1,1.1-8.2,2.1-12.4,4c-5.8,2.6-11.5,5.2-17.5,7.8V696h45V497.3C1189,498.2,1186.8,499.1,1184.2,499.9z"/>
	<path opacity="0.58" fill="#8F89C1" enable-background="new    " d="M1184.2,499.9c-2.5,0.9-4.9,1.5-7.4,2.2
		c-4.1,1.1-8.2,2.1-12.4,4c-5.8,2.6-11.5,5.2-17.5,7.8V696h45V497.3C1189,498.2,1186.8,499.1,1184.2,499.9z"/>
	<path opacity="0.58" fill="#8F89C1" enable-background="new    " d="M1192,497.3c-3,0.9-5.2,1.8-7.8,2.6c-2.5,0.9-4.9,1.5-7.4,2.2
		c2.5-0.6,4.9-1.3,7.4-2.2C1186.8,499.1,1189,498.2,1192,497.3z"/>
	<path opacity="0.39" fill="#8F89C1" enable-background="new    " d="M1192,497.3c-3,0.9-5.2,1.8-7.8,2.6c-2.5,0.9-4.9,1.5-7.4,2.2
		c2.5-0.6,4.9-1.3,7.4-2.2C1186.8,499.1,1189,498.2,1192,497.3z"/>
	<path opacity="0.58" fill="#8F89C1" enable-background="new    " d="M1192,497.3c-3,0.9-5.2,1.8-7.8,2.6c-2.5,0.9-4.9,1.5-7.4,2.2
		c2.5-0.6,4.9-1.3,7.4-2.2C1186.8,499.1,1189,498.2,1192,497.3z"/>
	<path fill="#C2B2D6" d="M479.9,550c0.2-0.1,0.4-0.1,0.6-0.2c-4.2-1-8.5-2-12.8-3.1c-19.1-4.8-38.6-9-58.4-12.2
		c-10.4,3.8-20.5,8.1-31.8,9.6c-45.2,6.3-88.4,4-132.4-2.5c-4.9,1.6-9.8,3.4-14.7,5.4C312.4,567,395.6,571.5,479.9,550z"/>
	<path opacity="0.39" fill="#8F89C1" enable-background="new    " d="M479.9,550c0.2-0.1,0.4-0.1,0.6-0.2c-4.2-1-8.5-2-12.8-3.1
		c-19.1-4.8-38.6-9-58.4-12.2c-10.4,3.8-20.5,8.1-31.8,9.6c-45.2,6.3-88.4,4-132.4-2.5c-4.9,1.6-9.8,3.4-14.7,5.4
		C312.4,567,395.6,571.5,479.9,550z"/>
	<path opacity="0.58" fill="#8F89C1" enable-background="new    " d="M479.9,550c0.2-0.1,0.4-0.1,0.6-0.2c-4.2-1-8.5-2-12.8-3.1
		c-19.1-4.8-38.6-9-58.4-12.2c-10.4,3.8-20.5,8.1-31.8,9.6c-45.2,6.3-88.4,4-132.4-2.5c-4.9,1.6-9.8,3.4-14.7,5.4
		C312.4,567,395.6,571.5,479.9,550z"/>
	<path opacity="0.37" fill="#8F89C1" enable-background="new    " d="M1147,490v-20.9c-23,9.3-46,17.8-70,25.3v11.3
		C1100,501.4,1124,495.9,1147,490z"/>
	<path opacity="0.37" fill="#8F89C1" enable-background="new    " d="M-134,523.1v-51.2c-6,0.8-11.7,2.3-17.2,4.5
		c-6.6,1.5-12.9,3.9-18.8,7c-5.1,2.6-10,5.2-15,7.6v217h15V541.9C-158,535-146,528.6-134,523.1z"/>
	<path fill="#C2B2D6" d="M699.1,507.5c-40.3,1.7-79,8.2-117.7,16.9c7.7,1.3,15.5,3,23.4,5c26.1,6.7,51.8,13.8,77.4,20.5
		c28.4-4.6,55-10.5,83.6-16.4c8-1.5,14.6-3.1,22.6-3.9c7.3-0.8,14.6-3.1,21.9-4.6c9.9-1.9,19.8-3.1,29.6-4c-9.5-1.3-19-2.7-28.6-4.1
		c-18.8-2.7-37.6-5.5-56.5-7.3C736.3,507.8,717.7,506.8,699.1,507.5z"/>
	<path opacity="0.37" fill="#8F89C1" enable-background="new    " d="M699.1,507.5c-40.3,1.7-79,8.2-117.7,16.9
		c7.7,1.3,15.5,3,23.4,5c26.1,6.7,51.8,13.8,77.4,20.5c28.4-4.6,55-10.5,83.6-16.4c8-1.5,14.6-3.1,22.6-3.9
		c7.3-0.8,14.6-3.1,21.9-4.6c9.9-1.9,19.8-3.1,29.6-4c-9.5-1.3-19-2.7-28.6-4.1c-18.8-2.7-37.6-5.5-56.5-7.3
		C736.3,507.8,717.7,506.8,699.1,507.5z"/>
	<path fill="#C2B2D6" d="M-49.7,499.9c10.7-0.9,21.4-1.4,31.9-1.5c2,0,4,0,6,0c54.7,0.5,107.3,11.9,162.2,24.3l0,0
		C97.2,503.9,46.9,482.4-11,470.9c-16.9-3.5-33.5-4.9-49.9-5c-24-0.1-47.8,2.5-72.1,5.8c-0.4,0-1.1,0.1-1.1,0.2v51.2
		C-107,510.9-79.6,502.5-49.7,499.9z"/>
	<path opacity="0.37" fill="#8F89C1" enable-background="new    " d="M-49.7,499.9c10.7-0.9,21.4-1.4,31.9-1.5c2,0,4,0,6,0
		c54.7,0.5,107.3,11.9,162.2,24.3l0,0C97.2,503.9,46.9,482.4-11,470.9c-16.9-3.5-33.5-4.9-49.9-5c-24-0.1-47.8,2.5-72.1,5.8
		c-0.4,0-1.1,0.1-1.1,0.2v51.2C-107,510.9-79.6,502.5-49.7,499.9z"/>
	<path fill="#C2B2D6" d="M997,514.8c27.1-0.8,54.1-4.2,80-9.1v-11.3C1051,502.7,1023.9,509.7,997,514.8
		C996.9,514.8,996.9,514.8,997,514.8z"/>
	<path opacity="0.37" fill="#8F89C1" enable-background="new    " d="M997,514.8c27.1-0.8,54.1-4.2,80-9.1v-11.3
		C1051,502.7,1023.9,509.7,997,514.8C996.9,514.8,996.9,514.8,997,514.8z"/>
	<path opacity="0.39" fill="#8F89C1" enable-background="new    " d="M-150,646.9c4-1.7,8-3.6,12.2-5.5c1.3-0.7,2.8-1.3,3.8-2V523.1
		c-12,5.6-24,11.9-36,18.9v166h20V646.9z"/>
	<path opacity="0.37" fill="#8F89C1" enable-background="new    " d="M-150,646.9c4-1.7,8-3.6,12.2-5.5c1.3-0.7,2.8-1.3,3.8-2V523.1
		c-12,5.6-24,11.9-36,18.9v166h20V646.9z"/>
	<rect x="1112" y="696" opacity="0.39" fill="#8F89C1" enable-background="new    " width="35" height="12"/>
	<rect x="1112" y="696" opacity="0.37" fill="#8F89C1" enable-background="new    " width="35" height="12"/>
	<path fill="#C2B2D6" d="M199.1,562.9c0.1-0.1,0.2-0.1,0.3-0.2c-0.1,0-0.2,0-0.3,0v-0.2l0,0c-0.2,0.1-0.3,0.2-0.5,0.4
		C198.8,562.9,198.9,562.9,199.1,562.9z"/>
	<path opacity="0.39" fill="#8F89C1" enable-background="new    " d="M199.1,562.9c0.1-0.1,0.2-0.1,0.3-0.2c-0.1,0-0.2,0-0.3,0v-0.2
		l0,0c-0.2,0.1-0.3,0.2-0.5,0.4C198.8,562.9,198.9,562.9,199.1,562.9z"/>
	<path opacity="0.37" fill="#8F89C1" enable-background="new    " d="M199.1,562.9c0.1-0.1,0.2-0.1,0.3-0.2c-0.1,0-0.2,0-0.3,0v-0.2
		l0,0c-0.2,0.1-0.3,0.2-0.5,0.4C198.8,562.9,198.9,562.9,199.1,562.9z"/>
	<path fill="#C2B2D6" d="M-117.6,631.4c1.8-0.9,3.7-1.7,5.5-2.5c22-10,44.3-18.9,66.9-27.8c8-3.1,16.8-4.6,25.5-7
		c46.8-13.2,91.3-24,138.8-30.2c15.2-1.7,30.3-2.6,45.3-2.5c11.5,0,22.9,0.6,34.3,1.5c0.2-0.1,0.3-0.2,0.5-0.4l0,0
		c2.8-1.5,5.6-3,8.4-4.5c2.7-1.5,5.5-2.9,8.2-4.3c4.7-2.4,9.4-4.7,14.2-6.6c-15.1-3.7-30.2-7.9-45.2-12.6
		c-11.7-3.7-23.1-7.6-34.4-11.6C95.5,510.4,43,499-11.8,498.5c-2,0-4,0-6,0c-10.5,0-21.2,0.5-31.9,1.5c-29.9,2.6-57.3,11-84.3,23.1
		v116.3c1.8-0.9,3.6-1.8,5.4-2.7C-124.9,634.8-121.3,633.1-117.6,631.4z"/>
	<path opacity="0.39" fill="#8F89C1" enable-background="new    " d="M-117.6,631.4c1.8-0.9,3.7-1.7,5.5-2.5
		c22-10,44.3-18.9,66.9-27.8c8-3.1,16.8-4.6,25.5-7c46.8-13.2,91.3-24,138.8-30.2c15.2-1.7,30.3-2.6,45.3-2.5
		c11.5,0,22.9,0.6,34.3,1.5c0.2-0.1,0.3-0.2,0.5-0.4l0,0c2.8-1.5,5.6-3,8.4-4.5c2.7-1.5,5.5-2.9,8.2-4.3c4.7-2.4,9.4-4.7,14.2-6.6
		c-15.1-3.7-30.2-7.9-45.2-12.6c-11.7-3.7-23.1-7.6-34.4-11.6C95.5,510.4,43,499-11.8,498.5c-2,0-4,0-6,0c-10.5,0-21.2,0.5-31.9,1.5
		c-29.9,2.6-57.3,11-84.3,23.1v116.3c1.8-0.9,3.6-1.8,5.4-2.7C-124.9,634.8-121.3,633.1-117.6,631.4z"/>
	<path opacity="0.37" fill="#8F89C1" enable-background="new    " d="M-117.6,631.4c1.8-0.9,3.7-1.7,5.5-2.5
		c22-10,44.3-18.9,66.9-27.8c8-3.1,16.8-4.6,25.5-7c46.8-13.2,91.3-24,138.8-30.2c15.2-1.7,30.3-2.6,45.3-2.5
		c11.5,0,22.9,0.6,34.3,1.5c0.2-0.1,0.3-0.2,0.5-0.4l0,0c2.8-1.5,5.6-3,8.4-4.5c2.7-1.5,5.5-2.9,8.2-4.3c4.7-2.4,9.4-4.7,14.2-6.6
		c-15.1-3.7-30.2-7.9-45.2-12.6c-11.7-3.7-23.1-7.6-34.4-11.6C95.5,510.4,43,499-11.8,498.5c-2,0-4,0-6,0c-10.5,0-21.2,0.5-31.9,1.5
		c-29.9,2.6-57.3,11-84.3,23.1v116.3c1.8-0.9,3.6-1.8,5.4-2.7C-124.9,634.8-121.3,633.1-117.6,631.4z"/>
	<path fill="#C2B2D6" d="M647.5,554.5c10.2-2.3,20.5-2.3,30.7-3.9c1.4-0.2,2.7-0.4,4-0.7c-25.6-6.8-51.3-13.9-77.4-20.5
		c-7.9-2-15.7-3.7-23.4-5c-0.1,0-0.1,0-0.2,0c-33.2,7.5-66.4,16.5-100.6,25.5C537.1,562.9,590.4,566.7,647.5,554.5z"/>
	<path opacity="0.39" fill="#8F89C1" enable-background="new    " d="M647.5,554.5c10.2-2.3,20.5-2.3,30.7-3.9
		c1.4-0.2,2.7-0.4,4-0.7c-25.6-6.8-51.3-13.9-77.4-20.5c-7.9-2-15.7-3.7-23.4-5c-0.1,0-0.1,0-0.2,0c-33.2,7.5-66.4,16.5-100.6,25.5
		C537.1,562.9,590.4,566.7,647.5,554.5z"/>
	<path opacity="0.37" fill="#8F89C1" enable-background="new    " d="M647.5,554.5c10.2-2.3,20.5-2.3,30.7-3.9
		c1.4-0.2,2.7-0.4,4-0.7c-25.6-6.8-51.3-13.9-77.4-20.5c-7.9-2-15.7-3.7-23.4-5c-0.1,0-0.1,0-0.2,0c-33.2,7.5-66.4,16.5-100.6,25.5
		C537.1,562.9,590.4,566.7,647.5,554.5z"/>
	<path opacity="0.75" fill="#827BB9" enable-background="new    " d="M-134,696.1v-41.3v-15.5c-1,0.7-2.5,1.3-3.8,2
		c-4.1,2-8.2,3.8-12.2,5.5V708h16v-11.7V696.1z"/>
	<path opacity="0.39" fill="#8F89C1" enable-background="new    " d="M-134,696.1v-41.3v-15.5c-1,0.7-2.5,1.3-3.8,2
		c-4.1,2-8.2,3.8-12.2,5.5V708h16v-11.7V696.1z"/>
	<path opacity="0.37" fill="#8F89C1" enable-background="new    " d="M-134,696.1v-41.3v-15.5c-1,0.7-2.5,1.3-3.8,2
		c-4.1,2-8.2,3.8-12.2,5.5V708h16v-11.7V696.1z"/>
	<rect x="1077" y="696" opacity="0.75" fill="#827BB9" enable-background="new    " width="35" height="12"/>
	<rect x="1077" y="696" opacity="0.39" fill="#8F89C1" enable-background="new    " width="35" height="12"/>
	<rect x="1077" y="696" opacity="0.37" fill="#8F89C1" enable-background="new    " width="35" height="12"/>
	<path fill="#C2B2D6" d="M-114.4,645.9c10.2-3.9,19.7-6.2,29.9-10.1c7.7-2.5,15.9-4.5,23.8-5.6c-7.9,1.1-16.1,3.1-23.8,5.6
		C-94.7,639.7-104.2,642-114.4,645.9c10.2-3.9,19.7-6.2,29.9-10.1c9.5-3.1,19.7-5.5,29.2-6.2c76-7,154.9-4.7,222.8-43.5
		c5.4-4.7,10.8-9,16.4-13c1.3-1,2.6-1.9,4-2.8c3.5-2.5,7.1-4.9,10.7-7.3c-11.4-1-22.8-1.5-34.3-1.5c-15,0-30,0.8-45.3,2.5
		c-47.5,6.2-92,17-138.8,30.2c-8.8,2.3-17.5,3.9-25.5,7c-22.5,8.9-44.9,17.8-66.9,27.8c-1.8,0.8-3.7,1.7-5.5,2.5
		c-3.7,1.7-7.3,3.4-10.9,5.2c-1.8,0.9-3.6,1.8-5.4,2.7v15.5C-128,651.6-121,648.6-114.4,645.9z"/>
	<path opacity="0.75" fill="#827BB9" enable-background="new    " d="M-114.4,645.9c10.2-3.9,19.7-6.2,29.9-10.1
		c7.7-2.5,15.9-4.5,23.8-5.6c-7.9,1.1-16.1,3.1-23.8,5.6C-94.7,639.7-104.2,642-114.4,645.9c10.2-3.9,19.7-6.2,29.9-10.1
		c9.5-3.1,19.7-5.5,29.2-6.2c76-7,154.9-4.7,222.8-43.5c5.4-4.7,10.8-9,16.4-13c1.3-1,2.6-1.9,4-2.8c3.5-2.5,7.1-4.9,10.7-7.3
		c-11.4-1-22.8-1.5-34.3-1.5c-15,0-30,0.8-45.3,2.5c-47.5,6.2-92,17-138.8,30.2c-8.8,2.3-17.5,3.9-25.5,7
		c-22.5,8.9-44.9,17.8-66.9,27.8c-1.8,0.8-3.7,1.7-5.5,2.5c-3.7,1.7-7.3,3.4-10.9,5.2c-1.8,0.9-3.6,1.8-5.4,2.7v15.5
		C-128,651.6-121,648.6-114.4,645.9z"/>
	<path opacity="0.39" fill="#8F89C1" enable-background="new    " d="M-114.4,645.9c10.2-3.9,19.7-6.2,29.9-10.1
		c7.7-2.5,15.9-4.5,23.8-5.6c-7.9,1.1-16.1,3.1-23.8,5.6C-94.7,639.7-104.2,642-114.4,645.9c10.2-3.9,19.7-6.2,29.9-10.1
		c9.5-3.1,19.7-5.5,29.2-6.2c76-7,154.9-4.7,222.8-43.5c5.4-4.7,10.8-9,16.4-13c1.3-1,2.6-1.9,4-2.8c3.5-2.5,7.1-4.9,10.7-7.3
		c-11.4-1-22.8-1.5-34.3-1.5c-15,0-30,0.8-45.3,2.5c-47.5,6.2-92,17-138.8,30.2c-8.8,2.3-17.5,3.9-25.5,7
		c-22.5,8.9-44.9,17.8-66.9,27.8c-1.8,0.8-3.7,1.7-5.5,2.5c-3.7,1.7-7.3,3.4-10.9,5.2c-1.8,0.9-3.6,1.8-5.4,2.7v15.5
		C-128,651.6-121,648.6-114.4,645.9z"/>
	<path opacity="0.37" fill="#8F89C1" enable-background="new    " d="M-114.4,645.9c10.2-3.9,19.7-6.2,29.9-10.1
		c7.7-2.5,15.9-4.5,23.8-5.6c-7.9,1.1-16.1,3.1-23.8,5.6C-94.7,639.7-104.2,642-114.4,645.9c10.2-3.9,19.7-6.2,29.9-10.1
		c9.5-3.1,19.7-5.5,29.2-6.2c76-7,154.9-4.7,222.8-43.5c5.4-4.7,10.8-9,16.4-13c1.3-1,2.6-1.9,4-2.8c3.5-2.5,7.1-4.9,10.7-7.3
		c-11.4-1-22.8-1.5-34.3-1.5c-15,0-30,0.8-45.3,2.5c-47.5,6.2-92,17-138.8,30.2c-8.8,2.3-17.5,3.9-25.5,7
		c-22.5,8.9-44.9,17.8-66.9,27.8c-1.8,0.8-3.7,1.7-5.5,2.5c-3.7,1.7-7.3,3.4-10.9,5.2c-1.8,0.9-3.6,1.8-5.4,2.7v15.5
		C-128,651.6-121,648.6-114.4,645.9z"/>
	<path fill="#C2B2D6" d="M183.4,573.4c-5.4,3.9-10.7,8-15.9,12.6c-65.6,37.4-141.5,36.7-215,42.9c73.6-6.2,149.4-5.3,215.1-42.7
		C172.7,581.6,178,577.4,183.4,573.4z"/>
	<path opacity="0.75" fill="#827BB9" enable-background="new    " d="M183.4,573.4c-5.4,3.9-10.7,8-15.9,12.6
		c-65.6,37.4-141.5,36.7-215,42.9c73.6-6.2,149.4-5.3,215.1-42.7C172.7,581.6,178,577.4,183.4,573.4z"/>
	<path opacity="0.39" fill="#8F89C1" enable-background="new    " d="M183.4,573.4c-5.4,3.9-10.7,8-15.9,12.6
		c-65.6,37.4-141.5,36.7-215,42.9c73.6-6.2,149.4-5.3,215.1-42.7C172.7,581.6,178,577.4,183.4,573.4z"/>
	<path opacity="0.37" fill="#8F89C1" enable-background="new    " d="M183.4,573.4c-5.4,3.9-10.7,8-15.9,12.6
		c-65.6,37.4-141.5,36.7-215,42.9c73.6-6.2,149.4-5.3,215.1-42.7C172.7,581.6,178,577.4,183.4,573.4z"/>
	<path fill="#C2B2D6" d="M188.1,570.1c3.6-2.5,7.3-4.9,11-7.2l0,0c-0.2,0-0.3,0-0.5,0C195.1,565.3,191.5,567.7,188.1,570.1z"/>
	<path opacity="0.75" fill="#827BB9" enable-background="new    " d="M188.1,570.1c3.6-2.5,7.3-4.9,11-7.2l0,0c-0.2,0-0.3,0-0.5,0
		C195.1,565.3,191.5,567.7,188.1,570.1z"/>
	<path opacity="0.39" fill="#8F89C1" enable-background="new    " d="M188.1,570.1c3.6-2.5,7.3-4.9,11-7.2l0,0c-0.2,0-0.3,0-0.5,0
		C195.1,565.3,191.5,567.7,188.1,570.1z"/>
	<path opacity="0.37" fill="#8F89C1" enable-background="new    " d="M188.1,570.1c3.6-2.5,7.3-4.9,11-7.2l0,0c-0.2,0-0.3,0-0.5,0
		C195.1,565.3,191.5,567.7,188.1,570.1z"/>
	<polygon fill="#C2B2D6" points="-134,696 -134,696.3 -134,708 1077,708 1077,696 	"/>
	<polygon opacity="0.75" fill="#827BB9" enable-background="new    " points="-134,696 -134,696.3 -134,708 1077,708 1077,696 	"/>
	<polygon opacity="0.39" fill="#8F89C1" enable-background="new    " points="-134,696 -134,696.3 -134,708 1077,708 1077,696 	"/>
	<polygon opacity="0.37" fill="#8F89C1" enable-background="new    " points="-134,696 -134,696.3 -134,708 1077,708 1077,696 	"/>
	<path opacity="0.58" fill="#8F89C1" enable-background="new    " d="M1077,542.1c24-8.5,47-18,70-28.1v-24c-23,5.9-47,11.4-70,15.7
		V542.1z"/>
	<path opacity="0.37" fill="#8F89C1" enable-background="new    " d="M1077,542.1c24-8.5,47-18,70-28.1v-24c-23,5.9-47,11.4-70,15.7
		V542.1z"/>
	<path fill="#C2B2D6" d="M898.2,524.6c-4.8,0-9.5,0-14.3-0.2c-14.2-0.5-28.4-1.9-42.6-3.6c-0.4,0-0.9,0.1-1.3,0.1
		c-9.8,0.9-19.6,2.2-29.6,4c-7.3,1.5-14.6,3.9-21.9,4.6c-8,0.8-14.6,2.3-22.6,3.9c-28.6,5.9-55.2,11.8-83.6,16.4
		c75.6,20,149.9,37,227.9,30.6c57.3-4.5,112.9-18.8,166.9-38.4v-36.4c-26,4.9-52.9,8.3-80,9.1l0,0
		C964.4,521,931.5,524.5,898.2,524.6z"/>
	<path opacity="0.58" fill="#8F89C1" enable-background="new    " d="M898.2,524.6c-4.8,0-9.5,0-14.3-0.2
		c-14.2-0.5-28.4-1.9-42.6-3.6c-0.4,0-0.9,0.1-1.3,0.1c-9.8,0.9-19.6,2.2-29.6,4c-7.3,1.5-14.6,3.9-21.9,4.6
		c-8,0.8-14.6,2.3-22.6,3.9c-28.6,5.9-55.2,11.8-83.6,16.4c75.6,20,149.9,37,227.9,30.6c57.3-4.5,112.9-18.8,166.9-38.4v-36.4
		c-26,4.9-52.9,8.3-80,9.1l0,0C964.4,521,931.5,524.5,898.2,524.6z"/>
	<path opacity="0.37" fill="#8F89C1" enable-background="new    " d="M898.2,524.6c-4.8,0-9.5,0-14.3-0.2
		c-14.2-0.5-28.4-1.9-42.6-3.6c-0.4,0-0.9,0.1-1.3,0.1c-9.8,0.9-19.6,2.2-29.6,4c-7.3,1.5-14.6,3.9-21.9,4.6
		c-8,0.8-14.6,2.3-22.6,3.9c-28.6,5.9-55.2,11.8-83.6,16.4c75.6,20,149.9,37,227.9,30.6c57.3-4.5,112.9-18.8,166.9-38.4v-36.4
		c-26,4.9-52.9,8.3-80,9.1l0,0C964.4,521,931.5,524.5,898.2,524.6z"/>
	<path opacity="0.39" fill="#8F89C1" enable-background="new    " d="M1077,614.8c7-2.3,13-6.1,19.5-9.2c5.2-2.1,10.5-4.7,15.5-7.2
		V696h35V513.9c-23,10.1-46,19.6-70,28.1V614.8z"/>
	<path opacity="0.58" fill="#8F89C1" enable-background="new    " d="M1077,614.8c7-2.3,13-6.1,19.5-9.2c5.2-2.1,10.5-4.7,15.5-7.2
		V696h35V513.9c-23,10.1-46,19.6-70,28.1V614.8z"/>
	<path opacity="0.37" fill="#8F89C1" enable-background="new    " d="M1077,614.8c7-2.3,13-6.1,19.5-9.2c5.2-2.1,10.5-4.7,15.5-7.2
		V696h35V513.9c-23,10.1-46,19.6-70,28.1V614.8z"/>
	<path fill="#C2B2D6" d="M682.2,549.9c-1.3,0.2-2.7,0.4-4,0.7c-10.2,1.5-20.5,1.5-30.7,3.9c-57.1,12.3-110.4,8.4-166.9-4.7
		c-0.2,0.1-0.4,0.1-0.6,0.2c-84.3,21.5-167.5,17-249.3-2.9c-0.1,0-0.2,0-0.3-0.1c-0.1,0-0.2,0.1-0.3,0.1c-4.8,2-9.5,4.2-14.2,6.6
		c-2.8,1.4-5.5,3.1-8.2,4.5c-2.8,1.5-5.6,2.7-8.4,4.7l0,0h-0.1v-0.3c0,0,0.2,0,0.3,0c26.2,2.3,52.4,7.3,78.9,14.2
		C396,607,507.8,610.9,626.9,587.7c35.1-6.2,67.9-10.8,103.7-3.1c75.2,15.5,143.2,39.5,217,40.3c43.1,0,87.6,7.8,129.2-10.1
		c0.1,0,0.3-0.1,0.3-0.1v-72.8c-54,19.6-109.6,33.9-166.9,38.4C832.1,586.9,757.8,569.9,682.2,549.9z"/>
	<path opacity="0.39" fill="#8F89C1" enable-background="new    " d="M682.2,549.9c-1.3,0.2-2.7,0.4-4,0.7
		c-10.2,1.5-20.5,1.5-30.7,3.9c-57.1,12.3-110.4,8.4-166.9-4.7c-0.2,0.1-0.4,0.1-0.6,0.2c-84.3,21.5-167.5,17-249.3-2.9
		c-0.1,0-0.2,0-0.3-0.1c-0.1,0-0.2,0.1-0.3,0.1c-4.8,2-9.5,4.2-14.2,6.6c-2.8,1.4-5.5,3.1-8.2,4.5c-2.8,1.5-5.6,2.7-8.4,4.7l0,0
		h-0.1v-0.3c0,0,0.2,0,0.3,0c26.2,2.3,52.4,7.3,78.9,14.2C396,607,507.8,610.9,626.9,587.7c35.1-6.2,67.9-10.8,103.7-3.1
		c75.2,15.5,143.2,39.5,217,40.3c43.1,0,87.6,7.8,129.2-10.1c0.1,0,0.3-0.1,0.3-0.1v-72.8c-54,19.6-109.6,33.9-166.9,38.4
		C832.1,586.9,757.8,569.9,682.2,549.9z"/>
	<path opacity="0.58" fill="#8F89C1" enable-background="new    " d="M682.2,549.9c-1.3,0.2-2.7,0.4-4,0.7
		c-10.2,1.5-20.5,1.5-30.7,3.9c-57.1,12.3-110.4,8.4-166.9-4.7c-0.2,0.1-0.4,0.1-0.6,0.2c-84.3,21.5-167.5,17-249.3-2.9
		c-0.1,0-0.2,0-0.3-0.1c-0.1,0-0.2,0.1-0.3,0.1c-4.8,2-9.5,4.2-14.2,6.6c-2.8,1.4-5.5,3.1-8.2,4.5c-2.8,1.5-5.6,2.7-8.4,4.7l0,0
		h-0.1v-0.3c0,0,0.2,0,0.3,0c26.2,2.3,52.4,7.3,78.9,14.2C396,607,507.8,610.9,626.9,587.7c35.1-6.2,67.9-10.8,103.7-3.1
		c75.2,15.5,143.2,39.5,217,40.3c43.1,0,87.6,7.8,129.2-10.1c0.1,0,0.3-0.1,0.3-0.1v-72.8c-54,19.6-109.6,33.9-166.9,38.4
		C832.1,586.9,757.8,569.9,682.2,549.9z"/>
	<path opacity="0.37" fill="#8F89C1" enable-background="new    " d="M682.2,549.9c-1.3,0.2-2.7,0.4-4,0.7
		c-10.2,1.5-20.5,1.5-30.7,3.9c-57.1,12.3-110.4,8.4-166.9-4.7c-0.2,0.1-0.4,0.1-0.6,0.2c-84.3,21.5-167.5,17-249.3-2.9
		c-0.1,0-0.2,0-0.3-0.1c-0.1,0-0.2,0.1-0.3,0.1c-4.8,2-9.5,4.2-14.2,6.6c-2.8,1.4-5.5,3.1-8.2,4.5c-2.8,1.5-5.6,2.7-8.4,4.7l0,0
		h-0.1v-0.3c0,0,0.2,0,0.3,0c26.2,2.3,52.4,7.3,78.9,14.2C396,607,507.8,610.9,626.9,587.7c35.1-6.2,67.9-10.8,103.7-3.1
		c75.2,15.5,143.2,39.5,217,40.3c43.1,0,87.6,7.8,129.2-10.1c0.1,0,0.3-0.1,0.3-0.1v-72.8c-54,19.6-109.6,33.9-166.9,38.4
		C832.1,586.9,757.8,569.9,682.2,549.9z"/>
	<polygon fill="#C2B2D6" points="199.1,562.9 199.1,562.9 199.1,562.9 	"/>
	<polygon opacity="0.39" fill="#8F89C1" enable-background="new    " points="199.1,562.9 199.1,562.9 199.1,562.9 	"/>
	<polygon opacity="0.58" fill="#8F89C1" enable-background="new    " points="199.1,562.9 199.1,562.9 199.1,562.9 	"/>
	<polygon opacity="0.37" fill="#8F89C1" enable-background="new    " points="199.1,562.9 199.1,562.9 199.1,562.9 	"/>
	<path opacity="0.75" fill="#827BB9" enable-background="new    " d="M1112,696v-97.5c-5,2.5-10.3,5-15.5,7.2
		c-6.5,3-12.5,6.8-19.5,9.2V696H1112z"/>
	<path opacity="0.39" fill="#8F89C1" enable-background="new    " d="M1112,696v-97.5c-5,2.5-10.3,5-15.5,7.2
		c-6.5,3-12.5,6.8-19.5,9.2V696H1112z"/>
	<path opacity="0.58" fill="#8F89C1" enable-background="new    " d="M1112,696v-97.5c-5,2.5-10.3,5-15.5,7.2
		c-6.5,3-12.5,6.8-19.5,9.2V696H1112z"/>
	<path opacity="0.37" fill="#8F89C1" enable-background="new    " d="M1112,696v-97.5c-5,2.5-10.3,5-15.5,7.2
		c-6.5,3-12.5,6.8-19.5,9.2V696H1112z"/>
	<path fill="#C2B2D6" d="M1076.7,615c-41.6,17.8-86.1,10.1-129.2,10.1c-73.8-0.8-141.7-24.8-217-40.3c-35.8-7.7-68.7-3.1-103.7,3.1
		c-119.1,23.2-230.8,19.4-348.5-10.8c-26.6-7-52.9-11.8-79.2-14.1c-3.8,2.3-7.5,4.7-11.2,7.3c0.1,0,0.1-0.1,0.2-0.1
		c3.5-2.4,7-4.6,10.5-7c0.2-0.1,0.3-0.1,0.5-0.1l0,0v-0.2c-0.2,0.1-0.3,0.1-0.5,0.2c-3.6,2.4-7.1,4.8-10.7,7.3c-0.1,0-0.1,0-0.2,0.1
		c-1.1,0.7-2.1,1.5-3.2,2.3c-0.2,0.1-0.4,0.3-0.6,0.4c-5.6,4-11.1,8.3-16.4,13c-67.9,38.7-146.8,36.5-222.8,43.5
		c-9.5,0.8-19.7,3.1-29.2,6.2c-10.2,3.9-19.7,6.2-29.9,10.1c10.2-3.9,19.7-6.2,29.9-10.1c7.7-2.5,15.9-4.5,23.8-5.6
		c1.8-0.2,3.6-0.5,5.4-0.6c2.6-0.2,5.1-0.5,7.7-0.7c73.6-6.2,149.4-5.5,215.1-42.9c5.2-4.6,10.5-8.7,15.9-12.6
		c0.2-0.1,0.4-0.3,0.6-0.4c-5.6,4.1-11.1,8.5-16.5,13.2C99.6,625,20.7,622.6-55.3,629.6c-9.5,0.8-19.7,3.1-29.2,6.2
		c-10.2,3.9-19.7,6.2-29.9,10.1c-6.6,2.7-13.6,5.7-19.6,8.9V696h1211v-81.2C1077,614.9,1076.8,614.9,1076.7,615z"/>
	<path opacity="0.75" fill="#827BB9" enable-background="new    " d="M1076.7,615c-41.6,17.8-86.1,10.1-129.2,10.1
		c-73.8-0.8-141.7-24.8-217-40.3c-35.8-7.7-68.7-3.1-103.7,3.1c-119.1,23.2-230.8,19.4-348.5-10.8c-26.6-7-52.9-11.8-79.2-14.1
		c-3.8,2.3-7.5,4.7-11.2,7.3c0.1,0,0.1-0.1,0.2-0.1c3.5-2.4,7-4.6,10.5-7c0.2-0.1,0.3-0.1,0.5-0.1l0,0v-0.2
		c-0.2,0.1-0.3,0.1-0.5,0.2c-3.6,2.4-7.1,4.8-10.7,7.3c-0.1,0-0.1,0-0.2,0.1c-1.1,0.7-2.1,1.5-3.2,2.3c-0.2,0.1-0.4,0.3-0.6,0.4
		c-5.6,4-11.1,8.3-16.4,13c-67.9,38.7-146.8,36.5-222.8,43.5c-9.5,0.8-19.7,3.1-29.2,6.2c-10.2,3.9-19.7,6.2-29.9,10.1
		c10.2-3.9,19.7-6.2,29.9-10.1c7.7-2.5,15.9-4.5,23.8-5.6c1.8-0.2,3.6-0.5,5.4-0.6c2.6-0.2,5.1-0.5,7.7-0.7
		c73.6-6.2,149.4-5.5,215.1-42.9c5.2-4.6,10.5-8.7,15.9-12.6c0.2-0.1,0.4-0.3,0.6-0.4c-5.6,4.1-11.1,8.5-16.5,13.2
		C99.6,625,20.7,622.6-55.3,629.6c-9.5,0.8-19.7,3.1-29.2,6.2c-10.2,3.9-19.7,6.2-29.9,10.1c-6.6,2.7-13.6,5.7-19.6,8.9V696h1211
		v-81.2C1077,614.9,1076.8,614.9,1076.7,615z"/>
	<path opacity="0.39" fill="#8F89C1" enable-background="new    " d="M1076.7,615c-41.6,17.8-86.1,10.1-129.2,10.1
		c-73.8-0.8-141.7-24.8-217-40.3c-35.8-7.7-68.7-3.1-103.7,3.1c-119.1,23.2-230.8,19.4-348.5-10.8c-26.6-7-52.9-11.8-79.2-14.1
		c-3.8,2.3-7.5,4.7-11.2,7.3c0.1,0,0.1-0.1,0.2-0.1c3.5-2.4,7-4.6,10.5-7c0.2-0.1,0.3-0.1,0.5-0.1l0,0v-0.2
		c-0.2,0.1-0.3,0.1-0.5,0.2c-3.6,2.4-7.1,4.8-10.7,7.3c-0.1,0-0.1,0-0.2,0.1c-1.1,0.7-2.1,1.5-3.2,2.3c-0.2,0.1-0.4,0.3-0.6,0.4
		c-5.6,4-11.1,8.3-16.4,13c-67.9,38.7-146.8,36.5-222.8,43.5c-9.5,0.8-19.7,3.1-29.2,6.2c-10.2,3.9-19.7,6.2-29.9,10.1
		c10.2-3.9,19.7-6.2,29.9-10.1c7.7-2.5,15.9-4.5,23.8-5.6c1.8-0.2,3.6-0.5,5.4-0.6c2.6-0.2,5.1-0.5,7.7-0.7
		c73.6-6.2,149.4-5.5,215.1-42.9c5.2-4.6,10.5-8.7,15.9-12.6c0.2-0.1,0.4-0.3,0.6-0.4c-5.6,4.1-11.1,8.5-16.5,13.2
		C99.6,625,20.7,622.6-55.3,629.6c-9.5,0.8-19.7,3.1-29.2,6.2c-10.2,3.9-19.7,6.2-29.9,10.1c-6.6,2.7-13.6,5.7-19.6,8.9V696h1211
		v-81.2C1077,614.9,1076.8,614.9,1076.7,615z"/>
	<path opacity="0.58" fill="#8F89C1" enable-background="new    " d="M1076.7,615c-41.6,17.8-86.1,10.1-129.2,10.1
		c-73.8-0.8-141.7-24.8-217-40.3c-35.8-7.7-68.7-3.1-103.7,3.1c-119.1,23.2-230.8,19.4-348.5-10.8c-26.6-7-52.9-11.8-79.2-14.1
		c-3.8,2.3-7.5,4.7-11.2,7.3c0.1,0,0.1-0.1,0.2-0.1c3.5-2.4,7-4.6,10.5-7c0.2-0.1,0.3-0.1,0.5-0.1l0,0v-0.2
		c-0.2,0.1-0.3,0.1-0.5,0.2c-3.6,2.4-7.1,4.8-10.7,7.3c-0.1,0-0.1,0-0.2,0.1c-1.1,0.7-2.1,1.5-3.2,2.3c-0.2,0.1-0.4,0.3-0.6,0.4
		c-5.6,4-11.1,8.3-16.4,13c-67.9,38.7-146.8,36.5-222.8,43.5c-9.5,0.8-19.7,3.1-29.2,6.2c-10.2,3.9-19.7,6.2-29.9,10.1
		c10.2-3.9,19.7-6.2,29.9-10.1c7.7-2.5,15.9-4.5,23.8-5.6c1.8-0.2,3.6-0.5,5.4-0.6c2.6-0.2,5.1-0.5,7.7-0.7
		c73.6-6.2,149.4-5.5,215.1-42.9c5.2-4.6,10.5-8.7,15.9-12.6c0.2-0.1,0.4-0.3,0.6-0.4c-5.6,4.1-11.1,8.5-16.5,13.2
		C99.6,625,20.7,622.6-55.3,629.6c-9.5,0.8-19.7,3.1-29.2,6.2c-10.2,3.9-19.7,6.2-29.9,10.1c-6.6,2.7-13.6,5.7-19.6,8.9V696h1211
		v-81.2C1077,614.9,1076.8,614.9,1076.7,615z"/>
	<path opacity="0.37" fill="#8F89C1" enable-background="new    " d="M1076.7,615c-41.6,17.8-86.1,10.1-129.2,10.1
		c-73.8-0.8-141.7-24.8-217-40.3c-35.8-7.7-68.7-3.1-103.7,3.1c-119.1,23.2-230.8,19.4-348.5-10.8c-26.6-7-52.9-11.8-79.2-14.1
		c-3.8,2.3-7.5,4.7-11.2,7.3c0.1,0,0.1-0.1,0.2-0.1c3.5-2.4,7-4.6,10.5-7c0.2-0.1,0.3-0.1,0.5-0.1l0,0v-0.2
		c-0.2,0.1-0.3,0.1-0.5,0.2c-3.6,2.4-7.1,4.8-10.7,7.3c-0.1,0-0.1,0-0.2,0.1c-1.1,0.7-2.1,1.5-3.2,2.3c-0.2,0.1-0.4,0.3-0.6,0.4
		c-5.6,4-11.1,8.3-16.4,13c-67.9,38.7-146.8,36.5-222.8,43.5c-9.5,0.8-19.7,3.1-29.2,6.2c-10.2,3.9-19.7,6.2-29.9,10.1
		c10.2-3.9,19.7-6.2,29.9-10.1c7.7-2.5,15.9-4.5,23.8-5.6c1.8-0.2,3.6-0.5,5.4-0.6c2.6-0.2,5.1-0.5,7.7-0.7
		c73.6-6.2,149.4-5.5,215.1-42.9c5.2-4.6,10.5-8.7,15.9-12.6c0.2-0.1,0.4-0.3,0.6-0.4c-5.6,4.1-11.1,8.5-16.5,13.2
		C99.6,625,20.7,622.6-55.3,629.6c-9.5,0.8-19.7,3.1-29.2,6.2c-10.2,3.9-19.7,6.2-29.9,10.1c-6.6,2.7-13.6,5.7-19.6,8.9V696h1211
		v-81.2C1077,614.9,1076.8,614.9,1076.7,615z"/>
</g>
</svg>
