<svg xmlns="http://www.w3.org/2000/svg" viewBox="0 174.5 1000 438.5"><path fill="#2E2D47" d="M-4.3 174.5v348.8c12.6-2.3 25.3-4.2 38.2-5.8 41.2-5 79.4 11 118.6 22 51.2 14 103.5 4 154.7 11-2 9 1 20 12.1 20 104.5 3 207-16 307.5-47 116.6-37 228.1-60 349.7-79 8.2-1.3 16.2-2.9 24.1-4.6V174.5H-4.3z"/><path fill="#B7B7B7" d="M1100.4 607.9H696.2c-7.8 0-9.7-6.3-4.6-13.7l34.5-50.1c3.4-4.9 10.9-8.8 16.8-8.8h310.5c6 0 13.4 3.9 16.8 8.8l34.5 50.1c5.4 7.4 3.4 13.7-4.3 13.7z"/><path fill="#DBDBDA" stroke="#BFBEBE" stroke-width=".5" stroke-miterlimit="10" d="M1100 604.2H695.8c-7.8 0-9.7-6.3-4.6-13.7l34.5-50.1c3.4-4.9 10.9-8.8 16.8-8.8H1053c6 0 13.4 3.9 16.8 8.8l34.5 50.1c5.4 7.4 3.4 13.7-4.3 13.7z"/><path fill="#B9B9BA" d="M923.5 596.4h-63.2c-1.5 0-2.2-1.5-1.5-3.2l4.6-11.8c.5-1.2 1.9-2.2 3.1-2.2h50.9c1.2 0 2.6 1 3.1 2.2l4.6 11.8c.6 1.8-.1 3.2-1.6 3.2z"/><path fill="#D3D3D3" d="M1070 575.2H726.6c-6.6 0-10.1-3-7.8-6.6l16.9-26.8c1.8-2.9 7.9-5.2 13.6-5.2h298c5.7 0 11.8 2.3 13.6 5.2l16.9 26.8c2.3 3.6-1.2 6.6-7.8 6.6z"/><g fill="#3A3A3A"><path d="M775.3 548.4H747c-.3 0-.4-.2-.2-.4l3.5-6c.1-.2.5-.4.7-.4h27.5c.3 0 .4.2.3.4l-2.9 6c0 .2-.3.4-.6.4zM813.3 548.4H785c-.3 0-.4-.2-.3-.4l2.7-6c.1-.2.4-.4.7-.4h27.5c.3 0 .4.2.3.4l-2 6c-.1.2-.4.4-.6.4zM849.8 548.4h-28.3c-.3 0-.4-.2-.3-.4l1.8-6c.1-.2.3-.4.6-.4h27.5c.3 0 .4.2.4.4l-1.1 6c-.1.2-.4.4-.6.4zM886.8 548.4h-28.3c-.3 0-.5-.2-.4-.4l1-6c0-.2.3-.4.5-.4h27.5c.3 0 .5.2.5.4l-.3 6c0 .2-.3.4-.5.4zM924.8 548.4h-28.3c-.3 0-.5-.2-.5-.4l.1-6c0-.2.2-.4.5-.4h27.5c.3 0 .5.2.5.4l.6 6c0 .2-.2.4-.4.4zM961.3 548.4H933c-.3 0-.5-.2-.5-.4l-.8-6c0-.2.2-.4.4-.4h27.5c.3 0 .5.2.6.4l1.4 6c.1.2-.1.4-.3.4zM1052.2 548.5h-43.3c-.3 0-.6-.2-.7-.4l-2.5-6c-.1-.2 0-.4.3-.4h42.1c.3 0 .6.2.7.4l3.5 6c.3.2.2.4-.1.4zM825.2 558.2h-29.3c-.3 0-.4-.2-.3-.5l2.5-6.5c.1-.3.4-.5.7-.5h28.5c.3 0 .4.2.4.5l-1.8 6.5c-.2.2-.5.5-.7.5zM864.6 558.2h-29.3c-.3 0-.5-.2-.4-.5l1.6-6.5c.1-.3.3-.5.6-.5h28.5c.3 0 .5.2.4.5l-.8 6.5c-.1.2-.4.5-.6.5zM902.5 558.2h-29.3c-.3 0-.5-.2-.5-.5l.7-6.5c0-.3.3-.5.5-.5h28.5c.3 0 .5.2.5.5l.1 6.5c0 .2-.3.5-.5.5zM940.9 558.2h-29.3c-.3 0-.5-.2-.5-.5l-.3-6.5c0-.3.2-.5.5-.5h28.5c.3 0 .5.2.6.5l1 6.5c-.1.2-.3.5-.5.5zM980.3 558.2H951c-.3 0-.5-.2-.6-.5l-1.2-6.5c0-.3.1-.5.4-.5h28.5c.3 0 .6.2.6.5l1.9 6.5c.1.2-.1.5-.3.5zM1058.7 558.4h-29.3c-.3 0-.6-.2-.7-.5l-3.1-6.5c-.1-.3 0-.5.3-.5h28.5c.3 0 .6.2.8.5l3.8 6.5c.1.2 0 .5-.3.5zM785.2 558.2h-44c-.3 0-.4-.2-.2-.5l3.8-6.5c.1-.3.5-.5.8-.5h42.8c.3 0 .4.2.3.5l-2.7 6.5c-.2.2-.5.5-.8.5zM982.1 568.3H791.5c-.3 0-.4-.2-.3-.5l2.7-7c.1-.3.4-.5.7-.5h185.2c.3 0 .6.2.7.5l2.1 7c0 .3-.2.5-.5.5zM780.9 568.3h-45.6c-.3 0-.4-.2-.2-.5l4.1-7c.2-.3.5-.5.8-.5h44.3c.3 0 .4.2.3.5l-2.9 7c-.1.3-.5.5-.8.5zM1064.6 568.5h-30.4c-.3 0-.6-.2-.8-.5l-3.3-7c-.1-.3 0-.5.3-.5h29.6c.3 0 .6.2.8.5l4.1 7c.1.3 0 .5-.3.5zM998.3 548.5H970c-.3 0-.5-.2-.6-.4l-1.6-6c-.1-.2.1-.4.4-.4h27.5c.3 0 .5.2.6.4l2.3 6c.2.2 0 .4-.3.4zM1018.7 558.4h-29.3c-.3 0-.6-.2-.7-.5l-2.1-6.5c-.1-.3.1-.5.3-.5h28.5c.3 0 .6.2.7.5l2.9 6.5c.1.2 0 .5-.3.5zM1023.2 568.5h-30.4c-.3 0-.6-.2-.7-.5l-2.3-7c-.1-.3.1-.5.3-.5h29.6c.3 0 .6.2.7.5l3.1 7c.1.3 0 .5-.3.5z"/></g><path fill="#3A3A3A" d="M1048.7 314.6H745.6c-7.6 0-13.7 6.1-13.7 13.7V516c0 7.6 6.1 13.7 13.7 13.7h11.9l1.2 3.1h276.8l1.2-3.1h11.9c7.6 0 13.7-6.1 13.7-13.7V328.4c.1-7.6-6-13.8-13.6-13.8z"/><path fill="#FFF" d="M746.5 510.3c0 3.2 2.6 5.8 5.8 5.8h291.2c3.2 0 5.8-2.6 5.8-5.8V342H746.5v168.3z"/><path fill="#8DB0DD" d="M1044.4 328.5h-293c-2.8.4-4.9 2.8-4.9 5.7v7.9h302.7v-7.9c.1-2.9-2.1-5.3-4.8-5.7z"/><circle fill="#F1F1F2" cx="789.5" cy="335.2" r="3.6"/><path fill="#F1F1F2" d="M819 337.1h-22.4c-.4 0-.7-.3-.7-.7V334c0-.4.3-.7.7-.7H819c.4 0 .7.3.7.7v2.4c0 .4-.3.7-.7.7zM966.5 336.9h-9.9c-.3 0-.5-.2-.5-.5V334c0-.3.2-.5.5-.5h9.9c.3 0 .5.2.5.5v2.4c0 .2-.2.5-.5.5zM979 336.9h-6.7c-.3 0-.5-.2-.5-.5V334c0-.3.2-.5.5-.5h6.7c.3 0 .5.2.5.5v2.4c0 .2-.2.5-.5.5zM996.5 336.9h-12c-.3 0-.5-.2-.5-.5V334c0-.3.2-.5.5-.5h12c.3 0 .5.2.5.5v2.4c0 .2-.2.5-.5.5zM1009.4 336.9h-8c-.3 0-.5-.2-.5-.5V334c0-.3.2-.5.5-.5h8c.3 0 .5.2.5.5v2.4c0 .2-.2.5-.5.5z"/><path opacity=".08" fill="#808184" d="M1007.3 397.6H788.2c-1.4 0-2.6-1.2-2.6-2.6v-36.7c0-1.4 1.2-2.6 2.6-2.6h219.2c1.4 0 2.6 1.2 2.6 2.6V395c-.1 1.4-1.2 2.6-2.7 2.6zM849.3 504.1h-60.6c-1.4 0-2.6-1.2-2.6-2.6v-87.9c0-1.4 1.2-2.6 2.6-2.6h60.6c1.4 0 2.6 1.2 2.6 2.6v87.9c0 1.5-1.2 2.6-2.6 2.6zM928.2 504.1h-60.6c-1.4 0-2.6-1.2-2.6-2.6v-87.9c0-1.4 1.2-2.6 2.6-2.6h60.6c1.4 0 2.6 1.2 2.6 2.6v87.9c0 1.5-1.2 2.6-2.6 2.6zM1007.3 504.1h-60.6c-1.4 0-2.6-1.2-2.6-2.6v-87.9c0-1.4 1.2-2.6 2.6-2.6h60.6c1.4 0 2.6 1.2 2.6 2.6v87.9c0 1.5-1.1 2.6-2.6 2.6z"/><g><path opacity=".45" fill="#BDDC99" d="M819 457.6l18.1 9.3c1.4-2.8 2.3-6 2.3-9.3H819z"/><path opacity=".45" fill="#A4DAF6" d="M819 457.6h20.4c0-11.3-9.2-20.5-20.5-20.5s-20.5 9.2-20.5 20.5H819z"/><path opacity=".45" fill="#AB80B8" d="M797.8 458.3c0 11.3 9.2 20.5 20.5 20.5h.1l-.1-20.5h-20.5z"/><path opacity=".45" fill="#F39BC2" d="M818.9 457.6l.1 20.5c7.9-.1 14.8-4.6 18.1-11.2l-18.1-9.3h-.1z"/></g><g opacity=".69"><path fill="#929497" d="M880.4 440.5h.3v34.1h-.3z"/><path fill="#929497" d="M880.6 474.4h34.1v.3h-34.1z"/><path fill="#29B473" d="M884.3 461.2h3.2v13.1h-3.2zM890.8 455.8h3.2v18.5h-3.2zM897.1 460.8h3.2v13.7h-3.2zM903.1 450.3h3.2v24.1h-3.2zM909.5 446h3.2v28.3h-3.2z"/></g><g><path opacity=".77" fill="#929497" d="M959.9 440.5h.3v34.1h-.3z"/><path opacity=".77" fill="#929497" d="M960.1 474.4h34.1v.3h-34.1z"/><circle opacity=".77" fill="#EF8E8D" cx="965" cy="469.6" r=".3"/><circle opacity=".77" fill="#EF8E8D" cx="969.6" cy="463" r=".3"/><circle opacity=".77" fill="#EF8E8D" cx="973.8" cy="459.2" r=".3"/><circle opacity=".77" fill="#EF8E8D" cx="978.1" cy="462.6" r=".3"/><circle opacity=".77" fill="#EF8E8D" cx="982.9" cy="456.5" r=".3"/><circle opacity=".77" fill="#EF8E8D" cx="987.8" cy="455" r=".3"/><circle opacity=".77" fill="#EF8E8D" cx="991.6" cy="450.5" r=".3"/><path opacity=".77" fill="#EF8E8D" stroke="#EF8E8D" stroke-width=".15" stroke-miterlimit="10" d="M960.1 474.4l4.9-4.8M965.1 469.4l4.5-6.3"/><path opacity=".77" fill="none" stroke="#EF8E8D" stroke-width=".15" stroke-miterlimit="10" d="M969.8 462.8l3.7-3.4M973.9 459.4l4 3.1M978.3 462.5l4.5-5.9M983 456.4l4.7-1.4M988 454.9l3.5-4.2"/></g></svg>