<?xml version="1.0" encoding="utf-8"?>
<!-- Generator: Adobe Illustrator 18.0.0, SVG Export Plug-In . SVG Version: 6.00 Build 0)  -->
<!DOCTYPE svg PUBLIC "-//W3C//DTD SVG 1.1//EN" "http://www.w3.org/Graphics/SVG/1.1/DTD/svg11.dtd">
<svg version="1.1" id="Layer_1" xmlns="http://www.w3.org/2000/svg" xmlns:xlink="http://www.w3.org/1999/xlink" x="0px" y="0px"
	 viewBox="0 249.1 1000 423" enable-background="new 0 249.1 1000 423" xml:space="preserve">
<linearGradient id="SVGID_1_" gradientUnits="userSpaceOnUse" x1="0" y1="476.2055" x2="1005" y2="476.2055" gradientTransform="matrix(1 0 0 -1 0 934.5)">
	<stop  offset="0" style="stop-color:#43419A"/>
	<stop  offset="1" style="stop-color:#66417C"/>
</linearGradient>
<path fill="url(#SVGID_1_)" d="M428.1,410.9c-30.2,4-63.3,8-91.5-6c-7-4-5-15-7-22c-3-6-12.1-9-19.1-10c-82.4-12-162.8,4-239.2,32
	c-24.6,9.5-48.2,20.7-71.4,33.2v216.1c0.3-0.1,0.7-0.2,1-0.3c64.3-19,124.6-35,192-49c168.8-34,325.6-74,492.4-61
	c10.1,0,17.1,7,22.1,16c10,17,11.1,39,31.2,47c42.2,15,86.4,10,130.7,3c45.2-6.9,88.4-17.7,130.7-30.6V262.4
	C815.7,328.5,627.4,381.3,428.1,410.9z"/>
</svg>
