<?xml version="1.0" encoding="utf-8"?>
<!-- Generator: Adobe Illustrator 18.0.0, SVG Export Plug-In . SVG Version: 6.00 Build 0)  -->
<!DOCTYPE svg PUBLIC "-//W3C//DTD SVG 1.1//EN" "http://www.w3.org/Graphics/SVG/1.1/DTD/svg11.dtd">
<svg version="1.1" id="Layer_1" xmlns="http://www.w3.org/2000/svg" xmlns:xlink="http://www.w3.org/1999/xlink" x="0px" y="0px"
	 viewBox="0 0 822.6 351.1" enable-background="new 0 0 822.6 351.1" xml:space="preserve">
<g>
	<defs>
		<path id="SVGID_1_" d="M1.6,147V94.9L216.8,6.5v63.4L64.1,121.2v0.9l152.7,51.2v63.4L1.6,147z M531,210.6
			c0,42.7-13.4,76-40.3,99.8c-26.9,23.8-66.1,35.7-117.6,35.7c-13.9,0-27.4-1.1-40.4-3.3c-13-2.2-22.4-4.6-28-7.4V263
			c9.3,5.8,20.1,10.4,32.6,13.9c12.4,3.5,23.5,5.2,33.2,5.2c20.7,0,37.3-5,49.7-15c12.4-10,18.7-23.2,18.7-39.7v-13.7H438
			c-6.7,10.1-15.8,18.2-27.5,24.3c-11.7,6.1-24.1,9.1-37.5,9.1c-28.7,0-51.3-10-68-29.9c-16.6-19.9-25-47.4-25-82.4
			c0-24,4.3-45.2,13-63.6c8.7-18.4,20.8-32.5,36.3-42.5c15.5-9.9,32.6-14.9,51.2-14.9c25.6,0,44.7,9.5,57.3,28.4h0.9v-23H531V210.6z
			 M440.4,124.2c0-13-2.9-23.4-8.8-31.1c-5.9-7.7-13.6-11.5-23.3-11.5c-10.4,0-18.8,4.6-25,13.9c-6.2,9.3-9.3,21.6-9.3,37.1
			c0,14.3,2.6,25.7,7.8,34.1c5.2,8.4,13.5,12.6,24.8,12.6c10.6,0,18.9-4.3,24.9-12.9c6-8.6,9-20.2,9-34.6V124.2z M605,232.3v-64.1
			l152-50.6v-0.9L605,66V2l215.2,88.6v51.9L605,232.3z"/>
	</defs>
	<clipPath id="SVGID_2_">
		<use xlink:href="#SVGID_1_"  overflow="visible"/>
	</clipPath>
	<g clip-path="url(#SVGID_2_)">
		<rect x="-533.1" y="-584" fill="#C2B2D7" width="1658" height="958"/>
		<path opacity="0.75" fill="#837BBA" d="M1151.4,207.5c-9,4-18,9-27,12c-57,23-118,13-177,13c-101-1-194-32-297-52
			c-49-10-94-4-142,4c-163,30-316,25-477-14c-73-18-144-25-218-17c-65,8-126,22-190,39c-12,3-24,5-35,9c-43,16-85,32-127,52
			c-5.7,2.6-11.3,4.9-16.9,7.2V457h1727.9V198.2C1165.5,201.4,1158.5,204.7,1151.4,207.5z"/>
		<path opacity="0.39" fill="#908AC3" d="M1271.4,71c-9,3-18,4-27,8c-112,48-227,87-348,96c-143,11-277-32-418-66
			c-83-20-160-13-243,0c-24,4-44,16-68,19c-91,12-176,0-267-18c-109-23-209-48-318-39c-59.7,4.9-113,25.6-164.9,54.2V391h1864.4
			V67.6C1278.4,68.7,1274.9,69.9,1271.4,71z"/>
		<path opacity="0.58" fill="#908AC3" d="M1280.8,43.3c-93,23-182,46-276,47c-9,0-20,3-29,4c-72,4-142-4-216,9c-10,2-20,5-30,6
			c-11,1-20,3-31,5c-41,8-79,16-120,22c-14,2-28,2-42,5c-84,17-162,10-246-10c-139-33-296-45-411,51c-93,50-201,47-305,56
			c-13,1-27,4-40,8c-14,5-27,8-41,13c-9.1,3.5-18,7.4-26.9,11.5v53.5h1889.9V21c-10.9,2.4-21.9,4.8-33,7.4
			C1308.8,32.3,1295.8,39.3,1280.8,43.3z"/>
		<path opacity="0.37" fill="#908AC3" d="M860.4,102.5c-84-3-168-25-253-22c-103,4-198,30-300,55c-137,33-272,19-404-20
			c-91-27-172-64-268-82c-57-11-111-6-167,1c-8,1-17,3-25,6c-9,2-18,5-26,9c-6.9,3.4-13.9,6.7-20.9,9.9v280.2h1823.9V31.2
			C1104.8,75.3,984.4,105.7,860.4,102.5z"/>
	</g>
</g>
<g>
</g>
<g>
</g>
<g>
</g>
<g>
</g>
<g>
</g>
<g>
</g>
</svg>
