<?xml version="1.0" encoding="utf-8"?>
<!-- Generator: Adobe Illustrator 18.0.0, SVG Export Plug-In . SVG Version: 6.00 Build 0)  -->
<!DOCTYPE svg PUBLIC "-//W3C//DTD SVG 1.1//EN" "http://www.w3.org/Graphics/SVG/1.1/DTD/svg11.dtd">
<svg version="1.1" id="Layer_1" xmlns="http://www.w3.org/2000/svg" xmlns:xlink="http://www.w3.org/1999/xlink" x="0px" y="0px"
	 viewBox="691.8 0 1228.2 1080" enable-background="new 691.8 0 1228.2 1080" xml:space="preserve">
<polygon fill="#DDDDF5" points="862.7,282 1011.5,24.1 1160.5,282 "/>
<polygon fill="#BCBBEB" points="1160.5,282 1309.4,24.1 1458.3,282 "/>
<polygon fill="#807FAD" points="1458.3,282 1607.3,24.1 1756.3,282 "/>
<polygon fill="#ABA9E7" points="1607.3,24.1 1458.3,282 1309.4,24.1 "/>
<polygon fill="#CDCCF0" points="1309.4,24.1 1160.5,282 1011.5,24.1 "/>
<polygon fill="#ABA9E7" points="713.8,540 862.7,282 1011.5,540 "/>
<polygon fill="#807FAD" points="1160.5,282 1011.5,540 862.7,282 "/>
<polygon fill="#CDCCF0" points="862.7,798 1011.5,540 1160.5,798 "/>
<polygon fill="#ABA9E7" points="1458.3,798 1607.3,540 1756.3,798 "/>
<polygon fill="#CDCCF0" points="1905.1,540 1756.3,798 1607.3,540 "/>
<polygon fill="#BCBBEB" points="1011.5,540 862.7,798 713.8,540 "/>
<polygon fill="#807FAD" points="1011.5,1055.9 1160.5,798 1309.4,1055.9 "/>
<polygon fill="#CDCCF0" points="1756.3,798 1607.3,1055.9 1458.3,798 "/>
<polygon fill="#ABA9E7" points="1458.3,798 1309.4,1055.9 1160.5,798 "/>
<polygon fill="#DDDDF5" points="1160.5,798 1011.5,1055.9 862.7,798 "/>
<polygon fill="#BCBBEB" points="1607.3,540 1458.3,798 1309.4,540 "/>
<polygon fill="#BCBBEB" points="1309.4,1055.9 1458.3,798 1607.3,1055.9 "/>
</svg>
