<?xml version="1.0" encoding="utf-8"?>
<!-- Generator: Adobe Illustrator 18.0.0, SVG Export Plug-In . SVG Version: 6.00 Build 0)  -->
<!DOCTYPE svg PUBLIC "-//W3C//DTD SVG 1.1//EN" "http://www.w3.org/Graphics/SVG/1.1/DTD/svg11.dtd">
<svg version="1.1" id="Layer_1" xmlns="http://www.w3.org/2000/svg" xmlns:xlink="http://www.w3.org/1999/xlink" x="0px" y="0px"
	 viewBox="0 0 1802 588" enable-background="new 0 0 1802 588" xml:space="preserve">
<g>
	<defs>
		<path id="SVGID_1_" d="M338.7,403.3c0,56.4-17.7,100.4-53.2,131.8c-35.5,31.5-87.3,47.2-155.4,47.2c-18.4,0-36.2-1.4-53.4-4.3
			s-29.6-6.1-37-9.8v-95.8c12.2,7.6,26.6,13.8,43,18.4c16.4,4.6,31.1,6.9,43.9,6.9c27.4,0,49.3-6.6,65.7-19.8
			c16.4-13.2,24.7-30.7,24.7-52.5v-18.1h-1.1c-8.8,13.4-20.9,24.1-36.3,32.1c-15.4,8-31.9,12.1-49.5,12.1
			c-37.9,0-67.8-13.1-89.8-39.5c-22-26.3-33-62.6-33-108.9c0-31.7,5.7-59.8,17.2-84.1C36,194.8,52,176.1,72.5,163
			c20.5-13.1,43-19.7,67.7-19.7c33.9,0,59.1,12.5,75.7,37.6h1.1v-30.4h121.7V403.3z M219.1,289.1c0-17.2-3.9-30.9-11.6-41
			c-7.7-10.1-18-15.2-30.8-15.2c-13.8,0-24.8,6.1-33,18.4c-8.2,12.2-12.3,28.6-12.3,49.1c0,18.9,3.4,34,10.3,45
			c6.9,11.1,17.8,16.6,32.7,16.6c14,0,24.9-5.7,32.9-17.1c7.9-11.4,11.9-26.6,11.9-45.8V289.1z M527,71.4c0,17.2-6.3,31.2-18.8,41.9
			c-12.5,10.7-29,16.1-49.5,16.1c-19.9,0-36.2-5.5-48.9-16.6c-12.7-11.1-19.1-24.9-19.1-41.3c0-16.8,6.2-30.5,18.5-40.9
			c12.3-10.4,28.8-15.6,49.5-15.6c20.5,0,37,5.2,49.5,15.6C520.7,40.9,527,54.5,527,71.4z M397.6,444.4V150.6h122.2v293.8H397.6z
			 M799.5,255.3c-4.6-2.1-10.8-4-18.6-5.7c-7.8-1.7-14.3-2.6-19.5-2.6c-40.4,0-60.5,23.3-60.5,70v127.4H578.6V150.6h122.2v51.6h1.1
			c7.5-18.6,18.1-32.7,31.8-42.3c13.8-9.7,29.8-14.5,48.2-14.5c6.7,0,12.5,1.1,17.5,3.4V255.3z M964.2,71.4
			c0,17.2-6.3,31.2-18.8,41.9c-12.5,10.7-29,16.1-49.5,16.1c-19.9,0-36.2-5.5-48.9-16.6c-12.7-11.1-19.1-24.9-19.1-41.3
			c0-16.8,6.2-30.5,18.5-40.9c12.3-10.4,28.8-15.6,49.5-15.6c20.5,0,37,5.2,49.5,15.6C958,40.9,964.2,54.5,964.2,71.4z M834.8,444.4
			V150.6H957v293.8H834.8z M1254.6,346.8c0,33.3-12.7,59.1-38,77.3c-25.3,18.3-60.7,27.4-106,27.4c-13.2,0-29.5-1.3-48.9-4
			c-19.4-2.7-35.2-5.9-47.5-9.8V352c36.2,16.1,66.4,24.1,90.7,24.1c23.9,0,35.9-6.2,35.9-18.6c0-5.2-2.8-9.4-8.3-12.8
			c-5.5-3.3-20.1-8.9-43.6-16.8c-26-8.2-45-19.1-56.8-32.7c-11.9-13.6-17.8-31.3-17.8-53.1c0-30.4,12.1-54.5,36.3-72.2
			c24.2-17.7,58.2-26.5,102-26.5c25.6,0,52.8,3.7,81.5,11.2v82.3c-12.1-5.2-25.2-9.5-39.6-12.9s-26.4-5.2-36.2-5.2
			c-8,0-14.4,1.3-19.2,4c-4.8,2.7-7.2,6.4-7.2,11.2c0,5.6,2.6,10,7.7,13.5c5.2,3.4,15.5,7.6,31,12.3c30,8.8,51.5,20.1,64.6,33.9
			C1248.1,307.5,1254.6,325.2,1254.6,346.8z M1489,444.4V276.8c0-29.3-11.2-43.9-33.6-43.9c-10.9,0-19.2,4.2-25,12.5
			c-5.7,8.3-8.6,19-8.6,32v167h-122.2V9.4h122.2v181h1.1c10.5-15.1,23.3-26.7,38.3-34.9c15-8.1,31.1-12.2,48.3-12.2
			c31.7,0,55.9,10.2,72.6,30.6c16.6,20.4,25,50.4,25,89.9v180.5H1489z M1795.1,393.3c0,17.4-6.1,31.5-18.4,42.2
			c-12.2,10.7-29.2,16.1-50.8,16.1c-19.7,0-35.8-5.6-48.3-16.8c-12.5-11.2-18.8-25-18.8-41.5c0-16.8,6.2-30.5,18.5-40.9
			c12.3-10.4,28.9-15.6,49.8-15.6c20.3,0,36.7,5.2,49.2,15.6C1788.9,362.8,1795.1,376.5,1795.1,393.3z"/>
	</defs>
	<clipPath id="SVGID_2_">
		<use xlink:href="#SVGID_1_"  overflow="visible"/>
	</clipPath>
	<g clip-path="url(#SVGID_2_)">
		<rect x="-293.3" y="-678" fill="#C2B2D7" width="2288.2" height="1322.1"/>
		<path opacity="0.75" fill="#837BBA" d="M2031.5,414.2c-12.4,5.5-24.8,12.4-37.3,16.6c-78.7,31.7-162.9,17.9-244.3,17.9
			c-139.4-1.4-267.7-44.2-409.9-71.8c-67.6-13.8-129.7-5.5-196,5.5c-225,41.4-436.1,34.5-658.3-19.3
			C385,338.3,287,328.7,184.9,339.7c-89.7,11-173.9,30.4-262.2,53.8c-16.6,4.1-33.1,6.9-48.3,12.4c-59.3,22.1-117.3,44.2-175.3,71.8
			c-7.8,3.5-15.6,6.8-23.3,9.9v271.1h2384.7V401.5C2050.9,405.9,2041.3,410.4,2031.5,414.2z"/>
		<path opacity="0.39" fill="#908AC3" d="M2197,225.8c-12.4,4.1-24.8,5.5-37.3,11c-154.6,66.2-313.3,120.1-480.3,132.5
			c-197.4,15.2-382.3-44.2-576.9-91.1c-114.5-27.6-220.8-17.9-335.4,0c-33.1,5.5-60.7,22.1-93.8,26.2
			c-125.6,16.6-242.9,0-368.5-24.8C154.5,247.9,16.5,213.4-134,225.8c-82.3,6.7-156,35.3-227.5,74.8v366.9h2573.1V221.1
			C2206.8,222.8,2201.9,224.4,2197,225.8z"/>
		<path opacity="0.58" fill="#908AC3" d="M2210,187.7c-128.3,31.7-251.2,63.5-380.9,64.9c-12.4,0-27.6,4.1-40,5.5
			c-99.4,5.5-196-5.5-298.1,12.4c-13.8,2.8-27.6,6.9-41.4,8.3c-15.2,1.4-27.6,4.1-42.8,6.9c-56.6,11-109,22.1-165.6,30.4
			c-19.3,2.8-38.6,2.8-58,6.9c-115.9,23.5-223.6,13.8-339.5-13.8c-191.8-45.5-408.5-62.1-567.2,70.4
			c-128.3,69-277.4,64.9-420.9,77.3c-17.9,1.4-37.3,5.5-55.2,11c-19.3,6.9-37.3,11-56.6,17.9c-12.5,4.9-24.9,10.2-37.1,15.9v73.9
			H2315V156.8c-15,3.4-30.2,6.7-45.6,10.2C2248.7,172.5,2230.7,182.2,2210,187.7z"/>
		<path opacity="0.37" fill="#908AC3" d="M1629.9,269.4c-115.9-4.1-231.9-34.5-349.2-30.4c-142.2,5.5-273.3,41.4-414,75.9
			c-189.1,45.5-375.4,26.2-557.6-27.6C183.5,250.1,71.7,199-60.8,174.2c-78.7-15.2-153.2-8.3-230.5,1.4c-11,1.4-23.5,4.1-34.5,8.3
			c-12.4,2.8-24.8,6.9-35.9,12.4c-9.5,4.6-19.1,9.2-28.8,13.6v386.7h2517.2V170.9C1967.1,231.9,1801,273.8,1629.9,269.4z"/>
	</g>
</g>
<g>
</g>
<g>
</g>
<g>
</g>
<g>
</g>
<g>
</g>
<g>
</g>
</svg>
