<?xml version="1.0" encoding="utf-8"?>
<!-- Generator: Adobe Illustrator 18.0.0, SVG Export Plug-In . SVG Version: 6.00 Build 0)  -->
<!DOCTYPE svg PUBLIC "-//W3C//DTD SVG 1.1//EN" "http://www.w3.org/Graphics/SVG/1.1/DTD/svg11.dtd">
<svg version="1.1" id="Layer_1" xmlns="http://www.w3.org/2000/svg" xmlns:xlink="http://www.w3.org/1999/xlink" x="0px" y="0px"
	 viewBox="483.9 0 1436.1 800" enable-background="new 483.9 0 1436.1 800" xml:space="preserve">
<g>
	
		<linearGradient id="SVGID_1_" gradientUnits="userSpaceOnUse" x1="-26.3904" y1="53.0336" x2="1071.0519" y2="541.6466" gradientTransform="matrix(1.436 0 0 1.436 483.9243 6.404877e-003)">
		<stop  offset="0" style="stop-color:#34355E"/>
		<stop  offset="0.2327" style="stop-color:#3A355F"/>
		<stop  offset="0.5549" style="stop-color:#4C3661"/>
		<stop  offset="0.9281" style="stop-color:#693765"/>
		<stop  offset="1" style="stop-color:#703766"/>
	</linearGradient>
	<path fill="url(#SVGID_1_)" d="M483.9-8.9v768.8c60.9-23.4,124.4-34.8,189.6-43.2c182.4-23.3,356.1,7.3,539.9-34.9
		c90.5-20.4,173.8-43.6,252.7-90.2c10.1-6,20.1-11.6,30.2-17.3L1752.8-8.9H483.9z"/>
	<path fill="#703766" d="M1752.8-8.9l-256.5,583.3c133.7-74.6,268.5-124.2,420.8-148.5c1-0.1,1.9-0.3,2.9-0.4V-8.9H1752.8z"/>
</g>
<g>
	<path fill="#21252B" d="M1831.2,648.9h-412.4c-3.3,0-6-2.7-6-6V363.6c0-3.3,2.7-6,6-6h412.4c3.3,0,6,2.7,6,6V643
		C1837.1,646.2,1834.5,648.9,1831.2,648.9z"/>
	<g>
		<circle fill="#4EB649" cx="1810.7" cy="363.7" r="2.3"/>
		<circle fill="#FCBA3C" cx="1819.6" cy="363.7" r="2.3"/>
		<circle fill="#CC575E" cx="1827.6" cy="363.7" r="2.3"/>
	</g>
	<g opacity="0.37">
		<rect x="1419.1" y="361.3" fill="#D0D2D3" width="7.3" height="1.9"/>
		<rect x="1428.1" y="361.3" fill="#D0D2D3" width="4.2" height="1.9"/>
		<rect x="1434.1" y="361.3" fill="#D0D2D3" width="6" height="1.9"/>
		<rect x="1441.7" y="361.3" fill="#D0D2D3" width="6" height="1.9"/>
	</g>
	<g opacity="0.82">
		<rect x="1419.1" y="389.6" fill="#9CA4B2" width="32.3" height="7"/>
		<rect x="1424.9" y="401.5" fill="#9CA4B2" width="32.3" height="7"/>
		<rect x="1432" y="412.6" fill="#9CA4B2" width="19.5" height="7"/>
		<rect x="1432" y="423.6" fill="#9CA4B2" width="21.7" height="7"/>
		<rect x="1419.1" y="435.5" fill="#9CA4B2" width="25.4" height="7"/>
		<rect x="1419.3" y="446.6" fill="#9CA4B2" width="28.4" height="7"/>
		<rect x="1419.1" y="457.7" fill="#9CA4B2" width="34.9" height="7"/>
	</g>
	<path fill="#282C34" d="M1545.3,387.6V376h-58.7v11.6v1.3V649H1832c2.7,0,5-2.3,5-5.2V387.6H1545.3z"/>
	<g opacity="0.85">
		<g>
			<rect x="1499.9" y="407.1" fill="#B06275" width="18.5" height="4.3"/>
			<rect x="1523.5" y="407.1" fill="#D0975B" width="22.7" height="4.3"/>
			<rect x="1552" y="407.1" fill="#69B679" width="49.8" height="4.3"/>
			<rect x="1613.5" y="419.5" fill="#9EAEBF" width="44.1" height="4.3"/>
			<rect x="1511.2" y="413" fill="#B06275" width="18.5" height="4.3"/>
			<rect x="1534.7" y="413" fill="#D0975B" width="22.7" height="4.3"/>
			<rect x="1563.2" y="413" fill="#69B679" width="41.8" height="4.3"/>
			<rect x="1522.4" y="419.5" fill="#B06275" width="12.1" height="4.3"/>
			<rect x="1540" y="419.5" fill="#D0975B" width="22.7" height="4.3"/>
			<rect x="1568.4" y="419.5" fill="#69B679" width="39.6" height="4.3"/>
			<rect x="1663.2" y="419.5" fill="#B06275" width="12.1" height="4.3"/>
			<rect x="1522.4" y="425.5" fill="#B06275" width="18.5" height="4.3"/>
			<rect x="1546" y="425.5" fill="#D0975B" width="22.7" height="4.3"/>
			<rect x="1574.6" y="425.5" fill="#69B679" width="41.8" height="4.3"/>
			<rect x="1624.7" y="431.7" fill="#9EAEBF" width="72.9" height="4.3"/>
			<rect x="1533.8" y="431.7" fill="#B06275" width="12.1" height="4.3"/>
			<rect x="1551.3" y="431.7" fill="#D0975B" width="22.7" height="4.3"/>
			<rect x="1579.6" y="431.7" fill="#69B679" width="39.6" height="4.3"/>
			<rect x="1703.1" y="431.7" fill="#B06275" width="12.1" height="4.3"/>
			<rect x="1522.9" y="450.5" fill="#B06275" width="18.5" height="4.3"/>
			<rect x="1511.2" y="456.5" fill="#B06275" width="18.5" height="4.3"/>
			<rect x="1499.9" y="462.5" fill="#B06275" width="18.5" height="4.3"/>
			<rect x="1624.7" y="438.1" fill="#9EAEBF" width="89.5" height="4.3"/>
			<rect x="1533.8" y="438.1" fill="#B06275" width="12.1" height="4.3"/>
			<rect x="1551.3" y="438.1" fill="#D0975B" width="22.7" height="4.3"/>
			<rect x="1579.6" y="438.1" fill="#69B679" width="39.6" height="4.3"/>
			<rect x="1720.9" y="438.1" fill="#B06275" width="12.1" height="4.3"/>
			<rect x="1624.7" y="444.2" fill="#9EAEBF" width="103.7" height="4.3"/>
			<rect x="1533.8" y="444.2" fill="#B06275" width="12.1" height="4.3"/>
			<rect x="1551.3" y="444.2" fill="#D0975B" width="22.7" height="4.3"/>
			<rect x="1579.6" y="444.2" fill="#69B679" width="39.6" height="4.3"/>
			<rect x="1734.3" y="444.2" fill="#B06275" width="12.1" height="4.3"/>
		</g>
		<g>
			<rect x="1499.9" y="473.7" fill="#B06275" width="26.1" height="4.3"/>
			<rect x="1499.9" y="538.8" fill="#B06275" width="26.1" height="4.3"/>
			<rect x="1499.9" y="480.5" fill="#B679B3" width="33.2" height="4.3"/>
			<rect x="1538.5" y="480.5" fill="#B06275" width="33.3" height="4.3"/>
			<rect x="1499.3" y="487.2" fill="#3297C1" width="20.1" height="4.3"/>
			<rect x="1525.6" y="487.2" fill="#9EAEBF" width="6.3" height="4.3"/>
			<rect x="1538.1" y="487.2" fill="#B679B3" width="10.3" height="4.3"/>
			<rect x="1553.8" y="487.2" fill="#9EAEBF" width="6.3" height="4.3"/>
			<rect x="1510.5" y="493.4" fill="#9EAEBF" width="46.7" height="4.3"/>
			<rect x="1563.2" y="493.4" fill="#D0975B" width="22.7" height="4.3"/>
			<rect x="1499.3" y="500.2" fill="#9EAEBF" width="6.3" height="4.3"/>
			<rect x="1499.3" y="507.6" fill="#9EAEBF" width="31.9" height="4.3"/>
			<rect x="1536.7" y="507.6" fill="#9EAEBF" width="6.3" height="4.3"/>
			<rect x="1510.4" y="513.8" fill="#3297C1" width="27.1" height="4.3"/>
			<rect x="1543" y="513.8" fill="#9EAEBF" width="6.3" height="4.3"/>
			<rect x="1554" y="513.8" fill="#9EAEBF" width="6.3" height="4.3"/>
			<rect x="1523.6" y="520.1" fill="#B06275" width="148.5" height="4.3"/>
			<rect x="1509.8" y="526.4" fill="#9EAEBF" width="6.3" height="4.3"/>
			<rect x="1499.3" y="532.6" fill="#9EAEBF" width="6.3" height="4.3"/>
		</g>
		<g>
			<rect x="1499.9" y="549.3" fill="#B06275" width="26.1" height="4.3"/>
			<rect x="1499.9" y="555.7" fill="#B679B3" width="29.4" height="4.3"/>
			<rect x="1499.9" y="561.9" fill="#B679B3" width="29.4" height="4.3"/>
			<rect x="1535.1" y="555.7" fill="#69B679" width="80" height="4.3"/>
			<rect x="1535.1" y="561.9" fill="#69B679" width="96.6" height="4.3"/>
			<rect x="1499.9" y="570.7" fill="#D0975B" width="22.7" height="4.3"/>
			<rect x="1508.9" y="577" fill="#3297C1" width="27.1" height="4.3"/>
			<rect x="1542.7" y="577" fill="#D0975B" width="18.5" height="4.3"/>
			<rect x="1508.9" y="583.3" fill="#3297C1" width="32.2" height="4.3"/>
			<rect x="1548.9" y="583.3" fill="#D0975B" width="21.8" height="4.3"/>
			<rect x="1508.9" y="589.9" fill="#3297C1" width="25.4" height="4.3"/>
			<rect x="1540.7" y="589.9" fill="#D0975B" width="17.4" height="4.3"/>
			<rect x="1499.9" y="598.2" fill="#D0975B" width="22.7" height="4.3"/>
			<rect x="1508.9" y="604.6" fill="#3297C1" width="27.1" height="4.3"/>
			<rect x="1542.7" y="604.6" fill="#D0975B" width="18.5" height="4.3"/>
			<rect x="1499.6" y="611.7" fill="#D0975B" width="22.7" height="4.3"/>
			<rect x="1508.7" y="618.1" fill="#3297C1" width="27.1" height="4.3"/>
			<rect x="1542.4" y="618.1" fill="#D0975B" width="18.5" height="4.3"/>
			<rect x="1508.5" y="624.5" fill="#3297C1" width="39.6" height="4.3"/>
			<rect x="1553.3" y="624.5" fill="#D0975B" width="39.6" height="4.3"/>
		</g>
	</g>
</g>
<g>
	<path fill="#535454" d="M1751.8,737.7h-412.4c-3.3,0-6-2.7-6-6V452.2c0-3.3,2.7-6,6-6h412.4c3.3,0,6,2.7,6,6v279.4
		C1757.7,734.9,1754.9,737.7,1751.8,737.7z"/>
	<g>
		<g>
			<path fill="#7BA5D0" d="M1337.3,450.6c0.4-0.1,1-0.1,2-0.1c0.9,0,1.6,0.1,2,0.6c0.4,0.3,0.7,0.9,0.7,1.4s-0.1,1.1-0.6,1.6
				c-0.4,0.4-1.1,0.7-2,0.7c-0.1,0-0.4,0-0.4,0v2.3h-1.4v-6.5H1337.3z M1338.8,453.5c0.1,0,0.3,0,0.4,0c0.7,0,1.3-0.4,1.3-1
				s-0.4-1-1.1-1c-0.3,0-0.4,0-0.6,0L1338.8,453.5L1338.8,453.5z"/>
			<path fill="#7BA5D0" d="M1342.7,455.6c0.3,0.1,0.9,0.3,1.3,0.3s0.6-0.1,0.6-0.4s-0.1-0.3-0.7-0.6c-1-0.3-1.3-0.9-1.3-1.4
				c0-0.9,0.7-1.6,1.9-1.6c0.6,0,1,0.1,1.3,0.3l-0.3,1c-0.1-0.1-0.6-0.3-1-0.3c-0.3,0-0.6,0.1-0.6,0.4s0.1,0.3,0.7,0.6
				c0.9,0.3,1.3,0.7,1.3,1.4c0,0.9-0.7,1.4-2,1.4c-0.6,0-1.1-0.1-1.4-0.3L1342.7,455.6z"/>
		</g>
		<g>
			
				<rect x="1728.2" y="446.6" fill="#606161" stroke="#3A3A3A" stroke-width="0.25" stroke-miterlimit="10" width="8.2" height="7.3"/>
			
				<rect x="1736.4" y="446.6" fill="#606161" stroke="#3A3A3A" stroke-width="0.25" stroke-miterlimit="10" width="8.2" height="7.3"/>
			
				<rect x="1744.5" y="446.6" fill="#606161" stroke="#3A3A3A" stroke-width="0.25" stroke-miterlimit="10" width="8.2" height="7.3"/>
			<rect x="1730.2" y="451.3" fill="#BBBDBF" width="4" height="0.9"/>
			<rect x="1738.7" y="448.9" fill="none" stroke="#BBBDBF" stroke-width="0.75" stroke-miterlimit="10" width="3.3" height="3"/>
			<g>
				<path fill="#BBBDBF" d="M1747,451.8l1-1.6l-1-1.4h1l0.6,0.9l0.6-0.9h0.9l-1,1.4l1.1,1.6h-1l-0.6-0.9l-0.6,0.9H1747z"/>
			</g>
		</g>
	</g>
	<rect x="1347.4" y="469.6" fill="#282827" width="337" height="253.6"/>
	
		<radialGradient id="SVGID_2_" cx="713.3536" cy="411.2769" r="70.6701" gradientTransform="matrix(1.436 0 0 1.436 483.9243 6.404877e-003)" gradientUnits="userSpaceOnUse">
		<stop  offset="0" style="stop-color:#FFFFFF"/>
		<stop  offset="1" style="stop-color:#EAEAE9"/>
	</radialGradient>
	<rect x="1386" y="515.5" fill="url(#SVGID_2_)" width="244.6" height="150.2"/>
	<g opacity="0.54">
		<polygon opacity="0.85" fill="#EE4067" enable-background="new    " points="1520.4,570.8 1508.4,570.8 1496.2,570.8 
			1490.1,581.4 1502.2,581.4 1514.4,581.4 1526.5,581.4 		"/>
		<polygon opacity="0.85" fill="#713766" enable-background="new    " points="1496.2,591.9 1496.2,591.9 1502.2,581.4 
			1502.2,581.4 1496.2,570.8 1490.1,581.4 1490.1,581.4 1484.1,591.9 1484.1,591.9 1490.1,602.4 1490.1,602.4 1496.2,612.9 
			1502.2,602.4 1502.2,602.4 		"/>
		<polygon opacity="0.85" fill="#5E5EA9" enable-background="new    " points="1532.6,591.9 1520.4,591.9 1514.4,602.4 
			1514.1,602.4 1502.2,602.4 1490.1,602.4 1496.2,612.9 1508.4,612.9 1508.4,612.9 1514.8,612.9 1520.4,612.9 1520.4,612.9 
			1526.6,602.4 1526.6,602.4 		"/>
	</g>
	<g>
		<rect x="1397.9" y="469.6" fill="#393939" width="286.5" height="9.9"/>
		<rect x="1347.4" y="469.6" fill="#535454" width="50.3" height="9.9"/>
	</g>
	<rect x="1706" y="575.8" fill="#393939" width="51.6" height="5.6"/>
	<g>
		<g>
			<rect x="1706" y="469.6" fill="#393939" width="51" height="5.6"/>
			
				<radialGradient id="SVGID_3_" cx="861.926" cy="350.45" r="15.353" gradientTransform="matrix(1.436 0 0 1.436 483.9243 6.404877e-003)" gradientUnits="userSpaceOnUse">
				<stop  offset="0" style="stop-color:#FFFFFF"/>
				<stop  offset="1" style="stop-color:#EAEAE9"/>
			</radialGradient>
			
				<rect x="1695.1" y="487" fill="url(#SVGID_3_)" stroke="#EC1C24" stroke-width="0.25" stroke-miterlimit="10" width="53.1" height="32.6"/>
			<rect x="1684.4" y="528.5" fill="#393939" width="22.4" height="5.6"/>
			<rect x="1721.6" y="528.5" fill="#393939" width="35.8" height="5.6"/>
		</g>
		<g opacity="0.8">
			<rect x="1709.1" y="545" fill="#A9A9A9" width="5.5" height="5.6"/>
			<rect x="1717.6" y="545" fill="#A9A9A9" width="5.5" height="5.6"/>
			<rect x="1725.9" y="545" fill="#A9A9A9" width="5.5" height="5.6"/>
			<rect x="1705" y="552.4" fill="#A9A9A9" width="5.5" height="5.6"/>
			<rect x="1713.4" y="552.4" fill="#A9A9A9" width="5.5" height="5.6"/>
			<rect x="1721.8" y="552.4" fill="#A9A9A9" width="5.5" height="5.6"/>
			<rect x="1729.9" y="552.4" fill="#A9A9A9" width="5.5" height="5.6"/>
			<rect x="1709.1" y="560" fill="#A9A9A9" width="5.5" height="5.6"/>
			<rect x="1717.6" y="560" fill="#A9A9A9" width="5.5" height="5.6"/>
			<rect x="1725.9" y="560" fill="#A9A9A9" width="5.5" height="5.6"/>
		</g>
		<g>
			<rect x="1694.6" y="581.4" fill="#596679" width="59" height="8.3"/>
			
				<radialGradient id="SVGID_4_" cx="847.1909" cy="407.7568" r="1.96" gradientTransform="matrix(1.436 0 0 1.436 483.9243 6.404877e-003)" gradientUnits="userSpaceOnUse">
				<stop  offset="0" style="stop-color:#FFFFFF"/>
				<stop  offset="1" style="stop-color:#EAEAE9"/>
			</radialGradient>
			<rect x="1697.1" y="583.5" fill="url(#SVGID_4_)" width="6.7" height="4.2"/>
			
				<rect x="1694.8" y="589.8" fill="#535454" stroke="#464646" stroke-width="0.25" stroke-miterlimit="10" width="58.7" height="8.3"/>
			
				<radialGradient id="SVGID_5_" cx="847.1909" cy="413.5446" r="1.96" gradientTransform="matrix(1.436 0 0 1.436 483.9243 6.404877e-003)" gradientUnits="userSpaceOnUse">
				<stop  offset="0" style="stop-color:#FFFFFF"/>
				<stop  offset="1" style="stop-color:#EAEAE9"/>
			</radialGradient>
			<rect x="1697.1" y="591.8" fill="url(#SVGID_5_)" width="6.7" height="4.2"/>
			<rect x="1684.4" y="598" fill="#464646" width="69.2" height="118.2"/>
			<g opacity="0.62">
				<rect x="1687.3" y="717.7" fill="#A9A9A9" width="7" height="4.3"/>
				<rect x="1699.8" y="717.7" fill="#A9A9A9" width="7" height="4.3"/>
				<rect x="1711.9" y="717.7" fill="#A9A9A9" width="7" height="4.3"/>
				<rect x="1724.5" y="717.7" fill="#A9A9A9" width="7" height="4.3"/>
				<rect x="1735.7" y="717.7" fill="#A9A9A9" width="7" height="4.3"/>
				<rect x="1746.5" y="717.7" fill="#A9A9A9" width="7" height="4.3"/>
			</g>
		</g>
	</g>
</g>
</svg>
