<?xml version="1.0" encoding="utf-8"?>
<!-- Generator: Adobe Illustrator 18.0.0, SVG Export Plug-In . SVG Version: 6.00 Build 0)  -->
<!DOCTYPE svg PUBLIC "-//W3C//DTD SVG 1.1//EN" "http://www.w3.org/Graphics/SVG/1.1/DTD/svg11.dtd">
<svg version="1.1" id="Layer_1" xmlns="http://www.w3.org/2000/svg" xmlns:xlink="http://www.w3.org/1999/xlink" x="0px" y="0px"
	 viewBox="0 0 353.3 308" enable-background="new 0 0 353.3 308" xml:space="preserve">
<polygon opacity="0.85" fill="#EF3F67" points="262.8,3.3 176.2,3.3 89.6,3.3 46.3,78.3 132.9,78.3 219.5,78.3 306.1,78.3 "/>
<polygon opacity="0.85" fill="#703766" points="89.6,153.3 89.6,153.3 132.9,78.3 132.9,78.3 89.6,3.3 46.3,78.3 46.3,78.3 3,153.3 
	3,153.3 46.3,228.3 46.3,228.3 89.6,303.3 132.9,228.3 132.9,228.3 "/>
<polygon opacity="0.85" fill="#5F5DA9" points="349.5,153.3 262.8,153.3 219.5,228.3 217.8,228.3 133,228.3 46.4,228.3 89.7,303.3 
	176.2,303.3 176.3,303.3 222.3,303.3 262.8,303.3 262.9,303.3 306.2,228.3 306.2,228.3 "/>
<g>
</g>
<g>
</g>
<g>
</g>
<g>
</g>
<g>
</g>
<g>
</g>
</svg>
