<?xml version="1.0" encoding="utf-8"?>
<!-- Generator: Adobe Illustrator 18.0.0, SVG Export Plug-In . SVG Version: 6.00 Build 0)  -->
<!DOCTYPE svg PUBLIC "-//W3C//DTD SVG 1.1//EN" "http://www.w3.org/Graphics/SVG/1.1/DTD/svg11.dtd">
<svg version="1.1" id="Layer_1" xmlns="http://www.w3.org/2000/svg" xmlns:xlink="http://www.w3.org/1999/xlink" x="0px" y="0px"
	 viewBox="580 20 768 1046" enable-background="new 580 20 768 1046" xml:space="preserve">
<g>
	<g>
		<linearGradient id="SVGID_1_" gradientUnits="userSpaceOnUse" x1="963.1641" y1="1056.5222" x2="963.1641" y2="31.7414">
			<stop  offset="0" style="stop-color:#97AAFA"/>
			<stop  offset="1" style="stop-color:#9089C2"/>
		</linearGradient>
		<path fill="url(#SVGID_1_)" d="M1276.2,220c0.4,0.4,0.8,0.6,1.3,1.1C1277,220.6,1276.6,220.2,1276.2,220z M601.8,252.1
			c-0.6,1-1.2,2.1-1.9,3.1C600.7,254.3,601.3,253.2,601.8,252.1z M1301.9,243.6c0.3,0.6,0.7,1.3,1,1.9
			C1302.7,244.9,1302.3,244.3,1301.9,243.6z M1303,245.6c0.5,1.1,1,2.2,1.7,3.1C1304.2,247.7,1303.6,246.6,1303,245.6z
			 M1315.2,361.1c0.4-7.2-0.2-13.5-0.8-19.6c-2.1,1.3-4.2,2.5-6.5,3.8c1.1-1.9,2.1-3.8,3.2-5.7c0.4-3,0.8-5.9,1.5-9.1
			c1.5-8,2.7-15.8,4.2-23.8c-1.5-0.8-2.7-1.7-4.2-2.7c-1.3,3-2.3,6.1-3.6,9.1c-1.3-3.8-2.7-7.4-4-11.2c-0.4-1.1-0.4-2.1-0.2-3.2
			c0.4-3,1.3-5.9,1.9-8.9c2.5,1.7,5.1,3.2,7.6,4.9c1.1,0,2.3,0,3.4,0c-4.4-7-8.9-13.7-13.3-20.7c-1.5-2.3-3-4.9-4.4-7.2
			c-0.4-0.4-0.8-1.1-1.3-1.5c0.8-0.6,1.5-1.5,1.9-2.3c0.6,0.6,1.3,1.3,1.7,1.9c2.5,3.2,5.1,6.5,7.8,9.5c0.6,0.8,2.3,0.6,3.4,1.1
			c0-1.5,0.2-3,0.2-4.4c-0.4-1.1-1.1-2.3-1.5-3.4c0-0.2-0.2-0.6-0.2-0.8s0.2-0.2,0.4-0.4c-3-3-5.9-6.1-8.9-9.1
			c0.8-0.6,1.9-1.9,2.7-1.9c1.5,0,3,0.6,4.6,1.3c-2.1-2.5-4-5.3-6.1-7.8c-1.3-1.5-1.9-3.4-2.7-5.1c-4-4-8-8-12-12.2
			c-1.5-1.3-2.7-2.3-4.2-3.6c-1.1-1.1-2.1-1.9-3.4-3c-2.1-1.3-4.4-2.5-6.5-3.8c0,0.4-0.2,0.8-0.6,1.1c-0.6,1.1-1.3,2.1-1.9,3.2
			c-0.2,0.2-1.3-0.4-1.9-0.8c0.6-1.1,1.1-1.9,1.7-3c0-0.4,0.4-1.3,0-1.5c-6.5-6.3-13.3-12.4-19.8-18.8c-0.8-0.8-0.8-2.3-1.5-3.6
			c-1.5-1.5-3-3-4.6-4.4c-2.7-9.1-8.2-16.7-13.7-24.3c-0.8-1.1-0.6-3.2-0.8-4.6c-1.1-0.2-2.1-0.4-3.2-0.6c1.1-1.1,2.3-2.3,3.4-3.4
			c0-1.3,0-2.3,0-3.6c-2.1-8.6-4.4-17.5-6.5-26.2c0.8-0.6,1.7-1.1,2.5-1.7c-2.5-8.6-3.8-18.1-7.8-25.9c-4.4-8.6-14.1-13.1-23.4-12.2
			c-4.4,0.4-9.3,1.3-13.9,1.7c-10.1,1.1-12.4-4.9-13.3-13.1c-0.2-2.5-1.3-5.7-3.2-7.4c-2.7-2.3-6.8-3.2-9.9-5.3c-3-1.9-6.1-7-8-6.5
			c-8,2.5-3.6-1.1-2.7-4c0.6-2.3-0.2-5.1-0.4-7.6c-2.1,0.4-4.4,0.6-6.5,1.1c-1.5,0.2-3,0.6-4.6,1.1l0.2-0.2h-0.6v0.2
			c0,0.6-0.2,1.1-0.6,1.7c-0.2-0.6-0.4-1.1-0.6-1.7c0-0.8,0.2-1.9,0.2-2.7c-1.9,0.6-3.8,0.8-5.5,1.7c-6.8,3.8-8,16-19.6,12.9
			c-0.6-0.2-2.5,1.5-2.7,2.5c-1.5,9.3-8.2,5.3-13.5,5.5c-1.1,0-2.3-0.6-3.4-0.4c-19,4.2-33.8-2.7-46.4-16.2
			c-2.5-2.7-6.1-4.9-9.7-5.9c-7.8-2.1-16-3.8-24-5.1c-17.9-3.2-36.1-6.8-54.2-8.6c-17.7-1.9-35.6-2.3-53.6-2.3
			c-34.2-0.2-68.3-1.9-102.1,5.3c0.2,0.2,0.6,0.6,0.8,0.8c0,0-0.2,0.6-0.4,0.6c-5.2,1-10.3,1.8-15.7,2.6c0,0,0,0,0.1-0.1h-0.2
			c-0.1,0-0.1,0.1,0,0.1c-0.3,0-0.6,0.1-0.8,0.1c-0.6,0.4-1.3,0.6-1.7,0.8c-1.1,0.6-2.3,1.3-3.4,1.9c-0.4-1.1-0.8-2.1-1.3-3
			c0-0.8,0-1.7,0-2.5c-14.3,6.3-28.7,12.4-42.8,19c-1.9,0.8-3.2,2.7-4.9,4.2c0.2,0.1,0.5,0.1,0.8,0.2c0,0,0,0,0,0.1c0,0,0,0,0-0.1
			c0,0,0,0,0.1,0c2.1,0.5,4.3,0.9,6.3,1.5c-1.1,1.1-2.1,2.1-3.4,3.2c-1.3-1.5-2.3-3-3.6-4.4c-0.2-0.2-0.4-0.2-0.4-0.4
			c-1.5,0.6-3.2,1.3-4.6,1.9c0,1.9,0.2,3.8,0.2,5.5c-1.1-0.8-2.1-1.7-3.4-2.5c-4.2,3-8.6,5.9-12.9,8.9c0.4,0,0.6,0.2,0.6,0.4
			c0.8,0.4,1.5,0.8,2.3,1.3c-0.8,0.4-1.9,0.6-2.7,1.1c-0.4,0.8-0.6,1.5-1.1,2.3c0,0.2-0.4,0.6-0.4,0.8v0.8l-0.4-0.6
			c-2.1,1.3-4,2.5-6.1,3.8c-0.4,0.2-0.8,0.4-1.1,0.8c-2.3,1.1-4.6,1.9-6.8,3h-0.2c-0.8,1.5-1.7,3-2.5,4.4c-0.2,0.6-0.6,1.3-0.8,1.5
			c-1.1,1.9-2.3,4-3.6,5.9c-0.2,0.2-1.3,0-1.9,0c0.2-0.6,0.4-1.5,0.4-2.1c0.2-2.3,0.2-4.6,0.4-7c-1.5,2.3-3,5.1-4.6,7.2
			c-10.1,12.7-20.5,24.9-30.4,37.5c-7.8,10.8-17.1,21.3-22.8,33.5c-6.1,13.3-9.1,28.1-12,42.4c-0.8,3.8-9.7,11,1.9,13.7
			c-0.4,1.1-0.6,1.9-1.1,3c-1.9,7.4-7.8,9.3-13.9,11.8c-2.1,0.8-2.5,5.1-3.8,7.8c1.5-0.6,3.2-1.3,4.6-1.7c0.2,0,0.8,1.8,1.2,2.8
			c-0.4,0.6-0.7,1.2-1,1.9c0.4-0.6,0.7-1.2,1-1.8c0,0,0,0.1,0,0.1c-1.1,1.7-1.7,3.6-3,5.1c-0.6,1.5-1.3,3-2.1,4.4c0,0,0,0.1,0,0.1
			c-0.7,1-1,2.2-1,3.5c-0.1,0.3-0.1,0.5-0.2,0.8c0,0.1,0,0.3,0,0.4c-0.5,1.5-0.9,3.2-1.5,4.8c-0.1,0.1-0.1,0.2-0.2,0.2
			c-0.6,1.5-1.5,3-2.1,4.4c0,0.1,0,0.2,0,0.3c-0.8,1.7-0.8,3.5-0.7,5.2c0,0.4-0.1,0.7-0.1,1.1c1.1,1.7,1.9,3.4,3,5.1
			c1.7,0,3.2-0.2,4.9-0.2c-0.8,8.9-1.7,17.7-2.7,26.6c0,0.8-1.3,1.3-2.1,2.1c0,4.2,0,8.6,0,12.9c0.1,0.2,0.2,0.4,0.3,0.6
			c0.5,2.9,0.9,5.8,1.4,8.8c0,0.4,0,0.8,0,1.2c0,0,0,0,0,0c0,0,0,0.1,0,0.1c0,0,0,0,0,0.1c0,0,0,0,0,0c0,2.6,0,5.5,1.2,8.1
			c0,0.1,0,0.2,0.1,0.3c0.6,0.6,1.3,1.1,1.9,1.7c2.1-2.1,4-4,6.1-6.1c0,3.6,0.2,7,0.2,10.5h0.2c0,0,0,0-0.2,0.2
			c2.3,3,5.7,5.5,6.8,8.9c0.8,2.7-0.9,5.9-1.8,9l-0.5-0.3l0.4,0.6v0c-0.4,6.8,6.3,8.4,8.9,12.4c4.6,7.8,6.5,17.3,9.9,25.9
			c2.7,7.4,5.5,14.6,8.2,21.7v0c0.2,0,0.2,0,0.2,0l0.2-0.4l-0.4,0.4c0.6-1.9,1.3-3.8,1.9-5.7c0.6,0.4,1.3,0.6,1.7,1.1
			c-1.1,1.5-2.3,3.2-3.4,4.9v0.2c0.6,1.9,2.1,4,1.7,5.9c-1.3,8,0.6,11,8.2,11.6c0.6,0,1.1,1.5,1.5,2.3c0.6,1.7,1.3,3.2,1.7,4.9
			c2.1,9.1,14.3,13.5,11.2,24.9c0.8,2.1,1.7,4,2.3,6.1c2.5,11,4.9,21.9,7.4,32.9c0.2,1.1,2.3,1.9,3.4,2.7c0.2-1.3,0.8-2.5,0.6-3.6
			c-1.1-4.9-2.7-9.5-3.2-14.3c-1.5-17.1-2.5-34.2-3.8-51c0-0.8,0.6-2.3,1.3-2.7c8.9-5.5,5.7-15.2,7.8-23c0.8-3.2,1.7-6.5,1.5-9.9
			c-0.2-2.3-4.2-5.3-3.6-6.3c1.5-2.3,4.9-3.6,7-5.7c0.8-0.8,0.4-3,0.4-4.6c0.4-9.5,0.2-19,1.7-28.3c1.3-8.2,4.4-16.2,7-24.3
			c0.2-0.6,1.5-0.8,2.3-1.3c1.5,3.2,3.2,6.3,4,9.5c1.5,6.3,2.3,12.9,3.8,19.2c0.2,0.6,3.4,1.7,4,1.1c3.8-3.4,7.6-7,10.8-11
			c5.1-6.5,8.6-14.3,14.1-20.5c7.2-8,7.6-16.5,5.7-26.2c-0.2-1.1,1.9-3,3.2-4c1.5-1.3,4-1.5,4.9-3c3.4-5.5,6.1-11.4,9.7-16.7
			s10.5-9.5,11.4-14.8c2.1-13.7,13.1-18.6,22.6-22.6c18.1-7.2,37.3-12,56.3-17.1c5.7-1.5,12,0.4,17.7-0.8c5.9-1.1,11.4-4.4,17.1-6.1
			c9.7-2.7,13.3,0.2,15,10.1c0.2,1.5,4.9,4,5.9,3.4c8-4,13.9,2.1,19.2,4.9c6.8,3.6,11.4,11,20.3,5.1c0.4,1.1,0.6,2.1,0.6,3
			c0.6,2.7,1.1,5.7,1.7,8.4c2.3,3.2,4,8.2,7.2,9.3c8.2,3,8.4,9.1,9.7,15.8c1.1,5.1,3.6,10.8,11,9.5c0.3,0.1,0.6,0.3,0.9,0.4
			c0.8,1.3,2,1.5,3.6,1.3c-0.2-0.1-0.3-0.1-0.5-0.2c2.8-3.9,3.4-11.5,11.4-6.5c0.2,0,1.1-0.4,1.3-0.8c0.8-1.7,1.3-3.4,2.1-4.9
			c0.4-0.8,1.5-1.5,2.3-2.1c0.4,1.7,0.8,3.6,1.1,5.3c1.3-0.8,2.3-2.1,3.6-2.7c4-1.5,8.4-4.6,9.5,3.6c0.8,6.8,3.4,13.5,5.3,20
			c0.2,1.1,1.9,1.7,2.7,2.5c0.4-1.1,0.6-2.3,1.1-3.4c0.6-1.7,1.5-3.2,2.3-4.9c0.8-1.9,1.9-3.6,3-5.3c0.6,1.9,1.5,3.6,1.9,5.5
			c1.3,4.2,9.1,8.4,0.2,13.3c-1.1,0.6,1.7,6.5,1.9,10.1c0.2,10.1,0,20.5,0.2,30.6c0,1.7,1.9,3.6,3.2,5.1c1.3,1.7,2.5,3.2,3.8,4.6
			c-1.7,0.8-3.4,1.7-4.9,3s-3.6,3.8-3.2,4.6c1.5,3.4,3.4,7.6,6.3,8.9c4.4,1.9,9.9,1.3,14.8,2.7c7,2.1,13.5,6.8,20.7,1.9
			c3.6-2.5,6.8-8.2,10.1-8.2c6.1,0,7-3.6,8.6-7.4c-2.3-0.4-4.6-1.1-7-1.5c-1.5-0.4-2.7-0.6-4.2-1.1c1.3-1.5,2.5-4.6,3.6-4.4
			c4,0.4,7.6,1.9,11.6,3.2c2.5-0.8,5.1-1.5,7.4-2.3c-0.4,3.2-0.6,6.3-1.1,9.5c-0.2,1.7-0.8,3.6-0.6,5.3c0,1.1,1.9,2.5,1.7,3
			c-4.6,7.2-8,16-14.3,21.1c-15.6,12.2-32.7,22.6-49.1,33.8c-3.8,2.5-7.4,5.7-11,8.6c-0.6,0.6-0.4,2.1-0.6,3.4
			c0.8-0.2,1.9-0.2,2.7-0.6c11.8-6.3,23.8-12.4,35.2-19.4c8.2-5.1,15.6-11.2,23.4-16.7c0.8-0.6,2.1-0.4,3.2-0.6
			c0,0.8,0.2,1.7-0.2,2.3c-5.5,8.6-11,17.3-16.5,26.2c-1.1,1.7-1.9,3.6-3,5.3c1.9-1.1,4-2.1,5.7-3.6c1.1-0.8,1.7-2.5,2.5-3.8
			c6.3-8.2,12.7-16.5,19-24.7c0.6-0.8,2.1-1.3,3.2-1.9c0,1.1,0.2,2.3,0,3.4c-4.4,13.1-8.9,26.2-13.1,39.2c0,0,0,0,0,0
			c-1.1,1.6-2.3,3-3.4,4.6c1.1,0.6,2.7,2.1,3,1.9c1.5-1.7,2.7-3.4,3.8-5.3c0.3-0.5,0.5-1.1,0.7-1.6c0,0,0,0,0,0
			c0.1-0.1,0.2-0.2,0.4-0.3c-0.1,0-0.1,0-0.2,0c4.1-8.6,7.8-17.3,12.2-25.5c3.2-5.7,2.1-14.3,11.4-16.2c1.9-0.4,3.2-3.8,4.6-5.9
			c-1.5-0.6-3.8-1.1-4.4-2.1c-1.3-2.5-2.7-6.1-1.9-8c3.6-6.3,8.2-12,12.7-17.7c0.8-1.1,3-0.8,4.6-1.3c-0.2,1.5-0.2,3-0.6,4.2
			c-2.5,5.3-5.3,10.5-7.8,15.8c-0.6,1.5-0.8,3.2-1.3,4.6c1.7-0.8,4-1.3,5.1-2.7c3-4.4,5.5-9.5,8-14.1c1.7-3.4,3.4-6.8,5.1-9.9
			c1.3,3.8,3,7.6,4,11.6c4,16.2,7.8,32.7,11.8,49.1c0.4,1.3,1.9,2.3,2.7,3.4c1.3-1.5,4-3.2,3.8-4.4c-1.1-5.5-4.4-11-4-16.2
			c0.4-4.6,3.2-7-1.9-12.2c-4.6-4.9-4-14.8-5.3-22.6c-0.2-1.5,2.3-3.2,3.2-4.9c1.1-2.1,3-4.6,2.5-6.5c-1.3-7.2-6.3-14.3,1.1-21.1
			c1.5-1.3,1.5-3.8,2.5-5.7c0.6-1.3,1.9-2.3,2.7-3.6c0.6,1.3,1.5,2.5,1.9,3.8c2.5,8.6,5.3,17.3,2.3,26.6c-0.4,1.5,1.9,4,2.7,5.9
			c1.3-1.1,3.6-2.1,3.6-3.4c0-11,4.4-22.1-1.9-33.1c-2.1-3.8-3.4-9.7-2.1-13.7c1.7-5.3,7.6-14.1,9.1-13.5c12.7,4.2,5.7-4.2,5.5-8
			c0-1.3-0.2-2.7-0.2-4c1.5,0.4,2.7,0.6,4.2,1.1c8.2,3.2,16.2,6.5,21.5,14.1c2.7,4.2,5.9,8.4,8,12.9c2.3,5.1-0.6,12,6.1,15.6
			c0.6,0.4,0.6,2.3,0.8,3.4c1.1,7.2,1.7,14.3,3.4,21.3c1.5,5.5,4.4,10.5,6.3,16c1.7,4.6,3.4,9.5,4.4,14.1c0.6,2.7,0,5.7,0.2,8.4
			c0.2,13.1,0.2,26.4,1.1,39.4c0.2,2.7,3.2,5.5,4.9,8.2c1.1-2.1,2.5-4.2,3.4-6.3c0.8-1.9,0.8-4,1.3-6.1c1.1,2.3,2.7,4.4,3.4,6.8
			c1.7,6.8,3.4,13.5,4.6,20.5c1.3,7.8,2.3,15.6,3.2,23.6c0.6,4.9,0.6,9.9,1.5,14.8c0.4,3.2,3.2,7.4,2.1,9.3
			c-3.8,6.8,2.7,12.2,0,20.3c-3.6,10.5,1.3,24.3,2.7,36.5c0.2,1.7,1.9,3.2,3,4.9c1.3-2.3,3.2-4.6,3.6-7c0.4-1.9-1.7-4.4-1.1-6.1
			c2.1-6.5,5.9-12.7,1.5-19.8c-1.1-1.9,0.4-5.3,0.8-7.8c1.9,2.3,4,4.4,5.9,6.8c0.2,0.2-0.2,1.3,0,1.5c0.6,0.8,1.5,1.7,2.3,2.5
			c0.8-0.8,2.1-1.7,2.1-2.7c0.2-2.3-0.2-4.9-0.2-7.2c0-1.1,0.8-2.1,1.5-3.2c0.4,1.1,0.8,2.1,1.3,3.2c1.1,1.7,2.3,3.2,3.4,4.9
			c0.2-2.1,0.4-4,0.2-6.1c-0.4-6.1-3.6-15.4-1.1-17.5c7.2-5.9,2.3-13.1,4.6-18.8c6.5-16.2,13.5-32.5,20-48.7c1.3-3.2,0.8-7,1.3-10.5
			c-1.7,2.5-3.4,5.1-5.3,7.4c-0.4,0.6-1.1,0.8-1.7,1.3c-0.4-0.8-1.3-1.9-1.1-2.7c1.3-5.3,2.5-10.3,4-15.6c0.2-1.3,0.4-2.5,0.4-3.8
			c0-1.9-0.2-3.8-0.2-5.9c0-5.1,0-9.9,0.2-15c0-1.1,1.1-2.1,1.7-3c0.6,1.1,1.7,2.1,1.7,3.2c0,4.9-0.4,9.9-0.6,14.8
			c0,2.1,0,4.2,0,6.1c0,1.1,0,2.1-0.2,3.4c1.1,0.8,2.1,1.9,3,2.7c0.6-1.3,1.5-2.5,1.7-3.8c0.8-4.2,1.5-8.6,2.1-13.1
			c1.1-4.9,0.4-9.7,0.4-14.8c0.6-2.5,1.9-4.9,1.9-7.4c0.6-10.1,1.5-20,1.5-30.2c0-4-2.1-8-3.4-12
			C1315.9,364.5,1315.6,362.8,1315.2,361.1z M1277.5,221.1c1.5,1.3,3.2,2.5,4.6,3.8C1280.6,223.6,1279.1,222.3,1277.5,221.1z
			 M1206.8,579c-7.4-6.1-15-12.7-23.4-16.5c-8.6-3.8-18.6-5.3-28.1-6.3c-5.5-0.6-11.4,1.1-16.9,1.5c-10.1,0.6-20,1.3-30.2,1.1
			c-5.3-0.2-10.5-2.7-15.6-4.2c2.3-2.5,4.4-5.3,7-7.6c3-2.5,5.9-5.3,9.5-7c3-1.5,6.5-1.5,9.5-2.7c7.6-3.4,13.5,3.4,21.5,3
			c12.9-0.8,26.2,3.8,39.4,5.9c1.5,0.2,3.4-0.4,5.1-0.8c-1.1-1.1-1.9-2.3-3-3.4c-1.7-1.5-3.4-2.7-5.1-4.2c2.3,0.4,4.9,0.8,7.2,0.8
			c3.6,0.2,6.1,4.4,9.5-4c4-9.9,1.9-14.8-4.2-20.7c-0.4-0.4-0.4-1.7-0.4-2.5c-0.2-1.5-0.4-3.2-0.6-4.6c-1.7,1.7-3.6,3.4-4.9,5.3
			c-0.6,0.8,0.2,2.5,0.4,3.8c-1.5-0.8-3.4-1.5-4.4-2.7c-5.1-5.7-9.7-11.8-15.2-17.3c-2.1-2.1-7.2-5.3-8.2-4.2
			c-8,5.7-16.7-7.4-24.3,1.1c0,0-0.8-0.4-1.3-0.6c-9.9-8.2-20.3-1.9-30.2-0.4c-5.3,0.6-11.8,6.8-15.2,5.3c-11-5.3-21.9-3.6-32.9-3.6
			c-7.2,0-14.6,0.8-21.3,3c-4,1.3-5.9,12.2-11.4,1.5c-1.5,0.8-3.2,1.5-4.6,2.5c-6.1,4.2-6.5,14.3-15.6,15.8
			c-0.6,0.2-0.4,3.6-1.5,4.9c-2.7,3.2-5.5,6.5-9.1,9.1c-3.6,2.3-7.8,3.6-11.8,5.3c-0.8,0.4-2.1,0.8-2.3,0.6c-7-6.3-11-0.8-15.6,3.6
			c-1.3,1.3-3.2,1.7-4.9,2.1c-2.5,0.8-5.1,1.5-7.4,2.3c3.2,3.8-7.2,9.7,1.9,12.7c-1.5,2.5,8.2,7-1.3,8.2c-2.3,0.2-4.6,0.8-7,1.5
			c-0.6-3.4-1.7-7-1.9-10.3c0-1.9,1.3-3.8,1.9-5.7c-3.6-0.4-7.2-0.8-10.5-1.5c-3-0.4-6.5,0-8.4-1.5c-9.9-9.1-22.6-10.8-34-9.5
			c-7.6,0.8-12.7-1.5-18.8-3.8c-11.4-4.4-23-8.6-34.2-13.3c-15.2-6.3-31.4,4.2-47-3.4c-4-1.9-11.2,2.7-16.9,4.6
			c-4,1.3-10.1,5.5-11.2,4.4c-4.9-5.3-6.3-0.2-9.3,1.9c-3.2,2.3-6.5,4.4-9.7,6.3c-5.3,3.4-10.5,6.3-15.6,9.7
			c-1.1,0.6-1.5,2.5-2.3,3.8c1.5,0.2,3,0.6,4.4,0.4c4-0.4,8-1.1,12-1.7c-1.5,2.7-3.2,5.5-4.2,8.4c-0.6,1.9,0,4,0.2,6.1
			c1.7-0.6,3.4-1.1,4.9-1.9c2.7-1.1,6.3-4,8-3.2c9.1,5.3,19,4.2,28.5,4c11.2-0.2,22.4-1.3,33.3-1.9c0.6,0,1.3,0.6,1.9,1.1
			c5.5,3.4,11,7,16.5,10.1c2.1,1.3,4.6,1.9,7,2.7c-3,2.3-5.7,5.7-8.9,6.5c-4.9,1.1-10.3,0-15.4,0.4c-14.8,0.8-29.3,1.7-44.1,2.5
			c-0.2-0.6-0.4-1.3-0.4-1.9c-7.6,2.1-15.2,5.1-23,6.1c-11.8,1.5-22.1,5.3-30,14.6c-1.3,1.5-2.1,3.4-3.2,5.1
			c2.1,0.6,4.4,1.7,6.5,1.5c5.5-0.4,11-2.5,16.5-2.1c13.5,1.1,26.8,3.6,40.1,4.4c13.1,0.8,26.2,0.2,39.2,0.2c4.9,0,9.5,0,14.3,0
			c3,0,6.1,0,9.1,0c6.3,0,12.4,0,18.8,0c2.1,0,4.4,0.2,6.5,0.4c-1.3,3-2.1,6.8-4.2,8.9c-5.3,5.7-16.7,1.3-19.8,11.2
			c-3.2-1.3-7.4,5.9-9.7-1.5c-0.4-1.5-4-2.5-6.1-2.3c-4.9,0.2-9.7,1.7-14.6,2.3c-12.4,1.7-25.1,3-37.5,4.6c-1.3,0.2-2.3,1.5-3.4,2.3
			c1.1,0.8,2.1,1.9,3.4,2.3c8,2.3,16.2,5.3,24.5,6.8c8.4,1.5,17.5,3.6,25.5,2.1c16-3.2,31.6-8.6,47.5-12.9c4.4-1.3,9.5-3.4,13.5-2.3
			c9.3,2.7,17.9,7.2,27,11c2.1,0.8,4.2,1.5,6.3,2.1c0.8-3.6,1.9-7.2,2.5-10.8c0.2-1.5-0.4-3-0.6-4.6c1.7,0,4-0.4,5.3,0.2
			c4.6,2.5,9.1,5.7,13.5,8.6c0.8,0.6,2.1,0.8,3.2,1.3c0.2-1.3,0.8-2.7,0.2-3.8c-0.8-1.9-3-3.2-3.6-5.1c-1.5-3.8-2.3-7.8-3.4-11.6
			c2.5-0.6,5.3-1.1,7.8-2.1c2.1-1.1,4-2.7,6.1-4c-1.5-0.8-3.2-1.7-4.4-3c-2.3-1.9-4.2-4.2-6.3-6.1c2.7-0.2,6.1-1.5,8.4-0.4
			c13.3,5.5,24.7-1.3,36.7-4.4c3.8-1.1,7.8-1.1,11.6-1.7c-1.7,2.7-4,5.3-5.1,8.2c-1.1,2.7-1.1,6.1-1.5,9.1c0,0.4,1.7,0.8,2.7,1.3
			c8,2.1,16,4.2,24,6.5c0.2,0,0.2,1.3,0,1.9c-3,7.8-2.3,12.4,7.8,9.3c1.5-0.4,3.6-0.6,4.6,0.2c6.1,3.6,9.3,1.9,9.9-5.1
			c0-0.2,3.2-0.8,4.6-0.4c12.7,3.2,25.3,7,38,9.9c9.3,2.1,18.8,3.2,28.3,4.9c2.1,0.4,4.4,2.3,6.3,1.9c11.2-1.9,22.6-6.5,33.8-5.7
			c10.5,0.6,14.8-5.5,20.5-11c0.8-0.8,0.6-5.1-0.2-5.5c-5.9-3-12-6.1-18.4-7.4c-9.5-1.7-19.2-1.3-28.7-3c-3.6-0.6-6.8-4.2-10.1-6.3
			c2.7-1.1,5.5-1.7,8-3c1.7-0.8,2.7-2.5,4.2-3.6c1.3-0.8,3-1.7,4.4-1.7c6.5,0,13.1,0,19.6,0.6c2.7,0.2,5.7,2.7,8.2,2.5
			c5.9-0.8,11.6-2.7,17.3-4c4-0.8,9.5,0.4,12.2-1.7c5.7-4.2,11-1.7,14.6,0.8c7.2,5.7,12.7-0.6,18.8-1.5c0.8,0,2.1-3,1.7-3.8
			C1212.3,585.8,1210,581.8,1206.8,579z M1146.7,782.6c-5.7-7.6-6.5-21.1-20.3-21.9c-1.3,0-1.3-7-3.4-9.5
			c-7.6-9.1-15.2-18.4-23.8-26.2c-8.9-8-18.8-15-28.7-21.7c-5.9-4-12.7-7.4-19.4-9.9c-2.7-0.8-6.5,1.5-9.9,2.5
			c1.7,2.1,3.2,4.2,4.9,6.5c7.2,10.1,18.4,18.4,13.3,33.5c-1.5,4.4,0.6,6.8,6.1,5.7c3.2-0.6,7.8-0.2,9.9,1.7
			c5.9,5.5,15.4,8.9,14.3,19.6c0,1.1,1.5,2.1,2.1,3.2c7.6,12.7,18.1,23.4,21.5,38.8c2.1,8.9-1.9,9.9-7.6,11.2
			c-11.4,2.7-24.7-2.3-34.4,7.8c-0.2,0.2-1.9-1.7-3.2-2.1c-2.3-0.8-4.6-2.1-7-1.9c-11.2,1.5-22.4,3.8-33.8,5.3
			c-14.8,1.9-29.3,3-44.1,4.4c-6.8,0.6-13.5,3-20,2.1c-11-1.3-21.7-4.4-32.5-6.5c-3-0.6-5.7-1.1-8.6-1.3c-9.7-0.4-19.4-1.1-28.9-0.6
			c-12.4,0.4-25.5,0-37.3,3c-11,2.7-21.7,2.7-29.7-5.5c-6.3-6.5-12.9-10.8-22.4-7.4c-0.4,0.2-3.6-3.6-3.2-4.4
			c5.9-12.4,12-24.7,18.1-37.1c1.5-3,1.3-7,3.4-9.1c5.9-5.9,12-12,19-16.2c3.8-2.5,9.7-2.1,14.8-2.1c1.9,0,4,2.5,5.7,4.2
			c1.3,1.3,1.9,3.2,2.7,4.6c0.8-1.9,2.1-3.8,2.1-5.9c0.4-16.7,2.3-32.5,15-45.1c0.8-0.8,1.1-2.3,1.1-3.4c0-0.4-1.7-1.5-2.5-1.3
			c-9.3,2.7-19.8,3.6-25.7,13.1c-1.5,2.3-3,5.1-4.9,7c-12.4,12-26.6,22.8-37.3,36.3c-7,8.9-11.6,19.2-22.4,24.3
			c-1.1,0.4-2.1,4-1.7,4.4c7.2,6.5,2.5,13.5-0.4,18.6c-8.9,15.6-0.4,29.7,4.4,43c3.8,10.8,10.3,20.3,9.9,32.7
			c-0.2,5.7,3.2,12.4,7,17.1c6.1,8.2,13.7,15.4,20.9,22.8c2.3,2.3,5.5,4.2,8.2,6.1c-1.1-3.2-1.9-6.5-3.2-9.7
			c-0.2-0.6-1.5-1.1-1.7-1.7c-1.7-5.5-3.8-10.8-4.4-16.2c-0.4-3.2,2.1-6.5,3.2-9.9c0.6-2.1,1.3-4.2,1.7-6.3c1.9,1.3,4.2,2.1,5.7,3.8
			c6.5,7.2,12.9,14.6,19.4,21.7c1.3,1.3,2.1,3,3.4,4.2c12.9,15.4,23.4,33.1,43,42c2.3,1.1,4,4.2,5.9,6.3c-1.9,1.3-4,2.1-5.7,3.6
			c-1.5,1.1-2.5,2.5-3.6,4c-0.2,0.4,0.6,1.9,1.5,2.3c7,4,13.5,9.7,20.9,11.4c17.3,3.6,35,5.3,52.7,7c4.9,0.4,11.6,0,15-3
			c7-6.5,15.2-7,23.6-8.4c11.4-1.7,12.4-3.8,10.8-16.2c-0.2-1.3,1.5-3.4,3-4.4c6.1-4.4,12.4-8.2,18.6-12.7c1.1-0.6,1.7-2.3,1.9-3.8
			c0-0.6-1.7-2.1-2.1-1.9c-6.5,2.1-12.9,4.4-19.4,6.8c-3.8,1.3-7.4,3.8-11.2,4c-11.4,0.6-22.8,0.2-34.2,0.2
			c-9.9,0-19.8,0.6-29.7-0.2c-6.5-0.4-13.3-4.6-19.4-4c-9.3,0.8-11.6-3.2-12.9-10.8c-0.2-1.5-3.8-3.8-4.4-3.4
			c-9.1,5.3-12.7-4.9-19.2-6.5c-0.4-0.2-0.8-1.3-1.3-1.9c0.8-0.4,1.7-1.3,2.3-1.3c2.5,0,5.5-0.2,7.8,0.6c6.5,2.3,12.4,5.7,20,2.1
			c3-1.5,8.2,1.5,12.4,2.3c1.1,0.2,2.1,0.6,3.4,0.6c3.2-0.2,6.1-0.8,9.3-1.1c5.5-0.2,11.2,0.8,16.2-0.4c4.4-1.1,8.6-4.2,12.4-7.2
			c0.6-0.4-1.9-4.9-3.2-7.4c-0.2-0.4-4,0.6-4,1.3c-0.2,6.8-4.6,6.5-9.7,6.8c-6.1,0.4-8.2-3-9.9-7.6c-1.5-4-3.4-4.6-6.8-1.1
			c-5.3,5.3-10.3,7.2-15.8-0.8c-3-4.6-7.6-11-13.7-2.3c-0.4,0.6-4.6-0.2-4.9-1.1c-1.5-4-2.1-8.4-3-12.7c-0.6-2.7-1.1-5.5-2.1-8
			c-1.5-4-3.2-7.8-4.9-11.6c-0.8-1.9-1.9-3.6-2.7-5.3c-1.5,1.1-3,1.9-4.2,3c-1.5,1.3-2.7,3.6-4,3.6c-4.9,0.2-11.4,1.3-13.9-1.3
			c-3.8-3.8-4.2-10.8-6.8-16c-4.4-9.1,5.3-11.6,7.4-17.5c4.2,1.9,8.9,3.4,12.4,6.1c2.5,1.9,3.2,5.9,5.3,8.4c1.1,1.3,4.2,2.3,5.1,1.7
			c6.3-4.6,11.6-3.4,16.7,1.9c3.8,4,7.8,5.9,11.8,0c3.4-4.6,7.8-6.3,13.1-3c4.9,3.2,9.7,6.8,14.6,9.9c1.1,0.6,2.5,1.9,3.2,1.5
			c4.4-2.5,8.4-5.5,12.9-8c5.7-3.4,11.4-7.2,17.7-9.1c2.1-0.6,5.5,5.1,8.9,7c4.6,2.5,9.1,4,13.1-2.3c3.2-4.9,8.6-11,15.6-5.7
			c8,5.9,11.8,3.2,15.2-4.4c0.8-1.9,2.7-3.4,4.4-4.4c3.4-2.5,7-5.3,8,2.3c0.2,1.7,2.5,4.4,3.8,4.4c1.9,0,3.4-2.5,5.5-3.4
			c2.7-1.3,5.5-1.7,8.4-2.5c0.2,5.7,1.1,11.6,0,17.1c-0.2,1.5-6.5,2.1-10.1,2.7c-1.5,0.2-3.2-0.4-4.9-0.6c0.4,1.5,0.4,3.8,1.7,4.6
			c9.5,7.8,5.3,17.5,4.2,26.8c-0.2,1.9-0.4,5.3,0.6,5.7c2.1,1.1,5.7,1.7,7,0.4c9.7-8.4,19.2-17.3,28.7-25.9c1.3-1.1,3.3-1.5,5-2
			c0.6,1.2,1.4,2.6,2,3.7c1.1-0.8,2.3-1.5,3.4-2.3c-0.4-0.8-1.3-1.5-1.9-2.1c-0.1-0.2-0.2-0.4-0.4-0.6c0.2-0.1,0.4-0.2,0.6-0.3
			c0.4-0.2,0.8-0.2,1.1-0.2c0.8-0.2,1.9-0.2,2.7-0.4c2.1,1.3,4.2,2.5,6.1,3.8c0.4-3,0.8-6.1,1.3-9.1c0.2-1.5,0.8-3,1.5-4.4
			c1.3,1.5,3.2,3,3.4,4.4c0.2,3-0.8,5.9-1.5,8.9c0.4,0.8,1.1,1.7,1.5,2.5c4.4,8.6-2.3,22.1,14.6,25.7c7.6,1.5,11.6,0.2,12.9-4.6
			c2.1-8.9,3.4-18.8,1.7-27.6c-1.7-9.1,0.8-15.8,3.8-23.4c2.5-6.3,7.6-13.7,6.1-19.2C1159.8,807.5,1154.7,793.5,1146.7,782.6z
			 M873.5,761.3c-1.1-0.4-2.3-0.4-3.6-0.6c0.2,1.1,0.4,2.3,1.1,3.4c2.3,3.4,7.2,7,7,9.9c-0.6,8.4,2.3,12.7,9.9,14.6
			c0.8,0.2,1.1,1.9,1.7,3c1.5,2.7,2.7,6.1,4.9,8.4c1.7,1.9,5.3,1.9,6.5,3.8c10.8,14.8,27.4,16.5,44.1,20c2.1-0.8,5.1-1.5,7.6-2.7
			c12.7-5.9,24.7-13.7,38-17.7c19.2-5.9,33.1-19,48.3-30.6c1.1-0.8,1.5-2.5,2.1-4c-1.3-0.6-2.7-1.7-4-1.5c-4.9,0.6-9.9,0.8-14.6,2.3
			c-10.3,3.4-21.1,6.3-30.8,11.2c-16.2,8.2-33.1,11.2-50,6.1C918.2,779.6,896.1,769.9,873.5,761.3z M1013.6,1027.7
			c-3,4.6-13.7-2.1-12.4,8.6c-1.5,0-3.2,0.4-4.6,0.2c-3.2-0.4-6.3-1.3-9.5-1.7c-0.4,0-1.5,1.7-1.3,1.9c4.2,8.2-3.4,4.9-5.3,4.6
			c-9.1-0.8-18.1-2.3-27.2-3.6c-12.4-1.7-25.5,1.9-37.5-5.1c-4-2.3-9.5-1.7-14.3-2.5c0,1.1,0,2.1,0,3.2
			c14.6,10.8,30.2,19.6,48.1,22.1c13.1,1.7,26.8,0.8,40.1,0.2c5.1-0.2,9.9-3.2,15.2-4.4c5.1-1.1,10.3-1.5,15.4-2.5
			c0.6-0.2,1.3-4,1.1-4c-4.4-1.9-5.9-3.4,0-5.5c0.6-0.2,1.1-3.2,0.4-3.8C1019.1,1032.5,1016.3,1030.2,1013.6,1027.7z M1326.4,320
			c-0.4-1.9-3.2-3.2-4.9-4.6c0,1.7,0,3.2,0,4.9c0,12.7,0,25.3-0.2,38c0,0.8-1.3,1.7-1.9,2.3c0.2,1.3,0.2,2.5,0.4,3.6
			c1.5-0.8,3.6-1.3,4.4-2.7c5.7-9.7,5.1-20,3-30.6C1326.6,327.4,1327.2,323.6,1326.4,320z M741.7,527.6c1.7-1.1,3.2-2.5,6.3-5.5
			c-5.1-1.3-9.5-3.8-11.4-2.5c-6.5,4.2-12,9.9-17.9,15.2c-0.6,0.6-0.4,2.3-0.6,3.6c1.5,0,3.2,0.6,4.2,0
			C728.8,534.9,735.4,531.1,741.7,527.6z M687,564.9c-0.6,0.6-1.3,1.3-1.9,1.9c4.2,7.8,8.4,15.8,12.7,23.6c0.8,1.5,2.3,2.7,3.6,4
			c-0.2-2.1,0.2-4.6-0.6-6.5C696.3,580.1,691.7,572.5,687,564.9z M1323.7,288.1c-0.5-1.4-0.7-2.8,0.2-4.4c-1.1,1.5-3.4,3.2-3,4.2
			c1.9,7.2,4.2,14.1,6.5,21.1c1.3-1.7,4-3.8,3.8-5.1c-2.1-7-4.9-13.5-7.2-20.5C1323.1,285.2,1323.2,286.7,1323.7,288.1z M879,1008.9
			C879,1008.9,879,1008.9,879,1008.9c-0.8,0.6-1.3,1.7-1.3,2.7c7.8,7.2,15.6,14.3,23.4,21.5c0-1,0-2,0-3c0-0.1,0-0.1,0-0.2
			c0,0-0.1,0.1-0.1,0.1C893.7,1023,886.4,1015.8,879,1008.9z M686.2,565c-0.7,0.2-1.1,0.7-1.1,1.8c0.6-0.6,1.3-1.3,1.9-1.9
			c-0.8-4-1.1-8.4-2.7-12c-1.1-2.1-4.4-3.2-6.8-4.9c0.6,2.3,0.8,5.1,1.7,7.2c1.7,4,4,7.6,5.9,11.4C685,565.8,685.3,565.2,686.2,565z
			 M960.4,622.1C960.6,621.8,960.4,621.8,960.4,622.1L960.4,622.1z M975.4,616.4c-1.3-0.8-3-2.7-3.6-2.3c-3.8,2.5-7.6,5.3-11.2,8
			c4.2-1.1,8.4-1.9,12.7-3.2C974.1,618.5,974.8,617.2,975.4,616.4z M917.6,886.1c1.5,2.5,3.8,4.6,6.3,6.3c0.6,0.4,3-1.5,4.4-2.1
			c0.2-1.3,0.4-2.3,0.6-3.6c-2.7-1.7-5.3-3.6-8.2-4.9C920.1,881.5,917.2,885.5,917.6,886.1z M1040.8,1033c-2.5,1.7-4.6,3.6-7,5.5
			c1.1,0.4,2.3,1.5,3,1.3c2.5-1.3,4.9-2.7,9.1-5.3C1042.7,1033.4,1041.4,1032.5,1040.8,1033z M1084,454.6c-2.7-1.9-4-3-5.1-3.8
			c-1.3,2.1-2.7,4.2-3.8,6.5c-0.2,0.4,1.7,2.1,1.9,2.1C1079.4,458.2,1081.5,456.5,1084,454.6z M1278.1,565.3
			c0.6,1.7,2.1,3.2,3.8,5.3c1.5-1.7,3.2-3.2,3-3.6c-0.8-1.7-2.3-3-3.6-4.6C1280,563.4,1277.9,564.9,1278.1,565.3z M1008.5,881.1
			c-1.9,1.5-3.6,3.2-5.5,4.9c0.6,0.6,1.5,1.9,1.9,1.9c2.1-1.1,4.2-2.3,7.2-4.2C1010.4,882.4,1008.7,880.9,1008.5,881.1z
			 M960.4,621.8C960.2,622.1,960.4,622.1,960.4,621.8L960.4,621.8z M954.7,626.9c1.9-1.7,3.8-3.2,5.7-4.9c-2.7,0.4-5.3,0.6-7.6,1.1
			C953.5,624.4,954.1,625.6,954.7,626.9z M1317.8,294.9c-1.1,0-2.3,0-3.4,0c0,0.4,0,0.6,0,1.1c0,0,0,0-0.2,0c0,1.3,0,2.5-0.2,3.8
			c0,0-0.1,0-0.1,0c0,0-0.1-0.1-0.1-0.2c-1.7-0.4-3.4-0.6-5.3-1.1c1.1,1.5,2.3,2.7,3.4,4.2c0.2,0.4,0.6,0.6,0.8,1.1
			c-0.4-0.8-0.6-1.5-0.6-1.9c0,0,0,0,0,0.1c0-0.1,0-0.2,0-0.3c0.2-0.6,0.6-1.1,1.1-1.5c0,0,0,0,0.2,0c0,0,0,0,0.1,0
			c-0.6,0.4-0.8,0.8-1.1,1.5c0,0.6,0.2,1.3,0.6,1.9c0.4-1,0.8-2.1,1.2-3.3c1,1.4,2,2.6,3.2,4c0.4,0.2,0.8,0.4,1.5,0.6
			c0.1,0,0.3,0,0.4,0c0.1,0.1,0.2,0.1,0.3,0.1c1.5,1.1,3,2.1,4.4,3.2c-0.6-1.1-1.9-1.9-2.5-3c-0.5,0-1,0-1.4-0.2
			c0.5,0.1,0.9,0.1,1.4-0.1c0.6,1.1,1.9,1.9,2.5,3c-0.4-1.3-0.8-2.5-1.3-3.8v0c0,0-0.1,0-0.1,0c-1.5-3.1-3.1-6-4.5-9.1
			c0,0,0,0.2-0.2,0.2v0C1317.8,295.1,1317.8,295.1,1317.8,294.9z M1318,295.1L1318,295.1C1317.8,295.1,1317.8,295.3,1318,295.1z
			 M1318,295.1C1317.8,294.9,1317.8,295.1,1318,295.1L1318,295.1z M1323.9,280.5c1.7-5.5,0-8.9-6.1-9.5
			C1321.1,273.4,1322,277.4,1323.9,280.5z M1317.8,271.3c2.1,3.2,4,6.3,6.1,9.5C1322,277.4,1321.1,273.4,1317.8,271.3z
			 M1000.1,907.2c-1.3,0.6-2.1,2.5-3.2,3.8c1.3,0.8,2.5,2.3,3.8,2.3c1.5,0,3-1.1,5.3-2.1C1002.4,908.7,1000.7,906.8,1000.1,907.2z
			 M898,960.4c-1.5-1.3-2.3-2.5-3.2-2.5c-1.1,0-1.9,1.3-3,1.9c0.8,1.1,1.7,2.5,2.7,3C895,962.9,896.3,961.5,898,960.4z M675.9,540.8
			c-0.6-0.2-1.5,1.1-2.3,1.7c0.6,0.6,1.1,1.5,1.9,2.5c1.1-0.8,1.9-1.3,2.7-1.9C677.6,542.3,676.9,541.1,675.9,540.8z M1313.1,265.8
			c0,0,0.2,0,0.2,0.2c0.2-0.2,1.1-0.2,1.1-0.4c0,0,1.9,0,3,0c-1.5-2.1-3-4.2-4.2-6.3c-0.2,0.2-0.4,0.4-0.8,0.4c0,0.1,0,0.1,0,0.2
			c-0.2,0-0.2,0-0.4,0c0,0.2,0,0.4,0,0.4c0.2,1.5,0.2,3,0.4,4.4C1312.5,265.1,1312.9,265.4,1313.1,265.8z M1312.5,266.4
			c0.2-0.2,0.4-0.2,0.6-0.4c-0.2-0.4-0.4-0.8-0.8-1.1C1312.3,265.4,1312.3,266,1312.5,266.4z M1331.3,320c-0.8,0-1.5,0.8-2.3,1.3
			c0.8,0.6,1.5,1.7,2.5,1.9c0.6,0.2,1.5-0.8,3-1.9C1332.7,320.6,1332.1,319.8,1331.3,320z M884.9,959.8c-0.6,0-1.3,1.3-1.9,1.9
			c0.6,0.6,1.5,1.3,2.5,2.3c0.8-1.3,1.3-2.1,1.9-2.7C886.4,960.8,885.5,959.8,884.9,959.8z M878.6,1008.9c-1-1-0.9-2-2.6-3
			c0.1-0.1,0.2-0.1,0.3-0.2c-0.6-0.4-1.1-1.1-1.7-1.5c-0.2,0.6-0.6,1.2-1.1,1.4c0-0.1,0.1-0.2,0.1-0.3c0.5-0.2,0.8-0.6,1-1.3
			c-1.1-1.1-2.3-2.1-3.4-3.2c0,0-0.1,0.1-0.1,0.1c-0.4-0.3-1-0.6-1.3-0.9c0,0.6,0,1.5-0.2,2.1c0.5-0.5,0.9-0.9,1.3-1c0,0,0,0,0,0
			c-0.5,0.2-0.8,0.5-1.1,1c0.1-0.1,0.2-0.2,0.3-0.2c-0.2,0.2-0.3,0.3-0.5,0.4c1.3,1.3,2.3,1.7,3.6,3.8h0.2v-0.2c0,0,0-0.1,0.1-0.1
			c0.1,0.1,0.2,0.2,0.4,0.4h-0.2v0.8c2.1,1.5,2.7,3.2,3.8,4.6C877.3,1010.6,877.7,1009.5,878.6,1008.9z M801,35.4
			c-0.4-0.2-0.6-0.6-1.1-0.8c0,0.8-0.2,1.7-0.6,2.5c0.1-0.1,0.1-0.1,0.2-0.2C800,36.4,800.4,36,801,35.4z M729.9,63.1
			c-0.2-0.3-0.5-0.5-0.7-0.8c0,0.1,0,0.1,0,0.2C729.4,62.6,729.7,62.9,729.9,63.1z"/>
	</g>
</g>
</svg>
