<?xml version="1.0" encoding="utf-8"?>
<!-- Generator: Adobe Illustrator 18.0.0, SVG Export Plug-In . SVG Version: 6.00 Build 0)  -->
<!DOCTYPE svg PUBLIC "-//W3C//DTD SVG 1.1//EN" "http://www.w3.org/Graphics/SVG/1.1/DTD/svg11.dtd">
<svg version="1.1" id="Layer_1" xmlns="http://www.w3.org/2000/svg" xmlns:xlink="http://www.w3.org/1999/xlink" x="0px" y="0px"
	 viewBox="0 0 372 512" enable-background="new 0 0 372 512" xml:space="preserve">
<g>
	<path fill="#FFFFFF" d="M336.5,104.8c-0.2-0.2-0.4-0.3-0.6-0.5C336.1,104.4,336.3,104.6,336.5,104.8L336.5,104.8z"/>
	<path fill="#FFFFFF" d="M176.7,122.3c0.1,0.5,0.2,1,0.3,1.4C177,123.2,176.9,122.7,176.7,122.3z"/>
	<path fill="#FFFFFF" d="M57.8,44.4c-0.1,0.2-0.3,0.5-0.4,0.7C57.5,44.9,57.7,44.7,57.8,44.4z"/>
	<path fill="#FFFFFF" d="M109.8,17.6C109.8,17.6,109.8,17.6,109.8,17.6C109.8,17.6,109.8,17.6,109.8,17.6
		C109.8,17.6,109.8,17.6,109.8,17.6z"/>
	<path fill="#FFFFFF" d="M15.3,121c0.6-0.7,0.9-1.6,1.4-2.4C16.3,119.4,15.8,120.2,15.3,121z"/>
	<path fill="#FFFFFF" d="M102.2,19.7L102.2,19.7C102.2,19.6,102.2,19.7,102.2,19.7C102.2,19.7,102.2,19.7,102.2,19.7z"/>
	<path fill="#FFFFFF" d="M348.1,115.5c0.5,0.8,0.8,1.7,1.3,2.4C349,117.1,348.5,116.3,348.1,115.5z"/>
	<path fill="#FFFFFF" d="M66.6,35.8c0.1,0.1,0.2,0.1,0.3,0.2C66.9,35.9,66.8,35.8,66.6,35.8z"/>
	<path fill="#FFFFFF" d="M13,155c0.3,1.7,0.5,3.4,0.8,5.1C13.8,158.3,14,156.5,13,155z"/>
	<path fill="#FFFFFF" d="M352.8,123.4c0.1-0.1,0.1-0.1,0.2-0.2c-0.1,0-0.1,0-0.2,0v0C352.8,123.3,352.8,123.4,352.8,123.4z"/>
	<path fill="#FFFFFF" d="M13,127.8c0.7-0.7,0.7-1.7,0.8-2.6C13.5,126,13.3,126.9,13,127.8z"/>
	<path fill="#FFFFFF" d="M11.6,133c0.1-1,0.3-2.1,0.4-3.1C11.4,130.9,11.5,132,11.6,133z"/>
	<path fill="#FFFFFF" d="M13.8,125.2c0.2-0.7,0.4-1.4,0.6-2.1C13.9,123.7,13.8,124.4,13.8,125.2z"/>
	<path fill="#FFFFFF" d="M14.3,164.1c-0.2-1.3-0.4-2.7-0.6-4C13.7,161.4,13.7,162.8,14.3,164.1z"/>
	<path fill="#FFFFFF" d="M109.8,17.6C109.8,17.6,109.8,17.6,109.8,17.6C109.8,17.6,109.8,17.6,109.8,17.6
		C109.8,17.6,109.8,17.6,109.8,17.6C109.8,17.6,109.8,17.6,109.8,17.6z"/>
	<path fill="#FFFFFF" d="M109.8,17.6C109.8,17.6,109.8,17.6,109.8,17.6C109.8,17.6,109.8,17.6,109.8,17.6
		C109.8,17.6,109.8,17.6,109.8,17.6C109.8,17.6,109.8,17.6,109.8,17.6z"/>
	<path fill="#FFFFFF" d="M354,161.9c-1,0.6-2,1.2-3.1,1.8c0.5-0.9,1-1.8,1.5-2.7c0.2-1.4,0.4-2.8,0.7-4.3c0.7-3.8,1.3-7.5,2-11.3
		c-0.7-0.4-1.3-0.8-2-1.3l0,0c-0.6,1.4-1.1,2.9-1.7,4.3c-0.6-1.8-1.3-3.5-1.9-5.3c-0.2-0.5-0.2-1-0.1-1.5c0.2-1.4,0.6-2.8,0.9-4.2
		c1.2,0.8,2.4,1.5,3.6,2.3v0l0,0c0.5,0,1.1,0,1.6,0c-2.1-3.3-4.2-6.5-6.3-9.8c-0.7-1.1-1.4-2.3-2.1-3.4c-0.2-0.2-0.4-0.5-0.6-0.7
		c0.3-0.4,0.6-0.8,0.9-1.1c0,0,0,0,0,0c0.3,0.3,0.6,0.6,0.8,0.9c1.2,1.5,2.4,3.1,3.7,4.5c0.3,0.4,1.1,0.3,1.6,0.5
		c0-0.7,0.1-1.4,0.1-2.1c-0.2-0.5-0.5-1.1-0.7-1.6c0-0.1-0.1-0.3-0.1-0.4c0-0.1,0.1-0.1,0.2-0.2l0,0h0l0,0c-1.4-1.4-2.8-2.9-4.2-4.3
		c0.4-0.3,0.9-0.9,1.3-0.9c0.7,0,1.4,0.3,2.2,0.6c-1-1.2-1.9-2.5-2.9-3.7c-0.6-0.7-0.9-1.6-1.3-2.4c-1.9-1.9-3.8-3.8-5.7-5.8
		c-0.7-0.6-1.3-1.1-2-1.7c-0.5-0.5-1-0.9-1.6-1.4c-1-0.6-2.1-1.2-3.1-1.8c0,0.2-0.1,0.4-0.3,0.5c-0.3,0.5-0.6,1-0.9,1.5
		c-0.1,0.1-0.6-0.2-0.9-0.4c0.3-0.5,0.5-0.9,0.8-1.4c0-0.2,0.2-0.6,0-0.7c-3.1-3-6.3-5.9-9.4-8.9c-0.4-0.4-0.4-1.1-0.7-1.7
		c-0.7-0.7-1.4-1.4-2.2-2.1c-1.3-4.3-3.9-7.9-6.5-11.5c-0.4-0.5-0.3-1.5-0.4-2.2c-0.5-0.1-1-0.2-1.5-0.3c0.5-0.5,1.1-1.1,1.6-1.6v0
		l0,0c0-0.6,0-1.1,0-1.7c-1-4.1-2.1-8.3-3.1-12.4c0.4-0.3,0.8-0.5,1.2-0.8l0,0v0c-1.2-4.1-1.8-8.6-3.7-12.3
		c-2.1-4.1-6.7-6.2-11.1-5.8c-2.1,0.2-4.4,0.6-6.6,0.8c-4.8,0.5-5.9-2.3-6.3-6.2c-0.1-1.2-0.6-2.7-1.5-3.5c-1.3-1.1-3.2-1.5-4.7-2.5
		c-1.4-0.9-2.9-3.3-3.8-3.1c-3.8,1.2-1.7-0.5-1.3-1.9c0.3-1.1-0.1-2.4-0.2-3.6c-1,0.2-2.1,0.3-3.1,0.5c-0.7,0.1-1.4,0.3-2.2,0.5
		c0,0,0.1-0.1,0.1-0.1c0,0-0.3,0-0.3,0v0.1v0c0,0.3-0.1,0.5-0.3,0.8c-0.1-0.3-0.2-0.5-0.3-0.8c0-0.4,0.1-0.9,0.1-1.3
		c-0.9,0.3-1.8,0.4-2.6,0.8c-3.2,1.8-3.8,7.6-9.3,6.1c-0.3-0.1-1.2,0.7-1.3,1.2c-0.7,4.4-3.9,2.5-6.4,2.6c-0.5,0-1.1-0.3-1.6-0.2
		c-9,2-16-1.3-22-7.7c-1.2-1.3-2.9-2.3-4.6-2.8c-3.7-1-7.6-1.8-11.4-2.4c-8.5-1.5-17.1-3.2-25.7-4.1c-8.4-0.9-16.9-1.1-25.4-1.1
		c-16.2-0.1-32.4-0.9-48.4,2.5c0,0,0,0,0,0c0.1,0.1,0.3,0.3,0.4,0.4c0,0-0.1,0.3-0.2,0.3c-2.6,0.5-5.2,0.9-7.9,1.3
		c-0.3,0.2-0.6,0.3-0.8,0.4c-0.5,0.3-1.1,0.6-1.6,0.9c-0.2-0.5-0.4-1-0.6-1.4c0-0.4,0-0.8,0-1.2c-6.8,3-13.6,5.9-20.3,9
		c-0.9,0.4-1.5,1.3-2.3,2c0,0,0,0,0,0c1.1,0.3,2.3,0.5,3.4,0.8c-0.5,0.5-1,1-1.6,1.5c-0.6-0.7-1.1-1.4-1.7-2.1
		c-0.1-0.1-0.2-0.1-0.2-0.2l0,0l0,0c-0.7,0.3-1.5,0.6-2.2,0.9c0,0.9,0.1,1.8,0.1,2.6c-0.5-0.4-1-0.8-1.6-1.2c-2,1.4-4.1,2.8-6.1,4.2
		c0.2,0,0.3,0.1,0.3,0.2c0.4,0.2,0.7,0.4,1.1,0.6c-0.4,0.2-0.9,0.3-1.3,0.5c0,0,0,0,0,0c-0.2,0.4-0.3,0.7-0.5,1.1
		c0,0.1-0.2,0.3-0.2,0.4c0,0,0,0.4,0,0.4h0h0l-0.2-0.3c-1,0.6-1.9,1.2-2.9,1.8c-0.2,0.1-0.4,0.2-0.5,0.4c-1.1,0.5-2.2,0.9-3.2,1.4
		c0,0,0,0,0,0c0,0-0.1,0-0.1,0c-0.4,0.7-0.8,1.4-1.2,2.1c-0.1,0.3-0.3,0.6-0.4,0.7c-0.5,0.9-1.1,1.9-1.7,2.8c-0.1,0.1-0.6,0-0.9,0
		c0.1-0.3,0.2-0.7,0.2-1c0.1-1.1,0.1-2.2,0.2-3.3c0,0,0,0,0,0c-0.7,1.1-1.4,2.4-2.2,3.4c-4.8,6-9.7,11.8-14.4,17.8
		C34.7,70,30.3,75,27.6,80.8c-2.9,6.3-4.3,13.3-5.7,20.1c-0.4,1.8-4.6,5.2,0.9,6.5c-0.2,0.5-0.3,0.9-0.5,1.4
		c-0.9,3.5-3.7,4.4-6.6,5.6c-1,0.4-1.2,2.4-1.8,3.7c0.7-0.3,1.5-0.6,2.2-0.8c0.1,0,0.4,0.9,0.6,1.4c-0.5,0.8-0.8,1.7-1.4,2.4
		c-0.3,0.7-0.6,1.4-1,2.1c-0.2,0.7-0.4,1.4-0.6,2.1c0,0.9,0,1.9-0.8,2.6c-0.3,0.7-0.7,1.4-1,2.1c-0.1,1-0.3,2.1-0.4,3.1
		c0.5,0.8,0.9,1.6,1.4,2.4c0.8,0,1.5-0.1,2.3-0.1c-0.4,4.2-0.8,8.4-1.3,12.6c0,0.4-0.6,0.6-1,1c0,2,0,4.1,0,6.1
		c1,1.6,0.8,3.3,0.8,5.1c0.2,1.3,0.4,2.7,0.6,4c0.3,0.3,0.6,0.5,0.9,0.8c1-1,1.9-1.9,2.9-2.9c0,1.7,0.1,3.3,0.1,5c0,0,0.1,0,0.1,0
		c0,0,0,0-0.1,0.1c1.1,1.4,2.7,2.6,3.2,4.2c0.4,1.3-0.5,2.9-0.9,4.4l0,0c0,0,0,0,0,0c0,0,0,0,0,0c-0.2,3.2,3,4,4.2,5.9
		c2.2,3.7,3.1,8.2,4.7,12.3c1.3,3.5,2.6,6.9,3.9,10.3c0.3-0.9,0.6-1.8,0.9-2.7c0.3,0.2,0.6,0.3,0.8,0.5c-0.5,0.7-1.1,1.5-1.6,2.3
		l0,0.1c0.3,0.9,1,1.9,0.8,2.8c-0.6,3.8,0.3,5.2,3.9,5.5c0.3,0,0.5,0.7,0.7,1.1c0.3,0.8,0.6,1.5,0.8,2.3c1,4.3,6.8,6.4,5.3,11.8l0,0
		c0,0,0,0,0,0l0,0c0.4,1,0.8,1.9,1.1,2.9c1.2,5.2,2.3,10.4,3.5,15.6c0.1,0.5,1.1,0.9,1.6,1.3c0.1-0.6,0.4-1.2,0.3-1.7
		c-0.5-2.3-1.3-4.5-1.5-6.8c-0.7-8.1-1.2-16.2-1.8-24.2c0-0.4,0.3-1.1,0.6-1.3c4.2-2.6,2.7-7.2,3.7-10.9c0.4-1.5,0.8-3.1,0.7-4.7
		c-0.1-1.1-2-2.5-1.7-3c0.7-1.1,2.3-1.7,3.3-2.7c0.4-0.4,0.2-1.4,0.2-2.2c0.2-4.5,0.1-9,0.8-13.4c0.6-3.9,2.1-7.7,3.3-11.5
		c0.1-0.3,0.7-0.4,1.1-0.6c0.7,1.5,1.5,3,1.9,4.5c0.7,3,1.1,6.1,1.8,9.1c0.1,0.3,1.6,0.8,1.9,0.5c1.8-1.6,3.6-3.3,5.1-5.2
		c2.4-3.1,4.1-6.8,6.7-9.7c3.4-3.8,3.6-7.8,2.7-12.4c-0.1-0.5,0.9-1.4,1.5-1.9c0.7-0.6,1.9-0.7,2.3-1.4c1.6-2.6,2.9-5.4,4.6-7.9
		c1.7-2.5,5-4.5,5.4-7c1-6.5,6.2-8.8,10.7-10.7c8.6-3.4,17.7-5.7,26.7-8.1c2.7-0.7,5.7,0.2,8.4-0.4c2.8-0.5,5.4-2.1,8.1-2.9
		c4.6-1.3,6.3,0.1,7.1,4.8c0.1,0.7,2.3,1.9,2.8,1.6c3.8-1.9,6.6,1,9.1,2.3c3.2,1.7,5.4,5.2,9.6,2.4c0.2,0.5,0.3,1,0.3,1.4
		c0.3,1.3,0.5,2.7,0.8,4c1.1,1.5,1.9,3.9,3.4,4.4c3.9,1.4,4,4.3,4.6,7.5c0.5,2.4,1.7,5.1,5.2,4.5c0.6,0.3,1.2,0.5,1.8,0.8
		c1.4-1.8,1.6-5.6,5.5-3.2c0.1,0,0.5-0.2,0.6-0.4c0.4-0.8,0.6-1.6,1-2.3c0.2-0.4,0.7-0.7,1.1-1c0.2,0.8,0.4,1.7,0.5,2.5
		c0.6-0.4,1.1-1,1.7-1.3c1.9-0.7,4-2.2,4.5,1.7c0.4,3.2,1.6,6.4,2.5,9.5c0.1,0.5,0.9,0.8,1.3,1.2c0.2-0.5,0.3-1.1,0.5-1.6
		c0.3-0.8,0.7-1.5,1.1-2.3c0.4-0.9,0.9-1.7,1.4-2.5c0.3,0.9,0.7,1.7,0.9,2.6c0.6,2,4.3,4,0.1,6.3c-0.5,0.3,0.8,3.1,0.9,4.8
		c0.1,4.8,0,9.7,0.1,14.5c0,0.8,0.9,1.7,1.5,2.4c0.6,0.8,1.2,1.5,1.8,2.2c-0.8,0.4-1.6,0.8-2.3,1.4c-0.7,0.6-1.7,1.8-1.5,2.2
		c0.7,1.6,1.6,3.6,3,4.2c2.1,0.9,4.7,0.6,7,1.3c3.3,1,6.4,3.2,9.8,0.9c1.7-1.2,3.2-3.9,4.8-3.9c2.9,0,3.3-1.7,4.1-3.5
		c-1.1-0.2-2.2-0.5-3.3-0.7c-0.7-0.2-1.3-0.3-2-0.5c0.6-0.7,1.2-2.2,1.7-2.1c1.9,0.2,3.6,0.9,5.5,1.5c1.2-0.4,2.4-0.7,3.5-1.1
		c-0.2,1.5-0.3,3-0.5,4.5c-0.1,0.8-0.4,1.7-0.3,2.5c0,0.5,0.9,1.2,0.8,1.4c-2.2,3.4-3.8,7.6-6.8,10c-7.4,5.8-15.5,10.7-23.3,16
		c-1.8,1.2-3.5,2.7-5.2,4.1c-0.3,0.3-0.2,1-0.3,1.6c0.4-0.1,0.9-0.1,1.3-0.3c5.6-3,11.3-5.9,16.7-9.2c3.9-2.4,7.4-5.3,11.1-7.9
		c0.4-0.3,1-0.2,1.5-0.3c0,0.4,0.1,0.8-0.1,1.1c-2.6,4.1-5.2,8.2-7.8,12.4c-0.5,0.8-0.9,1.7-1.4,2.5c0.9-0.5,1.9-1,2.7-1.7
		c0.5-0.4,0.8-1.2,1.2-1.8c3-3.9,6-7.8,9-11.7c0.3-0.4,1-0.6,1.5-0.9c0,0.5,0.1,1.1,0,1.6c-2.1,6.2-4.2,12.4-6.2,18.6
		c0.6,0,1.2,0,1.8,0.1l0,0h0c2-4.2,3.8-8.5,6-12.5c1.5-2.7,1-6.8,5.4-7.7c0.9-0.2,1.5-1.8,2.2-2.8c-0.7-0.3-1.8-0.5-2.1-1
		c-0.6-1.2-1.3-2.9-0.9-3.8c1.7-3,3.9-5.7,6-8.4c0.4-0.5,1.4-0.4,2.2-0.6c-0.1,0.7-0.1,1.4-0.3,2c-1.2,2.5-2.5,5-3.7,7.5
		c-0.3,0.7-0.4,1.5-0.6,2.2c0.8-0.4,1.9-0.6,2.4-1.3c1.4-2.1,2.6-4.5,3.8-6.7c0.8-1.6,1.6-3.2,2.4-4.7c0.6,1.8,1.4,3.6,1.9,5.5
		c1.9,7.7,3.7,15.5,5.6,23.3c0.2,0.6,0.9,1.1,1.3,1.6c0.6-0.7,1.9-1.5,1.8-2.1c-0.5-2.6-2.1-5.2-1.9-7.7c0.2-2.2,1.5-3.3-0.9-5.8
		c-2.2-2.3-1.9-7-2.5-10.7c-0.1-0.7,1.1-1.5,1.5-2.3c0.5-1,1.4-2.2,1.2-3.1c-0.6-3.4-3-6.8,0.5-10c0.7-0.6,0.7-1.8,1.2-2.7
		c0.3-0.6,0.9-1.1,1.3-1.7c0.3,0.6,0.7,1.2,0.9,1.8c1.2,4.1,2.5,8.2,1.1,12.6c-0.2,0.7,0.9,1.9,1.3,2.8c0.6-0.5,1.7-1,1.7-1.6
		c0-5.2,2.1-10.5-0.9-15.7c-1-1.8-1.6-4.6-1-6.5c0.8-2.5,3.6-6.7,4.3-6.4c6,2,2.7-2,2.6-3.8c0-0.6-0.1-1.3-0.1-1.9
		c0.7,0.2,1.3,0.3,2,0.5c3.9,1.5,7.7,3.1,10.2,6.7c1.3,2,2.8,4,3.8,6.1c1.1,2.4-0.3,5.7,2.9,7.4c0.3,0.2,0.3,1.1,0.4,1.6
		c0.5,3.4,0.8,6.8,1.6,10.1c0.7,2.6,2.1,5,3,7.6c0.8,2.2,1.6,4.5,2.1,6.7c0.3,1.3,0,2.7,0.1,4c0.1,6.2,0.1,12.5,0.5,18.7
		c0.1,1.3,1.5,2.6,2.3,3.9c0.5-1,1.2-2,1.6-3c0.4-0.9,0.4-1.9,0.6-2.9c0.5,1.1,1.3,2.1,1.6,3.2c0.8,3.2,1.6,6.4,2.2,9.7
		c0.6,3.7,1.1,7.4,1.5,11.2c0.3,2.3,0.3,4.7,0.7,7c0.2,1.5,1.5,3.5,1,4.4c-1.8,3.2,1.3,5.8,0,9.6c-1.7,5,0.6,11.5,1.3,17.3
		c0.1,0.8,0.9,1.5,1.4,2.3c0.6-1.1,1.5-2.2,1.7-3.3c0.2-0.9-0.8-2.1-0.5-2.9c1-3.1,2.8-6,0.7-9.4c-0.5-0.9,0.2-2.5,0.4-3.7
		c0.9,1.1,1.9,2.1,2.8,3.2c0.1,0.1-0.1,0.6,0,0.7c0.3,0.4,0.7,0.8,1.1,1.2c0.4-0.4,1-0.8,1-1.3c0.1-1.1-0.1-2.3-0.1-3.4
		c0-0.5,0.4-1,0.7-1.5c0.2,0.5,0.4,1,0.6,1.5c0.5,0.8,1.1,1.5,1.6,2.3c0.1-1,0.2-1.9,0.1-2.9c-0.2-2.9-1.7-7.3-0.5-8.3
		c3.4-2.8,1.1-6.2,2.2-8.9c3.1-7.7,6.4-15.4,9.5-23.1c0.6-1.5,0.4-3.3,0.6-5c-0.8,1.2-1.6,2.4-2.5,3.5c-0.2,0.3-0.5,0.4-0.8,0.6
		c-0.2-0.4-0.6-0.9-0.5-1.3c0.6-2.5,1.2-4.9,1.9-7.4c0.1-0.6,0.2-1.2,0.2-1.8c0-0.9-0.1-1.8-0.1-2.8c0-2.4,0-4.7,0.1-7.1
		c0-0.5,0.5-1,0.8-1.4c0.3,0.5,0.8,1,0.8,1.5c0,2.3-0.2,4.7-0.3,7c0,1,0,2,0,2.9c0,0.5,0,1-0.1,1.6c0.5,0.4,1,0.9,1.4,1.3
		c0.3-0.6,0.7-1.2,0.8-1.8c0.4-2,0.7-4.1,1-6.2c0.5-2.3,0.2-4.6,0.2-7c-0.1,2.3-0.1,4.6-0.2,7c0.1-2.3,0.1-4.6,0.2-7
		c0.3-1.2,0.9-2.3,0.9-3.5c0.3-4.8,0.7-9.5,0.7-14.3c0-1.9-1-3.8-1.6-5.7c-0.2-0.8-0.3-1.6-0.5-2.4
		C354.6,167.8,354.3,164.8,354,161.9z M25.9,97.6c0,0.1-0.5-0.1-0.8-0.2c0.7-1,1.3-2.1,2-3.1l0,0c1.2-3,2.3-5.9,3.5-8.9
		c0-1,0-2-0.1-3c0.2-0.3,0.4-0.7,0.6-1c0.3,0.3,0.6,0.6,0.9,0.9c0.1,1.1,0.1,2.1,0.2,3.2c-1.6,3-3.1,6.1-4.7,9.1
		C26.9,95.6,26.4,96.6,25.9,97.6z M29.1,185.1c-0.3-0.2-0.6-0.5-0.9-0.7c0.2-0.2,0.4-0.6,0.6-0.6c0.2,0,0.5,0.3,0.9,0.5
		C29.4,184.6,29.3,184.9,29.1,185.1z M32.2,187.4c-0.3-0.3-0.5-0.7-0.8-1c0.3-0.2,0.6-0.5,0.9-0.4c0.2,0,0.4,0.4,0.7,0.7
		C32.7,187,32.4,187.2,32.2,187.4z M33.1,80c-0.1,0-0.6-0.5-0.6-0.7c0.1-0.3,0.4-0.7,0.8-0.9c0.1,0,0.5,0.4,0.9,0.8
		C33.8,79.6,33.5,79.9,33.1,80z M39,207.3c-0.4-0.2-0.7-0.4-0.9-0.6c0.2-0.3,0.5-0.6,0.7-0.9c0.2,0.2,0.6,0.4,0.6,0.7
		C39.4,206.6,39.1,206.9,39,207.3z M72.3,155.4c-0.4,0-0.8-0.5-1.1-0.8c0.4-0.3,0.7-0.7,1.1-0.7c0.4,0,0.8,0.3,1.6,0.7
		C73.1,155,72.7,155.4,72.3,155.4z M95.9,21.8c-0.2,0-0.4-0.5-0.5-0.7c0-0.1,0.3-0.5,0.4-0.5c0.3,0.1,0.6,0.3,1,0.6
		C96.4,21.5,96.1,21.8,95.9,21.8z M231.8,32.6c0.6,0.3,1.1,0.7,1.9,1.3c-0.6,0.5-1.2,1-1.3,0.9c-0.6-0.4-1-0.9-1.5-1.4
		C231.2,33.1,231.7,32.5,231.8,32.6z M219.1,182.7c-0.2-0.4-0.6-0.8-0.6-1.2c0-0.3,0.4-0.7,1-1.4c0.3,0.9,0.6,1.3,0.6,1.7
		C220,182.2,219.5,182.4,219.1,182.7z M221.2,151.7c-0.1-1.2-0.3-2.3-0.4-3.5c-0.4-0.5-0.7-1.1-1.1-1.6c0.4,0.1,0.8,0.2,1.3,0.2
		c0.2,0.2,0.5,0.3,0.5,0.5c0.5,1.1,1,2.2,1.3,3.3C222.9,150.8,221.8,151.3,221.2,151.7z M232.1,186.6c-1-0.5-1.6-0.8-2.2-1.1
		c1-0.6,2.1-1.3,3.2-1.7c0.3-0.1,0.9,0.6,1.3,1C233.6,185.4,232.9,186,232.1,186.6z M234.3,177.8c-0.3,0.5-0.9,0.8-1.3,1.3
		c-1.1,1.4-1.9,4.3-4.2,2c-0.8-0.7,0.3-3.2,0.2-4.8c-0.1-1.8-0.7-3.7,1.9-4.1c0.6-0.1,1.1-0.2,1.7-0.3c-0.2,0.5-0.3,1-0.5,1.5
		c-0.2,0.6-0.8,1.3-0.6,1.7c0.3,0.5,1.1,0.8,1.2,0.9c1.2-0.2,1.8-0.3,2.5-0.3C234.9,176.3,234.7,177.1,234.3,177.8z M249.6,154.8
		c-0.3,2.1-0.7,4.2-1.2,6.2c0,0.2-0.8,0.4-1.1,0.2c-0.7-0.4-1.9-0.9-1.8-1.4c0.1-2.5,0.6-4.9,0.8-7.4c0.1-0.8-0.1-1.6-0.2-2.4
		c-0.6,0.4-1.3,0.9-1.9,1.4c-1.1,1-0.4,5.5-4,2c-0.3-0.3-2.3,1.5-3.6,2c-2.6,1-5.3,2.2-8,2.3c-0.7,0-1.7-3.4-2.4-5.4
		c-0.9-2.9-1.7-5.8-2.5-8.7c0.3-3,0.2-5.5,4.4-3.3c0.4,0.2,3.3-2.4,3.5-3.9c0.4-2.6,1.4-2.5,3.2-2c2.6,0.7,5.2,1.5,7.8,1.8
		c4.5,0.6,5.8,2.3,4.8,7.2c-0.1,0.5,0.7,1.1,1.2,1.6c0.6,0.8,1.8,1.6,1.8,2.4C250.5,150,250,152.4,249.6,154.8z M256.2,47.1
		c-0.5,0-0.9-0.6-1.3-1c0.5-0.5,0.9-1.1,1.4-1.3c0.3-0.1,0.8,0.6,1.5,1.2C257.1,46.5,256.7,47.1,256.2,47.1z M260.7,172.8
		c-0.3,0.3-0.7,0.6-1,0.9c0-0.6,0-1.2,0.1-1.8c0,0,0,0,0,0c0.7-2.3-1.5-5.4,1.8-7.1c0.1,0-0.1-1.4-0.5-1.6c-3.9-2-0.3-5.3-1.4-7.8
		c0,0,0.7-0.5,0.8-0.4c0.5,0.3,1,0.7,1.2,1.2C264.2,162,264.9,167.6,260.7,172.8z M278.8,51.5c0.3,0.5,0.6,0.9,1.1,1.7
		c-0.6,0.7-1.1,1.2-1.6,1.8c-0.5-0.5-1.4-1.2-1.3-1.3C277.5,52.8,278.2,52.2,278.8,51.5z M274.4,49.2c-0.3,0.1-0.6-0.5-1.1-0.8
		c0.4-0.5,0.7-0.9,0.9-1.2c0.3,0.4,0.8,0.7,1,1.1C275.2,48.5,274.7,49.1,274.4,49.2z M275.2,41.7c-0.2,0-0.6-0.7-0.5-0.7
		c0.3-0.3,0.6-0.6,1-0.7c0.1,0,0.4,0.5,0.7,1C275.9,41.5,275.5,41.7,275.2,41.7z M277.8,38.5c0.4,1.4,0.7,2,0.6,2.6
		c-0.1,0.5-0.7,0.9-1,1.4c-0.2-0.6-0.6-1.3-0.6-1.9C276.8,40.2,277.2,39.7,277.8,38.5z M277.7,161.8c-0.3-0.4-0.9-1-0.8-1.3
		c0.6-1.4,1.3-2.8,2-4.2c0.3,0.7,0.7,1.4,1.2,2.6C279.3,159.9,278.5,160.9,277.7,161.8z M282,36.7c0.5,0.7,0.9,1,0.9,1.3
		c0,0.4-0.3,0.8-0.5,1.2c-0.4-0.3-0.9-0.6-1.1-1C281.2,37.9,281.6,37.5,282,36.7z M281.8,155.1c-0.2-0.5-0.6-1.1-0.6-1.6
		c0.2-1.3,0.6-2.6,1.2-4.7c1.6,1.4,2.6,2.1,2.5,2.1C284,152.4,282.9,153.7,281.8,155.1z M286.6,54.9c-0.2-0.2-0.6-0.4-0.7-0.6
		c-0.1-0.2,0.2-0.5,0.4-0.9c0.4,0.3,0.8,0.6,0.8,0.8C287.1,54.4,286.8,54.7,286.6,54.9z M298.7,66.1c-1.1-1.3-1.5-1.7-1.8-2.1
		c0.4-0.3,0.8-0.8,1.1-0.7c0.5,0.1,1,0.5,1.2,0.9C299.3,64.7,298.9,65.3,298.7,66.1z M296.5,60.8c0.7-0.3,1.2-0.7,1.5-0.7
		c0.4,0,0.8,0.4,1.1,0.6c-0.4,0.3-0.8,0.8-1.3,0.9C297.6,61.7,297.2,61.2,296.5,60.8z M302,66.9c-0.3-0.4-0.8-0.8-0.9-1.3
		c-0.1-0.2,0.5-0.8,0.8-0.8c0.4-0.1,0.9,0.2,1.5,0.4C302.6,66.3,302.3,66.6,302,66.9z M300.3,52.7c-0.7,0.1-1.5,0-2.3,0
		c-0.1,0.2-0.2,0.4-0.2,0.7c-2.1-0.8-4.3-1.4-6.3-2.3c-0.9-0.4-1.6-1.3-2.3-1.9c1.1-0.9,2.4-2.7,3.4-2.5c3.1,0.4,6.2,1.4,9.1,2.6
		c0.8,0.3,1.2,1.9,1.8,2.9C302.4,52.3,301.3,52.5,300.3,52.7z M308.6,64.9c-0.3-0.3-0.5-0.6-0.8-0.9c0.3-0.2,0.5-0.5,0.8-0.5
		c0.2,0,0.5,0.3,0.8,0.6C309.1,64.4,308.8,64.7,308.6,64.9z M330.2,243.5c-0.1-0.3-0.4-0.7-0.3-0.9c0.1-0.3,0.5-0.4,0.8-0.6
		c0.2,0.4,0.4,0.7,0.6,1C330.9,243.1,330.5,243.3,330.2,243.5z M347.1,192.7c-0.5,1-0.7,1.6-1,2.2c-0.6-1-1.4-2-1.8-3
		c-0.1-0.3,0.7-1,1.1-1.5C345.9,191.1,346.5,191.9,347.1,192.7z M346.5,197.7c-0.4,0.3-0.8,0.8-1.1,0.8c-0.4-0.1-0.8-0.7-1.2-1
		c0.4-0.3,0.8-0.5,1.3-0.9C345.9,197,346.2,197.4,346.5,197.7z M345.2,189c-1-0.8-1.6-1.2-2.1-1.7c0.7-0.8,1.4-1.5,2.1-2.3
		c0.4,0.5,1.2,1,1.2,1.5C346.4,187.2,345.8,187.9,345.2,189z M346.1,179.2c-0.8,0.6-1.4,1.1-2.1,1.5c-0.1,0-0.8-0.8-0.7-0.9
		c0.5-0.9,1.1-1.7,1.7-2.5C345.3,177.8,345.6,178.2,346.1,179.2z M341.4,159.5c0.3,0.3,0.6,0.5,0.9,0.8c-0.2,0.2-0.4,0.6-0.7,0.6
		c-0.2,0-0.5-0.4-0.8-0.6C341,159.9,341.2,159.7,341.4,159.5z M336.7,254.6c-0.6-0.2-1.1-0.7-1.9-1.3c0.6-0.5,1.1-1.1,1.2-1
		c0.6,0.4,1.1,0.9,1.6,1.4C337.3,254.1,336.9,254.7,336.7,254.6z M337,250.6c-0.3-0.8-0.7-1.3-0.6-1.6c0.1-0.3,0.5-0.6,0.8-0.9
		c0.3,0.4,0.7,0.7,0.7,1.1C337.9,249.4,337.5,249.8,337,250.6z M337.3,246.4c-0.6,0.1-1.3-1.1-2-1.7c0.6-0.4,1.1-1.2,1.7-1.2
		c1.1,0,2.1,0.4,4.2,0.9C339.3,245.4,338.4,246.3,337.3,246.4z M340.6,237.9c-0.6-0.4-1.2-0.8-1.7-1.3c0,0,0.5-1,0.7-0.9
		c0.6,0.2,1.2,0.5,2,0.9C341.1,237.2,340.8,237.6,340.6,237.9z M340.1,165.2c1.1-0.1,2.5-0.6,3.2-0.1c0.9,0.7,1.1,2.2,1.6,3.4
		c-0.5,1.2-1,2.1-1.4,3.1c-0.4-1.1-0.7-2.1-1.1-3.2c-0.1-0.3,0.1-0.8-0.1-1C341.7,166.6,340.9,165.9,340.1,165.2z M344.4,220.3
		c-0.4-0.6-1.3-1.3-1.2-1.7c0.2-0.9,1-1.7,1.6-2.6c0.4,0.6,0.7,1.2,1.3,2.1C345.4,219,344.9,219.6,344.4,220.3z M345.2,212.3
		c-0.5-0.2-1.4-0.4-1.5-0.7c-0.6-1.7-1.1-3.5-1.5-5.2c0-0.2,0.6-0.5,1.3-1c1,0.8,2.8,1.4,2.8,2.2
		C346.4,209.1,345.6,210.7,345.2,212.3z M345.3,204.7c-0.6-0.2-1.1-1.5-1.1-2.3c0-0.7,0.8-1.4,1.3-2.1c0.5,0.7,1,1.4,2.7,3.9
		C347.2,204.5,346.1,205,345.3,204.7z M348.3,150c-0.4-0.3-0.8-0.6-0.8-0.8c0-0.3,0.3-0.5,0.5-0.8c0.2,0.2,0.6,0.4,0.7,0.6
		C348.8,149.3,348.5,149.6,348.3,150z M352.8,186.1c-0.3-0.2-0.6-0.3-0.9-0.5c0.1-0.2,0.2-0.5,0.3-0.5c0.3,0,0.6,0.1,0.9,0.2
		C353,185.7,352.9,185.9,352.8,186.1z"/>
	<path fill="#FFFFFF" d="M76.5,29.4C76.5,29.4,76.5,29.4,76.5,29.4C76.5,29.3,76.4,29.3,76.5,29.4L76.5,29.4
		C76.4,29.3,76.4,29.3,76.5,29.4z"/>
	<path fill="#FFFFFF" d="M76.4,29.3c0.1,0.1,0.2,0.2,0.2,0.2C76.6,29.5,76.5,29.4,76.4,29.3C76.4,29.4,76.4,29.4,76.4,29.3z"/>
	<path fill="#FFFFFF" d="M336.5,104.8L336.5,104.8c0.7,0.6,1.5,1.2,2.2,1.8l0,0C338,106,337.3,105.4,336.5,104.8z"/>
	<polygon fill="#FFFFFF" points="76.4,29.3 76.4,29.3 76.4,29.3 	"/>
	<path fill="#FFFFFF" d="M346.5,125.8c0.4-0.3,0.7-0.7,0.9-1.1C347.1,125.1,346.8,125.5,346.5,125.8z"/>
	<path fill="#FFFFFF" d="M303,274.5c-3.5-2.9-7.1-6-11.1-7.8c-4.1-1.8-8.8-2.5-13.3-3c-2.6-0.3-5.4,0.5-8,0.7
		c-4.8,0.3-9.5,0.6-14.3,0.5c-2.5-0.1-5-1.3-7.4-2c1.1-1.2,2.1-2.5,3.3-3.6c1.4-1.2,2.8-2.5,4.5-3.3c1.4-0.7,3.1-0.7,4.5-1.3
		c3.6-1.6,6.4,1.6,10.2,1.4c6.1-0.4,12.4,1.8,18.7,2.8c0.7,0.1,1.6-0.2,2.4-0.4c-0.5-0.5-0.9-1.1-1.4-1.6c-0.8-0.7-1.6-1.3-2.4-2
		c1.1,0.2,2.3,0.4,3.4,0.4c1.7,0.1,2.9,2.1,4.5-1.9c1.9-4.7,0.9-7-2-9.8c-0.2-0.2-0.2-0.8-0.2-1.2c-0.1-0.7-0.2-1.5-0.3-2.2
		c-0.8,0.8-1.7,1.6-2.3,2.5c-0.3,0.4,0.1,1.2,0.2,1.8c-0.7-0.4-1.6-0.7-2.1-1.3c-2.4-2.7-4.6-5.6-7.2-8.2c-1-1-3.4-2.5-3.9-2
		c-3.8,2.7-7.9-3.5-11.5,0.5c0,0-0.4-0.2-0.6-0.3c-4.7-3.9-9.6-0.9-14.3-0.2c-2.5,0.3-5.6,3.2-7.2,2.5c-5.2-2.5-10.4-1.7-15.6-1.7
		c-3.4,0-6.9,0.4-10.1,1.4c-1.9,0.6-2.8,5.8-5.4,0.7c-0.7,0.4-1.5,0.7-2.2,1.2c-2.9,2-3.1,6.8-7.4,7.5c-0.3,0.1-0.2,1.7-0.7,2.3
		c-1.3,1.5-2.6,3.1-4.3,4.3c-1.7,1.1-3.7,1.7-5.6,2.5c-0.4,0.2-1,0.4-1.1,0.3c-3.3-3-5.2-0.4-7.4,1.7c-0.6,0.6-1.5,0.8-2.3,1
		c-1.2,0.4-2.4,0.7-3.5,1.1c1.5,1.8-3.4,4.6,0.9,6c-0.7,1.2,3.9,3.3-0.6,3.9c-1.1,0.1-2.2,0.4-3.3,0.7c-0.3-1.6-0.8-3.3-0.9-4.9
		c0-0.9,0.6-1.8,0.9-2.7c-1.7-0.2-3.4-0.4-5-0.7c-1.4-0.2-3.1,0-4-0.7c-4.7-4.3-10.7-5.1-16.1-4.5c-3.6,0.4-6-0.7-8.9-1.8
		c-5.4-2.1-10.9-4.1-16.2-6.3c-7.2-3-14.9,2-22.3-1.6c-1.9-0.9-5.3,1.3-8,2.2c-1.9,0.6-4.8,2.6-5.3,2.1c-2.3-2.5-3-0.1-4.4,0.9
		c-1.5,1.1-3.1,2.1-4.6,3c-2.5,1.6-5,3-7.4,4.6c-0.5,0.3-0.7,1.2-1.1,1.8c0.7,0.1,1.4,0.3,2.1,0.2c1.9-0.2,3.8-0.5,5.7-0.8
		c-0.7,1.3-1.5,2.6-2,4c-0.3,0.9,0,1.9,0.1,2.9c0.8-0.3,1.6-0.5,2.3-0.9c1.3-0.5,3-1.9,3.8-1.5c4.3,2.5,9,2,13.5,1.9
		c5.3-0.1,10.6-0.6,15.8-0.9c0.3,0,0.6,0.3,0.9,0.5c2.6,1.6,5.2,3.3,7.8,4.8c1,0.6,2.2,0.9,3.3,1.3c-1.4,1.1-2.7,2.7-4.2,3.1
		c-2.3,0.5-4.9,0-7.3,0.2c-7,0.4-13.9,0.8-20.9,1.2c-0.1-0.3-0.2-0.6-0.2-0.9c-3.6,1-7.2,2.4-10.9,2.9c-5.6,0.7-10.5,2.5-14.2,6.9
		c-0.6,0.7-1,1.6-1.5,2.4c1,0.3,2.1,0.8,3.1,0.7c2.6-0.2,5.2-1.2,7.8-1c6.4,0.5,12.7,1.7,19,2.1c6.2,0.4,12.4,0.1,18.6,0.1
		c2.3,0,4.5,0,6.8,0c1.4,0,2.9,0,4.3,0c3,0,5.9,0,8.9,0c1,0,2.1,0.1,3.1,0.2c-0.6,1.4-1,3.2-2,4.2c-2.5,2.7-7.9,0.6-9.4,5.3
		c-1.5-0.6-3.5,2.8-4.6-0.7c-0.2-0.7-1.9-1.2-2.9-1.1c-2.3,0.1-4.6,0.8-6.9,1.1c-5.9,0.8-11.9,1.4-17.8,2.2
		c-0.6,0.1-1.1,0.7-1.6,1.1c0.5,0.4,1,0.9,1.6,1.1c3.8,1.1,7.7,2.5,11.6,3.2c4,0.7,8.3,1.7,12.1,1c7.6-1.5,15-4.1,22.5-6.1
		c2.1-0.6,4.5-1.6,6.4-1.1c4.4,1.3,8.5,3.4,12.8,5.2c1,0.4,2,0.7,3,1c0.4-1.7,0.9-3.4,1.2-5.1c0.1-0.7-0.2-1.4-0.3-2.2
		c0.8,0,1.9-0.2,2.5,0.1c2.2,1.2,4.3,2.7,6.4,4.1c0.4,0.3,1,0.4,1.5,0.6c0.1-0.6,0.4-1.3,0.1-1.8c-0.4-0.9-1.4-1.5-1.7-2.4
		c-0.7-1.8-1.1-3.7-1.6-5.5c1.2-0.3,2.5-0.5,3.7-1c1-0.5,1.9-1.3,2.9-1.9c-0.7-0.4-1.5-0.8-2.1-1.4c-1.1-0.9-2-2-3-2.9
		c1.3-0.1,2.9-0.7,4-0.2c6.3,2.6,11.7-0.6,17.4-2.1c1.8-0.5,3.7-0.5,5.5-0.8c-0.8,1.3-1.9,2.5-2.4,3.9c-0.5,1.3-0.5,2.9-0.7,4.3
		c0,0.2,0.8,0.4,1.3,0.6c3.8,1,7.6,2,11.4,3.1c0.1,0,0.1,0.6,0,0.9c-1.4,3.7-1.1,5.9,3.7,4.4c0.7-0.2,1.7-0.3,2.2,0.1
		c2.9,1.7,4.4,0.9,4.7-2.4c0-0.1,1.5-0.4,2.2-0.2c6,1.5,12,3.3,18,4.7c4.4,1,8.9,1.5,13.4,2.3c1,0.2,2.1,1.1,3,0.9
		c5.3-0.9,10.7-3.1,16-2.7c5,0.3,7-2.6,9.7-5.2c0.4-0.4,0.3-2.4-0.1-2.6c-2.8-1.4-5.7-2.9-8.7-3.5c-4.5-0.8-9.1-0.6-13.6-1.4
		c-1.7-0.3-3.2-2-4.8-3c1.3-0.5,2.6-0.8,3.8-1.4c0.8-0.4,1.3-1.2,2-1.7c0.6-0.4,1.4-0.8,2.1-0.8c3.1,0,6.2,0,9.3,0.3
		c1.3,0.1,2.7,1.3,3.9,1.2c2.8-0.4,5.5-1.3,8.2-1.9c1.9-0.4,4.5,0.2,5.8-0.8c2.7-2,5.2-0.8,6.9,0.4c3.4,2.7,6-0.3,8.9-0.7
		c0.4,0,1-1.4,0.8-1.8C305.6,277.7,304.5,275.8,303,274.5z M294.5,249c0.2,0.4,0.5,0.8,0.9,1.3c-0.5,0.3-0.9,0.8-1.2,0.7
		c-0.3-0.1-0.8-0.7-0.7-1C293.6,249.6,294.1,249.3,294.5,249z M84.1,260.1c-0.3-0.1-0.4-0.7-0.6-1c0.4-0.1,0.8-0.4,1.2-0.4
		c0.3,0,0.5,0.5,1.2,1.2C84.9,260.1,84.4,260.3,84.1,260.1z M124.3,252.5c-0.4,0-0.8-0.3-1.2-0.5c0.3-0.4,0.6-0.9,1-1.1
		c0.3-0.1,0.8,0.3,1.6,0.6C125,252.1,124.6,252.5,124.3,252.5z M197.7,277.2c-5.9,3.5-12.1,6.5-19.3,6c-0.8,0-1.5,0.1-2.3,0
		c-1.1-0.1-2.3-0.4-3.4-0.6c1.2-0.9,2.4-2.1,3.7-2.8c1.7-0.9,3.6-1.2,5.2-2.2c0.6-0.3,0.6-2,0.4-3c-0.2-0.9-1.5-2.3-1.4-2.4
		c1.5-1.3,3.4-3.5,4.8-3.3c3.9,0.5,7.8,1.9,11.6,3.1C199.4,273,199.9,275.9,197.7,277.2z"/>
	<path fill="#FFFFFF" d="M274.5,371c-2.7-3.6-3.1-10-9.6-10.4c-0.6,0-0.6-3.3-1.6-4.5c-3.6-4.3-7.2-8.7-11.3-12.4
		c-4.2-3.8-8.9-7.1-13.6-10.3c-2.8-1.9-6-3.5-9.2-4.7c-1.3-0.4-3.1,0.7-4.7,1.2c0.8,1,1.5,2,2.3,3.1c3.4,4.8,8.7,8.7,6.3,15.9
		c-0.7,2.1,0.3,3.2,2.9,2.7c1.5-0.3,3.7-0.1,4.7,0.8c2.8,2.6,7.3,4.2,6.8,9.3c0,0.5,0.7,1,1,1.5c3.6,6,8.6,11.1,10.2,18.4
		c1,4.2-0.9,4.7-3.6,5.3c-5.4,1.3-11.7-1.1-16.3,3.7c-0.1,0.1-0.9-0.8-1.5-1c-1.1-0.4-2.2-1-3.3-0.9c-5.3,0.7-10.6,1.8-16,2.5
		c-7,0.9-13.9,1.4-20.9,2.1c-3.2,0.3-6.4,1.4-9.5,1c-5.2-0.6-10.3-2.1-15.4-3.1c-1.4-0.3-2.7-0.5-4.1-0.6c-4.6-0.2-9.2-0.5-13.7-0.3
		c-5.9,0.2-12.1,0-17.7,1.4c-5.2,1.3-10.3,1.3-14.1-2.6c-3-3.1-6.1-5.1-10.6-3.5c-0.2,0.1-1.7-1.7-1.5-2.1
		c2.8-5.9,5.7-11.7,8.6-17.6c0.7-1.4,0.6-3.3,1.6-4.3c2.8-2.8,5.7-5.7,9-7.7c1.8-1.2,4.6-1,7-1c0.9,0,1.9,1.2,2.7,2
		c0.6,0.6,0.9,1.5,1.3,2.2c0.4-0.9,1-1.8,1-2.8c0.2-7.9,1.1-15.4,7.1-21.4c0.4-0.4,0.5-1.1,0.5-1.6c0-0.2-0.8-0.7-1.2-0.6
		c-4.4,1.3-9.4,1.7-12.2,6.2c-0.7,1.1-1.4,2.4-2.3,3.3c-5.9,5.7-12.6,10.8-17.7,17.2c-3.3,4.2-5.5,9.1-10.6,11.5
		c-0.5,0.2-1,1.9-0.8,2.1c3.4,3.1,1.2,6.4-0.2,8.8c-4.2,7.4-0.2,14.1,2.1,20.4c1.8,5.1,4.9,9.6,4.7,15.5c-0.1,2.7,1.5,5.9,3.3,8.1
		c2.9,3.9,6.5,7.3,9.9,10.8c1.1,1.1,2.6,2,3.9,2.9c-0.5-1.5-0.9-3.1-1.5-4.6c-0.1-0.3-0.7-0.5-0.8-0.8c-0.8-2.6-1.8-5.1-2.1-7.7
		c-0.2-1.5,1-3.1,1.5-4.7c0.3-1,0.6-2,0.8-3c0.9,0.6,2,1,2.7,1.8c3.1,3.4,6.1,6.9,9.2,10.3c0.6,0.6,1,1.4,1.6,2
		c6.1,7.3,11.1,15.7,20.4,19.9c1.1,0.5,1.9,2,2.8,3c-0.9,0.6-1.9,1-2.7,1.7c-0.7,0.5-1.2,1.2-1.7,1.9c-0.1,0.2,0.3,0.9,0.7,1.1
		c3.3,1.9,6.4,4.6,9.9,5.4c8.2,1.7,16.6,2.5,25,3.3c2.3,0.2,5.5,0,7.1-1.4c3.3-3.1,7.2-3.3,11.2-4c5.4-0.8,5.9-1.8,5.1-7.7
		c-0.1-0.6,0.7-1.6,1.4-2.1c2.9-2.1,5.9-3.9,8.8-6c0.5-0.3,0.8-1.1,0.9-1.8c0-0.3-0.8-1-1-0.9c-3.1,1-6.1,2.1-9.2,3.2
		c-1.8,0.6-3.5,1.8-5.3,1.9c-5.4,0.3-10.8,0.1-16.2,0.1c-4.7,0-9.4,0.3-14.1-0.1c-3.1-0.2-6.3-2.2-9.2-1.9c-4.4,0.4-5.5-1.5-6.1-5.1
		c-0.1-0.7-1.8-1.8-2.1-1.6c-4.3,2.5-6-2.3-9.1-3.1c-0.2-0.1-0.4-0.6-0.6-0.9c0.4-0.2,0.8-0.6,1.1-0.6c1.2,0,2.6-0.1,3.7,0.3
		c3.1,1.1,5.9,2.7,9.5,1c1.4-0.7,3.9,0.7,5.9,1.1c0.5,0.1,1,0.3,1.6,0.3c1.5-0.1,2.9-0.4,4.4-0.5c2.6-0.1,5.3,0.4,7.7-0.2
		c2.1-0.5,4.1-2,5.9-3.4c0.3-0.2-0.9-2.3-1.5-3.5c-0.1-0.2-1.9,0.3-1.9,0.6c-0.1,3.2-2.2,3.1-4.6,3.2c-2.9,0.2-3.9-1.4-4.7-3.6
		c-0.7-1.9-1.6-2.2-3.2-0.5c-2.5,2.5-4.9,3.4-7.5-0.4c-1.4-2.2-3.6-5.2-6.5-1.1c-0.2,0.3-2.2-0.1-2.3-0.5c-0.7-1.9-1-4-1.4-6
		c-0.3-1.3-0.5-2.6-1-3.8c-0.7-1.9-1.5-3.7-2.3-5.5c-0.4-0.9-0.9-1.7-1.3-2.5c-0.7,0.5-1.4,0.9-2,1.4c-0.7,0.6-1.3,1.7-1.9,1.7
		c-2.3,0.1-5.4,0.6-6.6-0.6c-1.8-1.8-2-5.1-3.2-7.6c-2.1-4.3,2.5-5.5,3.5-8.3c2,0.9,4.2,1.6,5.9,2.9c1.2,0.9,1.5,2.8,2.5,4
		c0.5,0.6,2,1.1,2.4,0.8c3-2.2,5.5-1.6,7.9,0.9c1.8,1.9,3.7,2.8,5.6,0c1.6-2.2,3.7-3,6.2-1.4c2.3,1.5,4.6,3.2,6.9,4.7
		c0.5,0.3,1.2,0.9,1.5,0.7c2.1-1.2,4-2.6,6.1-3.8c2.7-1.6,5.4-3.4,8.4-4.3c1-0.3,2.6,2.4,4.2,3.3c2.2,1.2,4.3,1.9,6.2-1.1
		c1.5-2.3,4.1-5.2,7.4-2.7c3.8,2.8,5.6,1.5,7.2-2.1c0.4-0.9,1.3-1.6,2.1-2.1c1.6-1.2,3.3-2.5,3.8,1.1c0.1,0.8,1.2,2.1,1.8,2.1
		c0.9,0,1.6-1.2,2.6-1.6c1.3-0.6,2.6-0.8,4-1.2c0.1,2.7,0.5,5.5,0,8.1c-0.1,0.7-3.1,1-4.8,1.3c-0.7,0.1-1.5-0.2-2.3-0.3
		c0.2,0.7,0.2,1.8,0.8,2.2c4.5,3.7,2.5,8.3,2,12.7c-0.1,0.9-0.2,2.5,0.3,2.7c1,0.5,2.7,0.8,3.3,0.2c4.6-4,9.1-8.2,13.6-12.3
		c0.7-0.6,1.9-0.8,2.8-1.1c0.4-0.2,0.9-0.4,1.3-0.6c0.2-0.1,0.4-0.1,0.5-0.1c0.4-0.1,0.9-0.1,1.3-0.2l0,0c1,0.6,2,1.2,2.9,1.8
		c0.2-1.4,0.4-2.9,0.6-4.3c0.1-0.7,0.4-1.4,0.7-2.1c0.6,0.7,1.5,1.4,1.6,2.1c0.1,1.4-0.4,2.8-0.7,4.2c0.2,0.4,0.5,0.8,0.7,1.2
		c2.1,4.1-1.1,10.5,6.9,12.2c3.6,0.7,5.5,0.1,6.1-2.2c1-4.2,1.6-8.9,0.8-13.1c-0.8-4.3,0.4-7.5,1.8-11.1c1.2-3,3.6-6.5,2.9-9.1
		C280.7,382.8,278.3,376.2,274.5,371z M164.4,457.1c0.2,0.4,0.5,0.8,0.5,1c-0.1,0.2-0.5,0.4-0.7,0.6c-0.2-0.3-0.5-0.5-0.5-0.8
		C163.6,457.7,164,457.4,164.4,457.1z M153.9,414.9c0.9,1.1,1.6,1.9,2.2,2.8c0.1,0.1-1,1.2-1.1,1.1c-0.8-0.6-1.6-1.3-2.3-2.2
		C152.6,416.5,153.2,415.8,153.9,414.9z M263.7,381c-0.5-1.2-0.9-1.9-1-2.6c0-0.4,0.6-0.8,0.9-1.2c0.5,0.7,1.1,1.3,1.4,2.1
		C265.1,379.4,264.4,380,263.7,381z"/>
	<path fill="#FFFFFF" d="M145,360.9c-0.5-0.2-1.1-0.2-1.7-0.3c0.1,0.5,0.2,1.1,0.5,1.6c1.1,1.6,3.4,3.3,3.3,4.7
		c-0.3,4,1.1,6,4.7,6.9c0.4,0.1,0.5,0.9,0.8,1.4c0.7,1.3,1.3,2.9,2.3,4c0.8,0.9,2.5,0.9,3.1,1.8c5.1,7,13,7.8,20.9,9.5
		c1-0.4,2.4-0.7,3.6-1.3c6-2.8,11.7-6.5,18-8.4c9.1-2.8,15.7-9,22.9-14.5c0.5-0.4,0.7-1.2,1-1.9c-0.6-0.3-1.3-0.8-1.9-0.7
		c-2.3,0.3-4.7,0.4-6.9,1.1c-4.9,1.6-10,3-14.6,5.3c-7.7,3.9-15.7,5.3-23.7,2.9C166.2,369.6,155.7,365,145,360.9z"/>
	<path fill="#FFFFFF" d="M211.4,487.2c-1.4,2.2-6.5-1-5.9,4.1c-0.7,0-1.5,0.2-2.2,0.1c-1.5-0.2-3-0.6-4.5-0.8
		c-0.2,0-0.7,0.8-0.6,0.9c2,3.9-1.6,2.3-2.5,2.2c-4.3-0.4-8.6-1.1-12.9-1.7c-5.9-0.8-12.1,0.9-17.8-2.4c-1.9-1.1-4.5-0.8-6.8-1.2
		c0,0.5,0,1,0,1.5c6.9,5.1,14.3,9.3,22.8,10.5c6.2,0.8,12.7,0.4,19,0.1c2.4-0.1,4.7-1.5,7.2-2.1c2.4-0.5,4.9-0.7,7.3-1.2
		c0.3-0.1,0.6-1.9,0.5-1.9c-2.1-0.9-2.8-1.6,0-2.6c0.3-0.1,0.5-1.5,0.2-1.8C214,489.5,212.7,488.4,211.4,487.2z M208.1,493.6
		c-0.3-0.3-0.5-0.7-0.5-1.1c0-0.1,0.6-0.5,0.7-0.5c0.3,0.1,0.6,0.5,1.1,1C208.8,493.3,208.2,493.7,208.1,493.6z"/>
	<path fill="#FFFFFF" d="M359.7,151.7c-0.2-0.9-1.5-1.5-2.3-2.2c0,0.8,0,1.5,0,2.3c0,6,0,12-0.1,18c0,0.4-0.6,0.8-0.9,1.1
		c0.1,0.6,0.1,1.2,0.2,1.7h0c0.7-0.4,1.7-0.6,2.1-1.3c2.7-4.6,2.4-9.5,1.4-14.5C359.8,155.2,360.1,153.4,359.7,151.7z"/>
	<path fill="#FFFFFF" d="M73.3,255.2c3.1-1.6,6.2-3.4,9.2-5.1c0.8-0.5,1.5-1.2,3-2.6c-2.4-0.6-4.5-1.8-5.4-1.2
		c-3.1,2-5.7,4.7-8.5,7.2c-0.3,0.3-0.2,1.1-0.3,1.7C72,255.2,72.8,255.5,73.3,255.2z"/>
	<path fill="#FFFFFF" d="M63.1,278.7c-2.1-3.7-4.3-7.3-6.5-10.9l0,0v0c-0.3,0.3-0.6,0.6-0.9,0.9c2,3.7,4,7.5,6,11.2
		c0.4,0.7,1.1,1.3,1.7,1.9C63.3,280.8,63.5,279.6,63.1,278.7z"/>
	<path fill="#FFFFFF" d="M359.2,138.3c1.1,2.6,2.5,5.2,1,8.2c0.6-0.8,1.9-1.8,1.8-2.4c-1-3.3-2.3-6.4-3.4-9.7
		C357.7,135.9,358.7,137.1,359.2,138.3z"/>
	<path fill="#FFFFFF" d="M360.2,146.5L360.2,146.5c1.5-2.9,0.1-5.6-1-8.2c-0.5-1.3-1.5-2.4-0.7-3.8c-0.5,0.7-1.6,1.5-1.4,2
		C358,139.9,359.1,143.2,360.2,146.5z"/>
	<path fill="#FFFFFF" d="M158.1,488.4c-3.5-3.4-7-6.8-10.5-10.1c-0.2,0.4-0.4,0.9-0.6,1.3c3.7,3.4,7.4,6.8,11.1,10.2
		C157.7,489.4,157.7,488.9,158.1,488.4z"/>
	<path fill="#FFFFFF" d="M158.1,489.8c0-0.5,0-1,0-1.5C157.7,488.9,157.7,489.4,158.1,489.8z"/>
	<path fill="#FFFFFF" d="M56.6,267.8c-0.4-1.9-0.5-4-1.3-5.7c-0.5-1-2.1-1.5-3.2-2.3c0.3,1.1,0.4,2.4,0.8,3.4
		c0.8,1.9,1.9,3.6,2.8,5.4C55.6,268.1,55.9,267.8,56.6,267.8z"/>
	<path fill="#FFFFFF" d="M56.6,267.8c-0.6,0-0.9,0.2-0.9,0.9C56,268.4,56.3,268.1,56.6,267.8L56.6,267.8z"/>
	<path fill="#FFFFFF" d="M186.2,294.9L186.2,294.9C186.2,294.9,186.3,294.8,186.2,294.9C186.3,294.8,186.2,294.8,186.2,294.9
		C186.2,294.8,186.2,294.9,186.2,294.9L186.2,294.9z"/>
	<path fill="#FFFFFF" d="M193.3,292.2c-0.6-0.4-1.4-1.3-1.7-1.1c-1.8,1.2-3.6,2.5-5.3,3.8c2-0.5,4-0.9,6-1.5
		C192.7,293.2,193,292.6,193.3,292.2z"/>
	<path fill="#FFFFFF" d="M192.9,145c-0.6-0.3-1.2-0.5-1.8-0.8C191.5,145,192.1,145.1,192.9,145z"/>
	<path fill="#FFFFFF" d="M165.9,420.1c0.7,1.2,1.8,2.2,3,3c0.3,0.2,1.4-0.7,2.1-1c0.1-0.6,0.2-1.1,0.3-1.7c-1.3-0.8-2.5-1.7-3.9-2.3
		C167.1,417.9,165.7,419.8,165.9,420.1z"/>
	<polygon fill="#FFFFFF" points="55.2,43.6 55.2,43.6 55.2,43.6 	"/>
	<path fill="#FFFFFF" d="M224.3,489.7c-1.2,0.8-2.2,1.7-3.3,2.6c0.5,0.2,1.1,0.7,1.4,0.6c1.2-0.6,2.3-1.3,4.3-2.5
		C225.2,489.9,224.6,489.5,224.3,489.7z"/>
	<path fill="#FFFFFF" d="M244.8,215.5c-1.3-0.9-1.9-1.4-2.4-1.8c-0.6,1-1.3,2-1.8,3.1c-0.1,0.2,0.8,1,0.9,1
		C242.6,217.2,243.6,216.4,244.8,215.5z"/>
	<path fill="#FFFFFF" d="M336.8,268c0.3,0.8,1,1.5,1.8,2.5c0.7-0.8,1.5-1.5,1.4-1.7c-0.4-0.8-1.1-1.4-1.7-2.2
		C337.7,267.1,336.7,267.8,336.8,268z"/>
	<path fill="#FFFFFF" d="M244.1,219.9c-0.6,0.9-1.3,1.7-1.9,2.6c0.5,0.3,1.3,1,1.4,0.9c0.7-0.8,1.3-1.6,1.8-2.5
		c0.2-0.3,0.3-0.7,0.4-1C245.2,220.4,244.6,220.4,244.1,219.9z"/>
	<path fill="#FFFFFF" d="M244.1,219.9c0.6,0.5,1.2,0.6,1.8,0.1l0,0C245.2,219.9,244.7,219.9,244.1,219.9z"/>
	<path fill="#FFFFFF" d="M209,417.7c-0.9,0.7-1.7,1.5-2.6,2.3c0.3,0.3,0.7,0.9,0.9,0.9c1-0.5,2-1.1,3.4-2
		C209.9,418.3,209.1,417.6,209,417.7z"/>
	<path fill="#FFFFFF" d="M186.2,294.8C186.1,294.9,186.1,294.9,186.2,294.8C186.1,294.9,186.2,294.9,186.2,294.8
		C186.2,294.9,186.2,294.8,186.2,294.8z"/>
	<path fill="#FFFFFF" d="M182.6,295.4c0.3,0.6,0.6,1.2,0.9,1.8c0.9-0.8,1.8-1.5,2.7-2.3C184.9,295.1,183.7,295.2,182.6,295.4z"/>
	<polygon fill="#FFFFFF" points="186.2,294.9 186.2,294.8 186.2,294.9 	"/>
	<path fill="#FFFFFF" d="M355.6,140C355.6,140,355.6,140,355.6,140c-0.5,0.3-1,0.4-1.6,0.3c0,0,0,0-0.1,0c0,0.6,0,1.2-0.1,1.8
		c0,0,0,0,0,0v0l0,0l0,0c0,0,0,0.1,0,0.1c0.5,0.7,1,1.3,1.6,2c0.2,0.1,0.4,0.2,0.7,0.3c0.3,0,0.6,0,1-0.1
		C356.7,142.9,355.4,141.7,355.6,140z"/>
	<path fill="#FFFFFF" d="M354,140.3c0.6,0.1,1.1,0,1.6-0.3c0,0,0,0,0,0c0-0.1,0-0.1,0-0.2c-0.5,0-1.1,0-1.6,0l0,0
		C354,140,354,140.1,354,140.3C354,140.3,354,140.3,354,140.3z"/>
	<path fill="#FFFFFF" d="M357.1,144.3c0.3,0,0.5,0,0.8,0c-0.7-1.5-1.5-2.9-2.2-4.4c0,0,0,0.1-0.1,0.1
		C355.4,141.7,356.7,142.9,357.1,144.3z"/>
	<path fill="#FFFFFF" d="M355.7,139.9C355.6,139.9,355.6,139.8,355.7,139.9C355.6,139.9,355.6,139.9,355.7,139.9
		C355.6,140,355.6,139.9,355.7,139.9z"/>
	<path fill="#FFFFFF" d="M174.1,125.5L174.1,125.5L174.1,125.5C174.1,125.5,174.1,125.5,174.1,125.5
		C174,125.5,174,125.5,174.1,125.5L174.1,125.5z"/>
	<polygon fill="#FFFFFF" points="20.6,175.7 20.3,175.5 20.5,175.8 20.6,175.7 	"/>
	<rect x="315.3" y="77.9" fill="#FFFFFF" width="0" height="0"/>
	<path fill="#FFFFFF" d="M358.5,133c0.8-2.6,0-4.2-2.9-4.5C357.2,129.6,357.6,131.5,358.5,133z"/>
	<path fill="#FFFFFF" d="M355.6,128.6c1,1.5,1.9,3,2.9,4.5C357.6,131.5,357.2,129.6,355.6,128.6z"/>
	<path fill="#FFFFFF" d="M205,430.1c-0.6,0.3-1,1.2-1.5,1.8c0.6,0.4,1.2,1.1,1.8,1.1c0.7,0,1.4-0.5,2.5-1
		C206.1,430.8,205.3,429.9,205,430.1z"/>
	<path fill="#FFFFFF" d="M156.6,455.3c-0.7-0.6-1.1-1.2-1.5-1.2c-0.5,0-0.9,0.6-1.4,0.9c0.4,0.5,0.8,1.2,1.3,1.4
		C155.2,456.5,155.8,455.8,156.6,455.3z"/>
	<rect x="18.3" y="167.1" fill="#FFFFFF" width="0" height="0"/>
	<path fill="#FFFFFF" d="M18.3,167.1C18.3,167.1,18.3,167.1,18.3,167.1C18.3,167.1,18.3,167.1,18.3,167.1
		C18.3,167.1,18.3,167.1,18.3,167.1z"/>
	<path fill="#FFFFFF" d="M18.3,167.1L18.3,167.1C18.3,167.1,18.3,167,18.3,167.1C18.3,167,18.3,167,18.3,167.1
		C18.3,167,18.3,167,18.3,167.1L18.3,167.1z"/>
	<path fill="#FFFFFF" d="M18.3,167.1C18.3,167.1,18.3,167.1,18.3,167.1C18.3,167,18.3,167.1,18.3,167.1
		C18.3,167.1,18.3,167.1,18.3,167.1z"/>
	<path fill="#FFFFFF" d="M18.3,167.1C18.3,167,18.3,167,18.3,167.1C18.2,167,18.2,167,18.3,167.1C18.2,167,18.2,167,18.3,167.1z"/>
	<polygon fill="#FFFFFF" points="44.8,227.7 44.9,227.7 44.9,227.7 	"/>
	<path fill="#FFFFFF" d="M51.3,256.4c-0.3-0.1-0.7,0.5-1.1,0.8c0.3,0.3,0.5,0.7,0.9,1.2c0.5-0.4,0.9-0.6,1.3-0.9
		C52.1,257.1,51.8,256.5,51.3,256.4z"/>
	<path fill="#FFFFFF" d="M352.8,123.4c0.1,0.7,0.1,1.4,0.2,2.1c0.1,0.2,0.3,0.3,0.4,0.5c0,0,0.1,0,0.1,0.1c0.1-0.1,0.5-0.1,0.5-0.2
		c0,0,0,0,0,0c0,0,0.9,0,1.4,0c-0.7-1-1.4-2-2-3c-0.1,0.1-0.2,0.2-0.4,0.2C353,123.3,352.9,123.4,352.8,123.4z"/>
	<path fill="#FFFFFF" d="M353.4,126.1c-0.1-0.2-0.2-0.4-0.4-0.5c0,0.2,0,0.5,0.1,0.7l0,0h0C353.2,126.2,353.3,126.2,353.4,126.1
		C353.4,126.1,353.4,126.1,353.4,126.1z"/>
	<path fill="#FFFFFF" d="M362,151.7c-0.4,0-0.7,0.4-1.1,0.6c0.4,0.3,0.7,0.8,1.2,0.9c0.3,0.1,0.7-0.4,1.4-0.9
		C362.7,152,362.4,151.6,362,151.7z"/>
	<path fill="#FFFFFF" d="M256.6,410.2c-0.5,0.2-1.1,0.3-1.7,0.2c0.3,0.6,0.7,1.3,1,1.9c0.5-0.4,1.1-0.7,1.6-1.1v0
		C257.3,410.8,256.9,410.5,256.6,410.2C256.6,410.2,256.6,410.2,256.6,410.2z"/>
	<path fill="#FFFFFF" d="M256.2,409.7c0.2,0,0.4-0.1,0.5-0.1C256.6,409.6,256.5,409.6,256.2,409.7z"/>
	<path fill="#FFFFFF" d="M256.6,410.2C256.6,410.2,256.6,410.2,256.6,410.2c-0.1-0.2-0.2-0.3-0.4-0.5c-0.4,0.2-0.9,0.4-1.3,0.6
		C255.5,410.5,256.1,410.4,256.6,410.2z"/>
	<path fill="#FFFFFF" d="M102.2,19.7C102.2,19.7,102.2,19.7,102.2,19.7C102.2,19.7,102.2,19.7,102.2,19.7
		C102.2,19.7,102.2,19.7,102.2,19.7C102.2,19.7,102.2,19.7,102.2,19.7L102.2,19.7C102.2,19.7,102.2,19.7,102.2,19.7z"/>
	<path fill="#FFFFFF" d="M102.2,19.7c-0.3,0.1-0.5,0.3-0.8,0.4C101.6,20,101.9,19.9,102.2,19.7C102.2,19.7,102.2,19.7,102.2,19.7
		C102.2,19.7,102.2,19.7,102.2,19.7z"/>
	<path fill="#FFFFFF" d="M150.4,455c-0.3,0-0.6,0.6-0.9,0.9c0.3,0.3,0.7,0.6,1.2,1.1c0.4-0.6,0.6-1,0.9-1.3
		C151.1,455.5,150.7,455,150.4,455z"/>
	<path fill="#FFFFFF" d="M356.2,144.4c0.8,0.6,1.6,1.1,2.3,1.7c0,0,0,0,0,0c-0.3-0.5-0.9-0.9-1.2-1.4
		C356.9,144.7,356.6,144.7,356.2,144.4z"/>
	<path fill="#FFFFFF" d="M357.3,144.6c0.3,0.5,0.9,0.9,1.2,1.4c-0.2-0.6-0.4-1.2-0.6-1.8C357.7,144.5,357.5,144.6,357.3,144.6z"/>
	<path fill="#FFFFFF" d="M357.3,144.6c0,0-0.1-0.1-0.1-0.1c0-0.1,0-0.1-0.1-0.2c-0.3,0-0.6,0-1,0.1
		C356.6,144.7,356.9,144.7,357.3,144.6z"/>
	<path fill="#FFFFFF" d="M357.2,144.5c0,0,0.1,0.1,0.1,0.1c0.2-0.1,0.4-0.2,0.6-0.4c-0.3,0-0.5,0-0.8,0
		C357.2,144.4,357.2,144.4,357.2,144.5z"/>
	<path fill="#FFFFFF" d="M146,476.8v-0.2l0,0c0,0.2-0.5,0.4-0.8,0.4c0,0-0.2,0-0.2,0v0.4c1,0.7,1.3,1.5,1.8,2.2c0-0.5,0.2-1,0.6-1.3
		C146.9,477.8,147,477.3,146,476.8z"/>
	<path fill="#FFFFFF" d="M147,479.6c0.2-0.4,0.4-0.9,0.6-1.3C147.2,478.6,147,479.1,147,479.6z"/>
	<path fill="#FFFFFF" d="M338.8,106.6C338.8,106.6,338.8,106.6,338.8,106.6L338.8,106.6C338.8,106.6,338.8,106.6,338.8,106.6
		L338.8,106.6z"/>
	<path fill="#FFFFFF" d="M338.8,106.6L338.8,106.6C338.8,106.6,338.8,106.6,338.8,106.6L338.8,106.6
		C338.8,106.6,338.8,106.6,338.8,106.6z"/>
	<path fill="#FFFFFF" d="M338.8,106.6L338.8,106.6C338.8,106.6,338.8,106.6,338.8,106.6C338.8,106.6,338.8,106.6,338.8,106.6
		L338.8,106.6z"/>
	<path fill="#FFFFFF" d="M338.8,106.6C338.8,106.6,338.8,106.6,338.8,106.6C338.8,106.6,338.8,106.6,338.8,106.6
		C338.8,106.6,338.8,106.6,338.8,106.6z"/>
	<path fill="#FFFFFF" d="M338.8,106.6C338.8,106.6,338.8,106.6,338.8,106.6L338.8,106.6C338.8,106.6,338.8,106.6,338.8,106.6z"/>
	<path fill="#FFFFFF" d="M66.7,37.1C66.7,37.1,66.7,37.1,66.7,37.1C66.7,37.1,66.7,37.1,66.7,37.1C66.7,37.1,66.7,37.1,66.7,37.1z"
		/>
	<path fill="#FFFFFF" d="M66.2,38.2c-0.1,0.1-0.1,0.3-0.2,0.4C66,38.5,66.1,38.3,66.2,38.2z"/>
	<path fill="#FFFFFF" d="M145.5,476c-0.5-0.5-1.1-1-1.6-1.5c-0.3,0.2-0.5,0.5-0.8,0.7c0.6,0.6,1.1,0.8,1.7,1.8h0.1v-0.1
		C145,476.6,145.3,476.3,145.5,476z"/>
	<path fill="#FFFFFF" d="M109.8,17.6c0.3-0.3,0.5-0.5,0.8-0.8c-0.2-0.1-0.3-0.3-0.5-0.4C110.1,16.8,110,17.2,109.8,17.6
		C109.9,17.5,109.9,17.5,109.8,17.6z"/>
	<path fill="#FFFFFF" d="M109.8,17.6C109.8,17.6,109.8,17.6,109.8,17.6C109.8,17.6,109.8,17.6,109.8,17.6
		C109.8,17.6,109.8,17.6,109.8,17.6C109.8,17.6,109.8,17.6,109.8,17.6z"/>
	<path fill="#FFFFFF" d="M109.8,17.6C109.9,17.5,109.9,17.5,109.8,17.6C109.8,17.6,109.8,17.6,109.8,17.6
		C109.8,17.6,109.8,17.6,109.8,17.6z"/>
	<path fill="#FFFFFF" d="M109.8,17.6C109.8,17.6,109.8,17.6,109.8,17.6C109.8,17.6,109.8,17.6,109.8,17.6
		C109.8,17.6,109.8,17.6,109.8,17.6z"/>
	<polygon fill="#FFFFFF" points="269.3,24.1 269.3,24.1 269.3,24.1 	"/>
	<path fill="#FFFFFF" d="M59,42.3c0,0,0.1,0,0.1,0L59,42.3C59,42.2,59,42.2,59,42.3z"/>
	<path fill="#FFFFFF" d="M59.1,42.3C59.1,42.2,59.1,42.2,59.1,42.3C59.1,42.2,59.1,42.2,59.1,42.3C59.1,42.2,59.1,42.2,59.1,42.3z"
		/>
	<path fill="#FFFFFF" d="M59,42.2L59,42.2C59.1,42.2,59.1,42.2,59,42.2C59.1,42.2,59.1,42.2,59,42.2z"/>
	<path fill="#FFFFFF" d="M59,42.3C59,42.3,59,42.3,59,42.3C59,42.2,59,42.2,59,42.3C59,42.2,59,42.2,59,42.3z"/>
	<polygon fill="#FFFFFF" points="353.9,126 353.9,126 353.9,126 	"/>
	<path fill="#FFFFFF" d="M143.9,474.6c-0.2-0.2-0.5-0.3-0.7-0.5c0,0.3,0,0.7-0.1,1C143.4,474.8,143.6,474.6,143.9,474.6z"/>
	<path fill="#FFFFFF" d="M143.2,475.1c0.3-0.2,0.5-0.4,0.8-0.5C143.6,474.6,143.4,474.8,143.2,475.1z"/>
	<path fill="#FFFFFF" d="M146.3,476.8c-0.3-0.2-0.5-0.5-0.8-0.7c-0.1,0.3-0.3,0.6-0.6,0.7c0.2,0.2,0.4,0.4,0.6,0.6
		C145.7,477.1,145.9,476.9,146.3,476.8z"/>
	<path fill="#FFFFFF" d="M146.3,476.8L146.3,476.8c-0.3,0.1-0.6,0.3-0.8,0.6c0,0,0,0,0,0C145.7,477.2,146,477,146.3,476.8z"/>
	<path fill="#FFFFFF" d="M145.5,476c-0.2,0.2-0.4,0.5-0.6,0.7c0,0,0,0,0,0C145.2,476.6,145.4,476.4,145.5,476z"/>
	<polygon fill="#FFFFFF" points="354,142.1 354,142.1 354,142.1 	"/>
	<polygon fill="#FFFFFF" points="353.1,144.2 353.1,144.2 353.1,144.2 353.1,144.2 	"/>
	<polygon fill="#FFFFFF" points="76.4,29.3 76.4,29.3 76.4,29.3 	"/>
	<path fill="#FFFFFF" d="M76.4,29.3C76.4,29.3,76.4,29.3,76.4,29.3C76.4,29.4,76.4,29.4,76.4,29.3C76.4,29.3,76.4,29.3,76.4,29.3z"
		/>
	<path fill="#FFFFFF" d="M76.6,29.6c0.1,0.1,0.2,0.2,0.3,0.3c-0.1-0.2-0.3-0.3-0.4-0.5c0,0,0,0,0,0C76.5,29.4,76.6,29.5,76.6,29.6z"
		/>
	<path fill="#FFFFFF" d="M76.4,29.3C76.4,29.3,76.4,29.3,76.4,29.3L76.4,29.3L76.4,29.3C76.4,29.3,76.4,29.3,76.4,29.3z"/>
	<path fill="#FFFFFF" d="M33.3,204.3C33.3,204.3,33.4,204.4,33.3,204.3c0.1,0,0.1,0,0.1,0l0.1-0.2L33.3,204.3z"/>
	<path fill="#FFFFFF" d="M102.3,19.6c0,0-0.1,0-0.1,0C102.1,19.6,102.2,19.7,102.3,19.6C102.2,19.7,102.2,19.6,102.3,19.6z"/>
	<path fill="#FFFFFF" d="M27,94.3L27,94.3c0.1,0.1,0.3,0.2,0.4,0.3C27.4,94.4,27.3,94.3,27,94.3z"/>
	<path fill="#FFFFFF" d="M315.3,77.9C315.3,77.9,315.3,77.9,315.3,77.9C315.3,77.9,315.3,77.9,315.3,77.9
		C315.3,77.9,315.3,77.9,315.3,77.9z"/>
	<polygon fill="#FFFFFF" points="65.9,38.6 65.9,38.6 65.9,38.6 	"/>
	<path fill="#FFFFFF" d="M66.8,37C66.8,37,66.8,37,66.8,37C66.7,37,66.7,37,66.8,37C66.7,37,66.7,37,66.8,37
		C66.7,37,66.7,37,66.8,37z"/>
	<path fill="#FFFFFF" d="M66.7,37C66.7,37,66.7,37,66.7,37C66.7,37,66.7,37,66.7,37C66.7,37,66.7,37,66.7,37z"/>
	<path fill="#FFFFFF" d="M66.2,37.2C66.2,37.2,66.2,37.2,66.2,37.2C66.2,37.2,66.2,37.2,66.2,37.2C66.2,37.2,66.2,37.2,66.2,37.2z"
		/>
	<rect x="269.2" y="24.1" fill="#FFFFFF" width="0" height="0"/>
	<path fill="#FFFFFF" d="M269.2,24.1C269.2,24.1,269.2,24.1,269.2,24.1c0,0,0.1,0,0.1,0C269.3,24.1,269.2,24.1,269.2,24.1
		C269.2,24.1,269.2,24.1,269.2,24.1L269.2,24.1z"/>
	<polygon fill="#FFFFFF" points="269.2,24.1 269.2,24.1 269.2,24.1 	"/>
	<path fill="#FFFFFF" d="M352.9,143c0.1-0.3,0.3-0.5,0.5-0.7C353.1,142.5,352.9,142.7,352.9,143z"/>
	<path fill="#FFFFFF" d="M353.7,142.2C353.7,142.2,353.7,142.2,353.7,142.2c-0.1,0-0.1,0-0.2,0C353.6,142.2,353.7,142.2,353.7,142.2
		z"/>
	<path fill="#FFFFFF" d="M353.9,142.1c-0.1,0-0.1,0.1-0.2,0.1c0,0,0,0,0,0C353.8,142.2,353.9,142.1,353.9,142.1
		C353.9,142.1,353.9,142.1,353.9,142.1C354,142.1,354,142.1,353.9,142.1C354,142.1,353.9,142.1,353.9,142.1
		C353.9,142.1,353.9,142.1,353.9,142.1z"/>
	<path fill="#FFFFFF" d="M354,142.1L354,142.1C354,142.1,353.9,142.1,354,142.1C353.9,142.1,353.9,142.1,354,142.1
		C353.9,142.1,354,142.1,354,142.1z"/>
	<path fill="#FFFFFF" d="M353.6,142.2c0,0-0.1,0-0.1,0.1c-0.3,0.2-0.4,0.4-0.5,0.7c0,0.3,0.1,0.6,0.3,0.9c0.2-0.5,0.4-1,0.6-1.6
		c0-0.1-0.1-0.1-0.1-0.2C353.7,142.2,353.6,142.2,353.6,142.2z"/>
	<path fill="#FFFFFF" d="M353.7,142.2c0,0.1,0.1,0.1,0.1,0.2c0-0.1,0.1-0.2,0.1-0.3c0,0,0,0,0,0
		C353.9,142.1,353.8,142.2,353.7,142.2z"/>
	<path fill="#FFFFFF" d="M352.8,143.5c0,0,0-0.1,0-0.1c0-0.1,0.1-0.2,0.1-0.4c0-0.3,0.2-0.5,0.5-0.7c0,0,0,0,0.1,0c0,0,0,0,0.1,0
		c0,0,0.1,0,0.2-0.1c0-0.1-0.1-0.1-0.1-0.2c-0.8-0.2-1.6-0.3-2.5-0.5C351.7,142.2,352.3,142.8,352.8,143.5z"/>
	<path fill="#FFFFFF" d="M353.9,142.1C353.9,142.1,354,142.1,353.9,142.1L353.9,142.1C354,142.1,353.9,142.1,353.9,142.1
		C353.9,142.1,353.9,142.1,353.9,142.1z"/>
	<path fill="#FFFFFF" d="M353.7,142.2c0.1,0,0.1-0.1,0.2-0.1c0,0,0,0,0,0c-0.1,0-0.2,0-0.3-0.1C353.7,142,353.7,142.1,353.7,142.2z"
		/>
	<path fill="#FFFFFF" d="M352.8,143.4c0,0,0,0.1,0,0.1c0.1,0.2,0.3,0.3,0.4,0.5c-0.2-0.4-0.3-0.7-0.3-0.9
		C352.9,143.1,352.8,143.3,352.8,143.4z"/>
	<path fill="#FFFFFF" d="M353.4,142.3c0,0,0.1,0,0.1-0.1C353.5,142.2,353.5,142.3,353.4,142.3C353.5,142.3,353.5,142.3,353.4,142.3z
		"/>
	<path fill="#FFFFFF" d="M186,273.3c-0.5,0.3-1,0.6-1.3,1c-0.1,0.1,0.2,0.6,0.4,0.9c0.5-0.3,1-0.6,1.6-1
		C186.3,273.7,186,273.3,186,273.3z"/>
	<path fill="#FFFFFF" d="M187.4,272.3c-0.2,0-0.3,0.2-0.5,0.2c0.1,0.1,0.2,0.2,0.2,0.2c0.2,0,0.3-0.1,0.5-0.2
		C187.5,272.4,187.4,272.2,187.4,272.3z"/>
</g>
<g>
</g>
<g>
</g>
<g>
</g>
<g>
</g>
<g>
</g>
<g>
</g>
</svg>
