<?xml version="1.0" standalone="no"?>
<!DOCTYPE svg PUBLIC "-//W3C//DTD SVG 20010904//EN"
 "http://www.w3.org/TR/2001/REC-SVG-20010904/DTD/svg10.dtd">
<svg version="1.0" xmlns="http://www.w3.org/2000/svg"
 width="1457.000000pt" height="1457.000000pt" viewBox="0 0 1457.000000 1457.000000"
 preserveAspectRatio="xMidYMid meet">
<metadata>
Created by potrace 1.11, written by Peter Selinger 2001-2013
</metadata>
<g transform="translate(0.000000,1457.000000) scale(0.100000,-0.100000)"
fill="#000000" stroke="none">
<path d="M3515 13323 c-81 -142 -194 -337 -250 -433 -56 -96 -147 -254 -202
-350 -124 -214 -812 -1406 -935 -1620 -87 -150 -169 -293 -346 -605 -47 -82
-102 -178 -124 -212 -21 -34 -38 -65 -38 -68 0 -2 -18 -34 -40 -70 -22 -36
-40 -67 -40 -70 0 -3 -18 -34 -40 -70 -22 -36 -41 -71 -43 -77 -1 -7 -9 -20
-17 -29 -8 -10 -28 -44 -45 -76 -16 -32 -33 -60 -36 -63 -3 -3 -19 -28 -35
-57 -16 -28 -53 -94 -83 -145 -29 -51 -67 -118 -84 -148 -16 -30 -38 -67 -49
-82 -10 -14 -18 -28 -18 -31 0 -3 -17 -34 -38 -68 -22 -35 -50 -84 -64 -109
-14 -25 -67 -116 -117 -203 -50 -87 -91 -161 -91 -164 0 -4 -6 -14 -14 -22 -7
-9 -24 -36 -37 -61 -13 -25 -29 -52 -35 -60 -10 -13 -52 -88 -88 -155 -6 -11
-21 -35 -34 -53 -13 -17 -21 -32 -18 -32 3 0 -9 -24 -27 -52 -19 -29 -37 -60
-41 -68 -4 -8 -12 -24 -19 -35 -7 -11 -49 -86 -95 -165 -46 -80 -88 -152 -92
-160 -92 -156 -140 -241 -140 -249 0 -5 -4 -11 -8 -13 -4 -1 -22 -29 -40 -61
l-32 -57 23 -43 c13 -23 91 -157 172 -297 81 -140 153 -265 160 -277 7 -13 16
-19 20 -15 5 4 5 2 1 -5 -4 -7 6 -32 20 -55 15 -24 42 -68 59 -98 197 -343
280 -486 284 -490 4 -3 12 -16 18 -30 7 -14 23 -43 36 -65 12 -22 49 -86 81
-142 32 -57 61 -103 65 -103 4 0 8 -6 8 -13 0 -7 26 -57 59 -112 32 -55 65
-112 74 -127 76 -136 134 -234 141 -236 5 -2 9 -8 9 -14 0 -9 25 -54 102 -186
16 -26 31 -55 34 -65 4 -9 10 -17 15 -17 5 0 9 -5 9 -10 0 -6 24 -51 53 -101
28 -50 63 -110 76 -134 13 -25 28 -42 34 -38 5 3 7 1 3 -5 -3 -6 24 -61 60
-124 36 -62 105 -180 152 -263 47 -82 270 -469 495 -860 225 -390 418 -723
427 -740 50 -88 699 -1212 739 -1280 26 -44 76 -131 111 -192 l64 -113 3613 0
3612 0 25 43 c13 23 74 128 135 234 61 105 111 196 111 202 0 5 4 11 8 13 5 2
42 61 83 133 41 71 79 137 84 146 6 9 23 41 38 70 16 30 34 61 42 69 7 8 16
25 19 38 4 12 12 22 17 22 5 0 9 9 9 19 0 11 4 21 8 23 10 4 132 213 132 227
0 6 4 11 9 11 5 0 11 8 14 18 3 9 20 40 36 67 17 28 39 66 48 85 10 19 21 37
24 40 3 3 12 17 20 32 12 22 74 132 114 200 168 289 242 418 253 437 7 13 28
50 47 81 19 32 35 63 35 69 0 6 5 11 10 11 6 0 10 4 10 9 0 8 121 223 158 281
9 14 17 27 17 30 0 3 12 23 26 45 14 22 32 52 40 67 8 15 45 80 83 145 37 65
80 138 94 163 13 25 44 78 68 117 24 40 44 74 44 77 0 3 101 176 120 206 6 8
13 22 17 30 4 8 60 106 125 218 65 112 118 207 118 212 0 6 5 10 10 10 6 0 10
4 10 10 0 5 27 55 59 110 33 55 58 100 55 100 -3 0 6 15 19 33 14 17 37 55 51
82 15 28 31 57 36 65 58 95 88 150 82 150 -4 0 -2 4 4 8 6 4 55 84 109 177
115 200 235 408 280 485 29 49 131 228 175 305 40 70 81 141 90 155 62 101
205 358 204 367 -1 7 1 11 5 9 6 -4 171 274 171 288 0 3 -812 6 -1804 6
l-1804 0 -20 -38 c-29 -55 -58 -106 -86 -151 -15 -22 -26 -43 -26 -47 0 -3 -8
-18 -19 -32 -10 -15 -32 -52 -48 -82 -16 -30 -36 -66 -45 -80 -9 -14 -26 -44
-39 -67 -13 -22 -47 -81 -75 -130 -28 -48 -73 -126 -100 -173 -27 -47 -54 -94
-61 -105 -7 -11 -16 -29 -22 -40 -5 -11 -21 -37 -35 -58 -14 -21 -26 -40 -26
-44 0 -3 -15 -31 -34 -62 -19 -31 -44 -74 -56 -96 -13 -22 -31 -53 -41 -70
-10 -16 -27 -46 -37 -65 -10 -19 -45 -79 -76 -132 -32 -54 -55 -102 -51 -108
4 -6 1 -9 -5 -8 -6 2 -26 -24 -43 -57 -18 -33 -35 -62 -38 -65 -3 -3 -21 -34
-40 -70 -19 -36 -37 -67 -40 -70 -3 -3 -17 -25 -31 -50 -14 -25 -42 -74 -63
-110 -48 -84 -70 -122 -87 -151 -7 -13 -18 -31 -25 -39 -6 -8 -13 -19 -14 -25
-2 -9 -11 -26 -56 -100 -80 -134 -178 -313 -176 -323 0 -7 -2 -11 -5 -8 -5 5
-56 -71 -57 -84 0 -3 -10 -19 -23 -37 -12 -17 -22 -34 -22 -38 0 -4 -9 -20
-21 -36 -11 -16 -17 -29 -12 -29 4 0 3 -4 -2 -8 -10 -6 -24 -28 -75 -117 -49
-85 -65 -110 -71 -115 -4 -3 -756 -5 -1671 -5 -1124 0 -1665 -3 -1670 -10 -5
-7 -8 -7 -8 0 0 7 -43 10 -117 9 -65 0 -123 1 -130 3 -13 5 -93 135 -93 152 0
6 -4 11 -9 11 -5 0 -11 8 -15 18 -3 9 -13 31 -23 47 -19 32 -69 116 -90 150
-6 11 -19 34 -27 50 -9 17 -20 37 -25 45 -6 8 -30 49 -54 90 -40 69 -58 100
-115 200 -101 178 -176 306 -183 310 -4 3 -11 18 -14 33 -4 15 -11 27 -16 27
-5 0 -9 4 -9 9 0 14 -90 165 -104 173 -6 4 -7 8 -3 8 5 0 0 15 -11 33 -11 17
-29 48 -40 67 -11 19 -40 70 -66 113 -25 43 -46 80 -46 83 0 3 -8 18 -19 32
-10 15 -29 47 -43 72 -14 25 -58 101 -98 170 -40 69 -86 150 -103 180 -16 30
-34 60 -38 66 -5 6 -21 33 -35 60 -14 27 -31 54 -37 59 -7 6 -13 15 -14 20 -1
6 -18 39 -38 75 -21 36 -46 81 -57 100 -11 19 -26 42 -34 51 -8 8 -14 19 -14
23 0 5 -60 112 -134 240 -74 127 -146 254 -161 281 -15 28 -32 56 -37 62 -7 9
0 29 23 65 17 29 32 59 32 66 0 6 4 12 9 12 5 0 16 15 24 33 30 62 39 77 46
77 5 0 8 8 8 19 0 10 6 24 14 30 8 7 22 26 31 44 9 18 29 55 46 82 16 28 34
59 39 70 6 11 16 29 22 40 18 28 51 83 80 135 14 25 48 85 77 134 28 49 51 93
51 97 0 5 3 9 8 9 4 0 12 10 18 23 5 12 45 83 89 157 43 74 89 155 103 180 13
25 28 50 32 55 4 6 19 31 34 58 59 106 80 144 101 177 12 19 33 55 47 80 24
44 38 67 102 178 17 29 38 65 46 80 18 32 127 220 140 242 9 15 163 281 190
329 8 14 28 47 43 74 15 26 25 52 21 59 -4 7 -3 8 4 4 7 -4 17 4 24 21 6 15
17 35 24 43 11 15 68 115 88 157 6 13 14 23 19 23 4 0 7 4 7 10 0 5 17 38 38
72 21 35 41 68 43 73 15 37 73 125 82 126 7 1 1625 3 3597 4 1972 2 3591 3
3597 4 9 1 7 11 -6 34 -24 41 -181 311 -202 346 -8 14 -32 55 -51 91 -57 104
-104 180 -109 175 -3 -2 -5 4 -6 14 -1 11 -32 70 -70 133 -37 62 -77 130 -87
150 -11 20 -24 34 -29 31 -6 -3 -7 -2 -4 4 7 11 2 21 -73 148 -29 50 -66 115
-83 145 -17 30 -33 57 -36 60 -4 3 -12 16 -19 30 -6 14 -16 32 -21 40 -12 19
-119 202 -149 255 -12 22 -30 55 -39 73 -9 17 -20 32 -25 32 -4 0 -8 8 -8 18
0 10 -4 22 -9 27 -9 9 -144 240 -209 355 -13 25 -28 50 -32 55 -4 6 -19 30
-32 55 -14 25 -42 74 -63 110 -21 36 -49 85 -63 110 -13 25 -28 50 -32 55 -4
6 -17 27 -29 48 -12 20 -30 53 -41 72 -11 19 -29 51 -40 69 -77 138 -146 252
-153 257 -5 3 -9 10 -9 15 1 5 -13 33 -29 62 l-30 52 -3613 0 -3612 0 -149
-257z"/>
</g>
</svg>
