<svg xmlns="http://www.w3.org/2000/svg" viewBox="0 0 1980 1080" style="enable-background:new 0 0 1980 1080" xml:space="preserve"><linearGradient id="a" gradientUnits="userSpaceOnUse" x1="990" y1="1080" x2="990" y2="0"><stop offset="0" style="stop-color:#d3bd98"/><stop offset=".051" style="stop-color:#baa58d"/><stop offset=".144" style="stop-color:#947f7b"/><stop offset=".243" style="stop-color:#735e6b"/><stop offset=".35" style="stop-color:#58445f"/><stop offset=".466" style="stop-color:#442f55"/><stop offset=".596" style="stop-color:#35214e"/><stop offset=".752" style="stop-color:#2d194a"/><stop offset="1" style="stop-color:#2a1649"/></linearGradient><path style="fill:url(#a);stroke:#000;stroke-miterlimit:10" d="M0 0h1980v1080H0z"/><radialGradient id="b" cx="717.109" cy="1558.341" r="432.039" gradientTransform="matrix(1 0 0 -1 1.02 2183.16)" gradientUnits="userSpaceOnUse"><stop offset="0" style="stop-color:#e0e0e0"/><stop offset="1" style="stop-color:#ccc;stop-opacity:0"/></radialGradient><circle cx="712" cy="627.8" r="431.2" style="opacity:.47;fill:url(#b)"/><path d="M988.6 409.4c-34.1-35.9-75.2-64.5-120.7-83.9-92.2-38.9-196.2-38.9-288.4 0-43.8 18.6-83.5 45.8-116.7 79.8-1.3 1.3-2.6 2.7-3.9 4.1-70.4 74-109.2 175.2-109.3 285.2 1.6 1.6 17.2 16.3 69.8 31.1 31.4 8.9 69.7 16 113.8 21.1 54.9 6.4 119 9.7 190.6 9.8 71.5-.1 135.7-3.4 190.5-9.8 44.1-5.1 82.4-12.2 113.8-21.1 52.5-14.8 68.2-29.5 69.8-31.1 0-109.9-38.9-211.2-109.3-285.2z" style="fill:#a896b5;enable-background:new"/><linearGradient id="c" gradientUnits="userSpaceOnUse" x1="1018.832" y1="1045.112" x2="1018.832" y2="489.37"><stop offset="0" style="stop-color:#2a184c"/><stop offset=".9" style="stop-color:#261850"/><stop offset="1" style="stop-color:#251851"/></linearGradient><path d="M91.5 718.9c8.9.3 8.5.5 12.7-5.1 6.4-8.8 12.2-13.2 26.2-8.9 11.9 3.6 24.1 2.2 35.4-2.3 4.9-2 10-3.7 14.5-6.1 10.5-5.6 22.5-8.2 35.1-8.9 8.2-.4 14.5-2.8 20.2-6.6 5.2-3.5 10.5-6.9 15.2-10.7 9.5-7.8 18.7-15.7 27.7-23.8 11.8-10.5 26.1-18.3 43.5-23.3 8.5-2.5 16.4-6 24.6-9.1 13.4-5.1 26.8-8.4 41.5-2.2 16.2 7 32.3 13.9 42.8 26 .9 1.1 2.8 2 4.4 2.5 18.7 5.5 37.8 5.6 57.3 2.6 6.9-1.1 13.8-2.8 20.9-.4 1.5.5 3.6.3 5.4.2 15.2-.7 30.4-1.4 45.5-2 .4 0 .7-.1 1.1-.1 19-2.2 36-7.9 51.6-16 1.1-.6 2.5-1.5 3.6-1.5 10.4.4 15.8-6 23.5-9.2 7.6-3.2 14.5-7.5 22.5-10.1 5.5-1.8 10.2-4 13.8-7.2 2.7-2.3 5.2-3.5 9.1-4.1 3.2-.5 6.2-2 9.1-3.2 2.7-1.2 5.2-4 7.6-3.9 4.7.3 6-1.8 7.9-3.8 1.2-1.3 2-2.9 3.7-3.8 12.2-6.5 21.4-15.2 30.5-23.7 4.6-4.3 9-8.3 15.2-11.3 3.5-1.7 6.5-3.7 9.9-5.5 11.9-6.2 22.5-13 28.5-23.2 1.2-2 4.8-3.7 7.8-4.6 10.2-3.2 20.2-6.6 31.1-8.6 14.6-2.7 28.6-7 42.9-10.3 4.3-1 9.3-1.8 13.6-1.3 2.6.3 4.6 3.5 6.9 5.4.5.4 1 .8 1.5 1.1 7.4 5 14.9 9.9 22.2 15.1 2.3 1.6 4.2 3.6 5.6 5.7 5 7.3 9.8 14.7 14.6 22.1 1.5 2.3 3.4 4 7.4 4.5 6.3.9 11.5 3.3 15.3 7.5 4.8 5.2 10.7 9.8 19.2 11.5 6.7 1.4 11 4.7 15.7 8 9.3 6.6 16 14.5 21.5 23.1 2 3.1 5.2 5.5 10.3 6.3 4.2.7 8.3 2.2 12.3 3.6s8 3 11.8 4.7c2.8 1.3 6.1 2.4 8 4.3 6.4 6.1 13.7 11.4 22.9 15.3 5.4 2.3 10.1 2.8 16 .5 6.6-2.6 13.8-4.3 20.9-6 7.3-1.8 13.7-3.9 16.3-9.8.7-1.6 2.4-3.6 4.3-4.2 5.5-1.7 11.4-2.8 17.2-4.1 5.4-1.2 10.7-1.6 15.2-5 8.6-6.5 18.7-11.5 31.3-4.4.5.3 1.4.2 2.1.3 9 .9 14.3-1.3 19.3-7.9 1.2-1.5 2.7-3.2 4.6-4.1 5.8-2.7 12.2-4.7 17.7-7.5 4-2.1 6.5-1.3 9.3.8 6.2 4.6 13.3 5.2 21.1 2.4 1.8-.6 3.4-1.5 5.1-2.3 4.9-2.2 9.5-5.2 14.8-6.2 4.5-.9 7.4-1.9 9.5-4.8 3.5-4.9 7.5-5.8 14.5-4.3 4.3.9 9.2 2.9 12.8 2.1 6-1.4 11.8-2.3 18-2.1 7 .2 15.1-1.1 20.6 1.1 5.9 2.3 11.1 2.6 16.8 2.2 2.6-.2 5.9-1.6 7.4-3.1 2.8-2.8 5-3.9 9.8-2.3 6 2.1 14.4.6 15.9-2.5 1.8-3.7 5.7-4.4 10.1-4.9 3.4-.4 6.8-.4 10.2-.7 4.8-.3 8.8.7 11.3 3.9 2.2 2.7 4.6 5.4 6.7 8.1 3.8 5 9.2 8.3 17.3 8.9 9.1.7 16.8 3.5 23.1 8.4 1.1.9 3.2 1.6 4.7 1.5 5-.4 8.6 1.3 12.2 3.4 5.4 3.1 10.7 6.3 16.4 9 2.9 1.4 6.4 2.5 9.7 2.8 7.8.6 15 2 21.7 5.3 4.6 2.3 9.9 3.7 14.9 5.5 3.7 1.4 7.6 2.7 11 4.4 9.6 4.7 16.4 12.9 30.2 12.4 2-.1 4.1 1.5 6.2 2.3 5.6 2.1 11.2 4.2 16.9 6.2 3.2 1.1 6.5 2.1 9.8 3.1 6.7 1.8 13.3 4.5 20.1 5.1 13.1 1.1 24.7 4.1 35.1 10 5.9 3.4 12.6 6.1 18.9 9.1 5.4 2.6 10.6 5.3 15.9 8 2.8 1.4 5.4 3.1 8.3 4.3 11.1 4.5 21.3 1.6 31.1-2.5 5.6-2.4 10.4-2 15.4.5 1.6.8 3 1.8 4.6 2.7 5.7 3.1 10.8 7.1 19.3 4.7 1.7-.5 4.1.5 6.2.8 3 .4 6 1 9 1 14-.2 28.1-.8 42.1-.8 8.6 0 16.3-1.4 23.8-4.3 6.7-2.6 12.3-1.1 15 4.1 1.8 3.4 3.8 3.8 8 1.8 1.6-.8 3.5-2.1 5.1-2 12.1.8 24.1 2 36.3 3v363.4H57.4V724.4c6.2-1.3 12-2.7 18-3.7 5.4-.8 10.8-2 16.1-1.8z" style="fill:url(#c)"/><linearGradient id="d" gradientUnits="userSpaceOnUse" x1="0" y1="813.425" x2="1980" y2="813.425"><stop offset="0" style="stop-color:#241744"/><stop offset=".089" style="stop-color:#231744"/><stop offset=".995" style="stop-color:#1d1444"/></linearGradient><path d="M1945.2 767.1c-9.2.3-8.8.5-13.1-4.9-6.6-8.4-12.5-12.6-27-8.5-12.2 3.5-24.8 2.1-36.4-2.3-5-1.9-10.3-3.6-15-5.8-10.9-5.4-23.2-7.9-36.2-8.5-8.4-.4-14.9-2.7-20.8-6.3-5.4-3.3-10.8-6.6-15.6-10.3-9.7-7.5-19.2-15.1-28.5-22.8-12.2-10.1-26.9-17.6-44.8-22.4-8.8-2.4-16.9-5.7-25.3-8.7-13.8-4.9-27.6-8.1-42.7-2.1-16.7 6.7-33.3 13.3-44 24.9-1 1-2.8 1.9-4.6 2.4-19.2 5.3-39 5.4-59 2.5-7.1-1-14.2-2.7-21.5-.3-1.5.5-3.7.3-5.5.2-15.6-.6-31.3-1.3-46.9-2-.4 0-.7-.1-1.1-.1-19.6-2.1-37.1-7.6-53.2-15.4-1.2-.6-2.5-1.5-3.7-1.4-10.8.4-16.3-5.7-24.2-8.8-7.8-3.1-15-7.2-23.1-9.6-5.6-1.7-10.5-3.9-14.2-6.9-2.7-2.2-5.4-3.3-9.4-3.9-3.3-.5-6.4-1.9-9.4-3.1-2.8-1.2-5.4-3.9-7.8-3.7-4.9.3-6.1-1.7-8.1-3.6-1.3-1.2-2.1-2.8-3.8-3.6-12.5-6.2-22-14.6-31.4-22.7-4.7-4.1-9.3-8-15.7-10.9-3.6-1.6-6.7-3.6-10.2-5.3-12.2-5.9-23.2-12.5-29.4-22.3-1.2-1.9-4.9-3.5-8-4.4-10.5-3.1-20.8-6.3-32-8.2-15-2.6-29.4-6.7-44.2-9.9-4.5-1-9.6-1.8-14-1.2-2.7.3-4.8 3.3-7.1 5.1-.5.4-1 .7-1.6 1.1-7.6 4.8-15.4 9.5-22.9 14.5-2.3 1.5-4.3 3.4-5.8 5.4-5.2 7-10.1 14.1-15.1 21.2-1.6 2.2-3.5 3.8-7.6 4.3-6.5.8-11.9 3.2-15.7 7.2-4.9 5-11 9.4-19.8 11.1-6.9 1.3-11.4 4.6-16.2 7.7-9.6 6.3-16.5 13.9-22.1 22.1-2.1 3-5.4 5.2-10.6 6.1-4.4.7-8.5 2.1-12.6 3.4-4.2 1.4-8.2 2.9-12.1 4.5-2.9 1.2-6.3 2.3-8.3 4.1-6.6 5.9-14.1 10.9-23.6 14.7-5.6 2.2-10.4 2.7-16.5.5-6.8-2.5-14.2-4.1-21.5-5.8-7.5-1.7-14.1-3.7-16.8-9.4-.7-1.5-2.5-3.4-4.5-4-5.7-1.6-11.8-2.7-17.7-4-5.5-1.1-11-1.5-15.7-4.8-8.9-6.3-19.2-11.1-32.3-4.2-.5.3-1.4.2-2.2.3-9.3.9-14.8-1.3-19.9-7.6-1.2-1.5-2.8-3.1-4.8-4-5.9-2.6-12.5-4.5-18.2-7.2-4.1-2-6.7-1.2-9.6.8-6.4 4.4-13.7 5-21.7 2.3-1.8-.6-3.5-1.5-5.2-2.2-5-2.1-9.8-5-15.2-5.9-4.6-.8-7.6-1.8-9.8-4.6-3.6-4.7-7.7-5.6-15-4.1-4.4.9-9.5 2.8-13.2 2-6.2-1.4-12.2-2.2-18.6-2.1-7.2.1-15.5-1-21.2 1.1-6 2.2-11.5 2.5-17.3 2.2-2.7-.1-6-1.5-7.6-3-2.8-2.7-5.2-3.7-10.1-2.2-6.2 2-14.8.6-16.4-2.4-1.8-3.6-5.9-4.2-10.4-4.7-3.5-.3-7-.4-10.5-.6-5-.3-9 .6-11.7 3.8-2.2 2.6-4.8 5.1-6.9 7.8-4 4.8-9.4 8-17.8 8.6-9.4.7-17.3 3.4-23.8 8.1-1.1.8-3.3 1.5-4.8 1.4-5.1-.4-8.8 1.3-12.6 3.3-5.5 3-11 6-16.9 8.7-2.9 1.3-6.6 2.4-10 2.6-8.1.6-15.5 1.9-22.4 5.1-4.7 2.2-10.2 3.5-15.4 5.3-3.8 1.3-7.8 2.6-11.4 4.2-9.9 4.5-16.9 12.4-31.1 11.9-2.1-.1-4.2 1.4-6.4 2.2-5.8 2-11.6 4-17.4 5.9-3.3 1.1-6.7 2.1-10.1 2.9-6.9 1.7-13.7 4.3-20.7 4.9-13.5 1-25.4 3.9-36.2 9.6-6.1 3.3-13 5.8-19.5 8.8-5.5 2.5-11 5.1-16.4 7.7-2.9 1.4-5.5 3-8.6 4.2-11.4 4.3-22 1.6-32-2.4-5.7-2.3-10.8-1.9-15.9.5-1.7.8-3.1 1.8-4.8 2.6-5.9 3-11.2 6.9-19.8 4.5-1.7-.5-4.2.5-6.4.7-3.1.4-6.2 1-9.2 1-14.4-.2-28.9-.7-43.3-.7-8.8 0-16.8-1.4-24.5-4.1-6.9-2.5-12.6-1-15.5 3.9-1.9 3.2-3.9 3.6-8.3 1.7-1.7-.7-3.6-2-5.2-1.9-12.5.8-24.9 1.9-37.4 2.9V1080h1980V772.5c-6.4-1.3-12.4-2.6-18.5-3.6-5.4-.9-10.9-2-16.3-1.8z" style="fill:url(#d)"/><linearGradient id="e" gradientUnits="userSpaceOnUse" x1="1063" y1="1080" x2="1063" y2="733.738"><stop offset="0" style="stop-color:#281b42"/><stop offset=".087" style="stop-color:#25183f"/><stop offset=".483" style="stop-color:#1b1037"/><stop offset="1" style="stop-color:#180e35"/></linearGradient><path d="M1770 903.1c-6 0-13 .1-19.5.1-1.1 0-2.5-.4-3.3-1.1-6-5.5-13.4-8.6-20.8-11.6-3.6-1.5-7.2-3.2-11-3.8-5.7-.9-11.5-.7-17.2-1.2-11-1-22-1.8-32.9-3.3-5.8-.8-11.3-3.2-17-4.4-13.6-3-27.3-5.7-40.9-8.5-9.8-2-19.6-4.3-29.5-5.7-8.3-1.2-16.3-3-23.8-7.1-4.8-2.6-10.1-4.1-15.2-6-1-.4-2.1-.6-3-1.1-2.2-1.2-4.2-2.8-6.5-3.9-5-2.6-10-5.1-15.2-7.3-2.5-1.1-5.2-1.9-7.9-2.2-4.6-.4-9.3-.2-14-.4-5.9-.3-11.6-1.2-16.5-5.2-6.8-5.7-15-6.9-23.5-6.9-13.4-.1-26.8-.3-40.1 0-9.3.2-17.8-2.2-26.3-5.9-5.8-2.5-12.1-3.9-18.1-5.9-3.9-1.3-8-2.3-11.6-4.3-7-3.8-13.8-8-20.4-12.4-3.5-2.3-6.8-4.5-11.4-4.2-1.5.1-3.1-1.3-4.7-1.9-1.2-.5-2.5-1.2-3.8-1.1-2.8.2-4.7-.8-6.3-3-1.2-1.7-2.9-3-4.1-4.7-2.2-3.1-4.9-4.2-8.6-2.9-2.8 1-4-.3-4.5-3-1.2-8-6-14.1-11.3-19.8-3.3-3.5-7.3-5.1-12.2-4.8-2.4.1-4.9-.9-7.2-1.7-5.9-1.9-11.8-3.8-17.7-5.8-2.2-.7-4.9-.8-6.3-2.2-4.3-4.2-9.3-4.7-14.9-4.5-3.8.2-7.6.2-11.3-.5-4.9-.9-9.6-1.7-13.8 1.8-1.8 1.5-3.7 2.9-5.3 4.5-8.1 8-16.2 16.1-24.2 24.3-1.8 1.9-3.1 2.2-5.2.4-3.7-3.4-8.1-5.3-13.3-5.4-5.1-.1-10.3-.2-15.4-.7-2-.2-4.2-1.1-5.7-2.4-2.1-1.8-3.6-4.3-5.5-6.7-3.4 3.1-5.9 5.1-8.1 7.3-2.3 2.4-4.9 3.2-8.2 3.2-9.6-.1-19.2-.2-28.7.1-8.7.3-17.2 2-24.9 6.4-9.7 5.6-20.1 8.5-31.6 7.9-10.5-.6-21.1-.2-31.7-.1-1.5 0-3.4.2-4.5 1.1-3.3 2.7-6.5 5.6-9.4 8.8-4.3 4.9-9.2 9-15.7 10.2-18.7 3.5-37.5 5.3-56.5 5.4-10.2.1-18.6 3.2-25.6 10.6-2.8 3-5.6 5.9-8.6 8.5-1.3 1.2-3.4 2-5.1 2.1-9.8.5-19.7 1.5-29.4.7-9.2-.7-15.5 2.9-21 9.4-.6.7-1.1 1.4-1.8 1.8-1.1.6-2.3 1.3-3.6 1.5-5.5.7-11 1-16.4 1.9-9.3 1.5-18.6 3.2-27.8 4.9-1.8.3-3.4 1.3-5.2 1.9-1.8.6-3.7 1.3-5.6 1.4-8.1.1-16.2 0-24.3.1-1.2 0-2.8-.2-3.6.5-4.7 4.2-10.5 4-16.1 3.8-4.4-.2-7.5 1.2-10.2 4.5-1 1.2-2.5 2.9-3.6 2.8-6.9-.5-14 0-20.1-4.5-1.3-1-3.5-1.6-5.1-1.4-3.4.6-6.7 1.8-10.1 2.8-1.6.5-3.6.6-4.7 1.7-6.1 6.2-12.8 12.1-17.6 19.2-4.2 6.3-10.6 8-16.3 10.1-6.8 2.5-14.6 2.4-22.1 2.6-12.5.4-25 .2-37.6 0-4.1-.1-8.2-1.3-12.3-1.7-1.7-.2-3.7-.1-5.2.6-7.7 3.1-15.2 7.1-23.1 9.4-7.2 2-12.9 5.5-18 10.7-1.4 1.4-3.4 2.4-5.3 3-2.8.9-5.7 1.5-8.6 2.1-8.7 1.8-17.1 3.3-26.2 3.2-14.4-.3-27.3-5.5-40.8-8.5-1.7-.4-3.7-.7-5.2-.2-8.6 3.4-17.2 7.2-25.7 10.8-3.4 1.4-6.5 3.1-10 4-8.8 2.2-17.9 2.9-25.9 7.3v151.9h1414V903.1z" style="fill:url(#e)"/><path d="M1206.3 1077c-2.8-7.3-4.9-14.9-7.4-22.9-2.3.2-4.7.4-6.1.6-1.6-6.4-3-12.5-4.5-18.6-.8-.1-1.5-.2-2.3-.4-6.1 9.5-12.3 18.9-19.3 29.8-2.7-10.4-5.1-19.9-7.8-30.4-5.1 6.4-9.2 11.4-13.2 16.4-1.1 1.4-1.8 3.2-3.2 4.1-3 1.8-4.7 3.2-2.6 7.1 1.1 1.9 0 4.9.1 8.2-2.6-1.4-3.7-2.4-7.5-3.8-.2 1.9-.4 3.6-.6 5.2 0 .4-1.1.7-1.8 1-2-4.3-3.5-8.6-5.6-12.9-1.5-3.2-3.1-6.4-4.8-9.5-2.9-5.6-6.7-3.9-9 0-3.1 5.2-5.1 11.1-8.1 17.9-2.3-3.2-4.1-6.2-6.3-8.7-1.7-2-4.1-3.4-5.8-5.4-1.2-1.4-2.7-3.4-2.7-5.1.4-9.5-4-16.5-10.4-23-1.7-1.7-1.8-4.9-2.5-7.4-.8-2.8-1.4-5.6-2.4-9.8-2.4 3.1-3.8 5-6.4 8.3-3.1-8.5-5.8-15.8-8.5-23.2-.7-.2-1.4-.3-2.1-.5-5.4 9.5-10.7 19-16.1 28.4-.3.5-1.3 1.3-1.6 1.1-.9-.4-2-1.1-2.4-2-1.2-2.5-2.2-5.1-3.1-7.7-1.7-5-4.1-7.8-9.2-1.9-1.6-7-3.1-13.1-4.8-20.2-5.1 8.2-9.6 15.7-15.2 24.8-2.2-3.7-3.8-6.3-5.2-8.5-2.5 1.7-5.9 4.1-9.5 6.5-1.2-4.1-2-6.6-2.7-9.1-3 1.6-6 3.1-10.3 5.4 1.6-9.1-11.3-16.8-1.9-26.3-1.4-4.2-5.3-9.5-4-12.8 3.3-8.3-4.1-10.7-6.7-18-6.3 14.1-11.9 26.5-18.2 40.7-2.3-4-3.6-6.4-5.9-10.4-1.6 3.8-2.8 6.9-4.1 9.9-.9 2.2-2 4.4-3 6.6-1.7-1.2-3.3-3.1-5.2-3.5-2.3-.5-5.1-.3-7.4.4-1.5.4-2.7 2.3-3.9 3.5-3.6-8.4-6.9-15.9-10.2-23.7-5.5 7-10.3 13.1-14.9 19-2.6-2.8-4.2-4.7-6.7-7.4 2.7-15.3-3.5-30.6-7.9-46.4-1 6.5-11.6 8.9-6.8 18 .5 1-3.2 4.2-4.9 6.4-.6-.4-1.3-.7-1.9-1.1.7 1.7 1.5 3.3 1.5 3.3-6.1 8-11.5 15.1-17 22.4-12.4-6.3-13-19-16.4-29.8-4.1 4.4-7.7 9.1-12.1 12.7-1.1.9-5.5-1.1-7.6-2.9-1.9-1.6-2.6-4.6-3.7-6.7-3.2 1.4-5.8 2.5-9.1 3.9-1-6.3-1.8-11.5-2.6-16.5-2.2.7-4.4 1.3-5.6 1.7-1.1-6.5-2.1-12.3-3.1-18.2-.7 0-1.3 0-2-.1-.5 1-.8 2.1-1.4 3-1.4 2.1-2.9 4.1-4.4 6.2-2.1-2.4-4.4-4.6-6.3-7.2-1.9-2.5-3.9-5.1-5.2-8-1.5-3.4-2.7-7-3.3-10.6-.5-3.3.1-6.7.2-10-1-.1-2-.2-2.9-.3-1.3 3.9-2.2 8-4 11.7-1.8 3.5-4.4 6.7-6.9 9.8-2.9 3.5-4.2 6.1 1.7 7.7 1.7.5 2.9 2.5 4.6 4.1-.9.7-1.5 1.5-1.9 1.4-6.6-1.2-10.8-2.1-9.2 8.2 1.1 6.7-6.4 4-11 2.3 1.7 3.6 3.1 6.6 4.7 9.8-10.1.9-14.8-3.7-17.3-15.6-.5-2.3-2.1-4.3-3.2-6.4-.7.2-.9.5-1.9.7.4-3.4.8-6.9 1.2-10.3 0 0-1.1-.2-1.6-.3-1.7 3.9-3.3 7.8-5.3 11.5-1 1.9-2.6 3.6-4 5.3-1-1.8-2-3.6-3.3-6.1-1 .1-2.8.4-5.5.8 4.6-9.2-2.6-12.8-7.7-18.1-1.5 1.7-2.9 3.1-4.8 5.2-1.3-7.2-2.5-13.4-4-21.7-3.6 5.7-5.9 9.2-8.7 13.7 4.6 6-1.9 10.7-5.3 15-3 3.8-8.8 5.4-14 8.4-4.4-11.5-8.3-21.5-12.3-32.1-1.8 1.6-3 3.3-4.7 4-1.6.7-3.6.5-5.4.8-.2-1.7-.2-3.3-.3-5-.1-1.8.5-3.6.5-5.5-.7-.1-1.3-.1-1.3-.1-.3 2.9-.7 5.9-1 8.8-3 0-2.6.3-3.6.5-3.5-10.4-7.8-21-11.8-32.8-3.7 5.5-6.2 9.2-9.1 13.6-1.3-2.2-2.3-3.8-3.2-5.2-3.4 3-7.8 5.3-9.6 9-2.5 4.9-6.6 5.2-10.6 5.9-1.2.2-4-2.7-4.4-4.6-1.9-9.2-3.3-18.5-4.9-28.4-5.6 9.2-10.4 17.1-15.4 25.4-2.1-9.1-3.9-16.5-5.6-24-.6.2-1.3.4-1.9.6-2.5 6-4.6 12.1-7.6 17.8-1.6 3.1-4 7.7-8.6 5.1-1.9-1.1-2.4-5-3.4-7.7-1.6-4.8-3-9.6-4.6-14.5h-2.2c-1.5 2.7-2.9 5.5-5.1 9.5-2.1-3.1-3.7-5.3-5.6-8-.2.1-1.6.6-2.9 1.1-1.5-2.8-2.9-5.5-5.4-10-2.9 6.1-5 10.6-7.3 15.3-2.2-.5-5.3-1.3-9-2.2-.5-6 6.4-12.7-.7-18.8-2.3 2.6-4.5 5.1-6.9 7.8.6 1.6 1.2 3.5 1.8 5.3-6.3 4.1-10 1.6-12.3-6.9-5.5 11.4-10.1 20.7-14.5 30-14.4-6.6-21.7-16.6-21.9-32.2-2.3 2.1-3.4 3-5.3 4.7-1.7-6.6-3.3-12.6-5-19.2-7.5 9.1-14.2 17.3-21 25.6-5.4-6.8-9.8-12.3-14.5-18-1.2 2.2-2.6 4.6-4 7.1l-.6-1.5c-4.7 1.7-9.4 3.3-14.6 5.1-.6-2.6-1.2-5.4-2-9.2-2.1 1.9-3.6 3.3-5.3 5-11.4-4.3-9.8-16.4-14.3-24.6-9.6 1.8-9.6 1.5-12.6-8.1-1.6-5-1-11.2-6.7-14.6-.7-.4-.1-2.9-.4-4.3-.8-3.6-1.7-7.2-2.6-10.8h-2.6c-1.2 2.5-2 5.3-3.7 7.4-7 8.3-10.8 18.4-15.1 28.1-1.7 3.9-3.5 5.4-8.2 3.4-1.1-10.9-2.2-22.2-3.3-33.4l-1.5-.3c-1.1 3.5-2.3 7-3.4 10.5-.7-.2-1.3-.3-2-.5-.3-1.8-.2-3.8-.9-5.3-.6-1.3-1.4-2.6-2.2-3.8-.8-1.2-1.7-2.5-2.5-3.7l-1.2 1.2-.6.6c-.4.4-.8.8-1.2 1.3-1.1 1.1-2.3 2.4-3.7 3.9-1.4-3.4-2.9-7.1-4.5-10.8-.6-.2-1.2-.3-1.9-.5-2.4 6.2-4.9 12.3-7.1 18.5-.9 2.6-.6 5.8-1.8 8.2-.9 1.7-3.3 3-5.3 3.3-.9.1-2.9-2.4-3.3-4.1-1.3-4.8-2-9.7-3.4-16.3-3.3 6.8-6.3 11.8-8.1 17.2-1.9 5.6-4.7 8.6-10 6.9-1.7 5.6-2.9 11-5.2 15.8-.5 1-4.8.3-7.4.4-4.6.1-9.2.2-13.5 1-3.5-1-7.8-1-10.2-3.1-3.9-3.4-6.8-8.1-9.7-12.5-1.6-2.4-2.2-5.4-3.5-8.1-2-4.2-5.1-7.5-4.6-13.2.4-3.8-3.1-8-5.7-13.9-2.9 3.8-4.5 5.9-6.3 8.3-7.3-1.5-8.9.5-7.5 11.6-2.1.5-4.2.9-6.9 1.5 1.4 2.5 2.5 4.5 3.3 5.9-1.5 2.1-2.8 3.9-4.6 6.4-5.6-2.8-13.5-2.2-14.5-13.3-.8-9-5.8-17.5-9.3-27.6-4.9 2.6-8.8 4.7-13.2 7l-3.8-5.7c-6.4 9.4-12.9 19-19.3 28.6-1-.2-1.9-.4-2.9-.6-1.8-7-3.7-13.9-5.4-20.9-2.5-9.7-4.9-19.5-7.7-30.4-7.5 5.8-3.9 17.2-14.4 18.7-1.6-4.4-2.7-9.4-9.2-9.8-1.3-.1-2.4-4.8-3.9-8.1-5.2 5.9-9.9 11.1-14.3 16.5-2.3 2.8-3.6 6.5-6.1 9-2 2-5.3 4.3-7.7 3.9-2.4-.3-5.5-3.3-6.4-5.8-2.5-7.2-4-14.7-6.1-22.1V1080h1207.6c-.7-1-1.1-2-1.5-3z" style="fill:#140d35"/><path d="M1978.8 849.3c-5.3 0-6.4 4.1-8 7.6-8.6-1.7-5.1-10.9-11-16-2.8 8.9-5.2 16.7-7.7 24.6-1.8 5.6-3.6 11.3-5.4 16.9-.8.1-1.6.3-2.4.4-4.9-8.2-9.8-16.4-14.6-24.4-1.1 1.4-2.3 3-3.4 4.5-3.5-2.1-6.6-4-10.5-6.4-3.4 8.1-7.9 14.9-9 22.2-1.4 9-7.8 8.2-12.5 10.2-1.4-2.2-2.3-3.7-3.4-5.5.7-1.1 1.7-2.7 3-4.7-2.2-.6-3.9-1.1-5.6-1.6 1.6-9 .4-10.8-5.7-9.9-1.4-2-2.6-3.8-4.8-7.1-2.4 4.8-5.5 8-5.3 11.2.2 4.7-2.5 7.3-4.4 10.6-1.2 2.1-1.8 4.6-3.2 6.5-2.6 3.5-5.2 7.2-8.5 9.8-2.1 1.6-5.6 1.4-8.5 2.1-3.5-.9-7.3-1.2-11-1.5-2.1-.2-5.7.2-6-.6-1.6-4.1-2.4-8.5-3.5-13.2-4.5 1.2-6.6-1.4-7.9-6.1-1.2-4.5-3.5-8.7-5.8-14.5-1.4 5.4-2.3 9.4-3.5 13.3-.4 1.3-2.1 3.3-2.9 3.2-1.6-.3-3.6-1.6-4.2-3-.9-2-.5-4.6-1.1-6.8-1.5-5.2-3.3-10.4-4.9-15.5l-1.5.3c-1.4 3-2.9 5.9-4.2 8.6-1.1-1.3-2-2.4-2.8-3.4-.3-.4-.6-.7-.9-1.1-.2-.2-.3-.4-.5-.5-.3-.4-.6-.7-.9-1.1-.7 1-1.5 2-2.2 3-.7 1-1.4 2-2 3.1-.7 1.2-.7 2.9-1 4.3-.5.1-1.1.2-1.6.3-.8-2.9-1.6-5.8-2.3-8.8-.4 0-.8.1-1.2.1-1.5 9.2-2.9 18.4-4.3 27.3-3.9 1.4-5.4.1-6.6-3.2-3.1-8.2-5.7-16.6-11.1-23.8-1.3-1.8-1.8-4.1-2.7-6.2-.7 0-1.4-.1-2.1-.1-.9 2.9-1.8 5.8-2.6 8.7-.3 1.2.1 3.2-.5 3.5-4.9 2.5-4.7 7.6-6.2 11.7-2.9 7.7-3 8-10.7 6.1-4.1 6.6-3.3 16.5-12.9 19.5-1.4-1.4-2.5-2.7-4.1-4.4-.8 3.1-1.5 5.3-2.1 7.5-4.2-1.8-8-3.3-11.8-4.9l-.6 1.2c-1-2.1-2-4.1-2.9-6-4.1 4.5-7.9 8.8-12.7 14.1-5.2-7.1-10.3-14.2-16.1-22-1.8 5.4-3.3 10.2-5 15.6l-4.1-4.1c-1 12.8-7.4 20.7-19.5 25.4-3.2-7.8-6.5-15.7-10.5-25.3-2.3 6.8-5.4 8.7-10.4 5.1.6-1.4 1.2-2.9 1.8-4.2-1.9-2.4-3.6-4.5-5.3-6.7-6.1 4.7-.8 10.5-1.4 15.4-3.1.6-5.7 1.1-7.5 1.4-1.6-3.9-3.1-7.7-5.2-12.9-2.2 3.6-3.5 5.8-4.9 8-1.1-.5-2.1-1-2.3-1.1-1.6 2.1-3 3.9-4.9 6.3-1.6-3.5-2.7-5.8-3.7-8.1-.6 0-1.2-.1-1.8-.1-1.5 3.9-2.9 7.8-4.4 11.7-.9 2.2-1.5 5.4-3.1 6.2-3.9 1.9-5.6-2-6.8-4.6-2.2-4.8-3.7-10-5.4-15-.5-.2-1-.4-1.6-.6-1.8 6-3.6 12.1-5.7 19.4-3.8-7.1-7.3-13.8-11.5-21.6-1.8 8.1-3.4 15.7-5.4 23.1-.4 1.5-2.9 3.8-3.8 3.6-3.2-.8-6.6-1.2-8.4-5.4-1.3-3.1-4.9-5.2-7.5-7.8-.8 1.2-1.7 2.4-2.9 4.2-2.2-3.7-4-6.8-6.8-11.6-3.8 9.5-7.8 18-11.2 26.4-.7-.2-.8-.5-2.8-.6-.1-2.4-.3-4.9-.4-7.3h-1.2c-.1 1.5.3 3 .1 4.5-.1 1.4-.3 2.7-.5 4.1-1.5-.3-3.1-.2-4.4-.9-1.3-.7-2.2-2.1-3.6-3.5-3.9 8.5-7.5 16.6-11.7 25.8-4.1-2.7-8.8-4.3-11.1-7.5-2.6-3.7-7.8-7.8-3.7-12.5-2.1-3.8-3.8-6.8-6.5-11.7-1.6 6.7-2.9 11.8-4.3 17.7-1.5-1.8-2.5-3.1-3.7-4.5-4.5 4.1-10.5 6.7-7.2 14.5-2.2-.4-3.7-.7-4.5-.9-1.2 1.9-2.1 3.4-3 4.8-1-1.5-2.3-2.9-3-4.6-1.4-3.2-2.4-6.5-3.7-9.7-.4.1-1.2.2-1.2.2.2 2.8.3 5.7.5 8.5-1-.2-1.1-.4-1.7-.6-1 1.7-2.5 3.3-3 5.1-2.6 9.7-6.7 13.3-15 12 1.4-2.6 2.7-5 4.3-7.8-3.8 1.1-10.1 3.1-8.9-2.4 1.9-8.4-1.7-7.9-7.2-7.2-.4 0-.8-.7-1.5-1.3 1.5-1.2 2.6-2.9 4-3.2 4.9-1.1 4-3.3 1.7-6.3-2-2.6-3.9-5.4-5.2-8.4-1.3-3.1-1.9-6.5-2.8-9.8-.8 0-1.6.1-2.4.1-.1 2.8.2 5.6-.3 8.3-.6 3-1.8 5.9-3.2 8.6-1.2 2.3-2.9 4.4-4.6 6.3-1.7 2-3.7 3.7-5.5 5.6-1.1-1.8-2.3-3.5-3.3-5.3-.5-.8-.7-1.7-1-2.6h-1.6c-1.1 4.8-2.2 9.5-3.4 14.8-1-.4-2.8-1-4.6-1.7-.9 4-1.8 8.3-2.9 13.4-2.6-1.3-4.8-2.4-7.3-3.7-1 1.7-1.8 4.1-3.4 5.4-1.7 1.3-5.5 2.8-6.3 2-3.5-3.1-6.2-7.1-9.4-11-3.3 8.7-4.4 19.1-14.9 23.7-4.2-6.3-8.3-12.3-12.9-19.2 0 0 .7-1.4 1.4-2.7-.5.3-1.1.5-1.6.8-1.3-1.9-4.2-4.7-3.7-5.5 4.3-7.2-4.2-9.7-4.8-15.1-4.4 12.8-10.2 25-8.7 37.8-2.1 2.1-3.6 3.5-5.9 5.8-3.5-5-7.2-10.3-11.4-16.3-3.1 6.3-6.1 12.3-9.5 19-1-1-1.8-2.6-3-3-1.9-.7-4.1-1-6.1-.7-1.6.3-3 1.7-4.4 2.6-.7-1.8-1.5-3.7-2.1-5.5-.9-2.6-1.8-5.1-2.9-8.3-2.1 3.2-3.3 5.1-5.4 8.3-4.6-12-8.5-22.4-13.1-34.3-2.5 5.9-8.7 7.5-6.4 14.5.9 2.8-2.5 7-3.9 10.4 7.3 8.2-3.7 13.9-2.8 21.5-3.4-2-5.8-3.5-8.2-4.9-.7 2-1.5 4-2.7 7.3-2.8-2.2-5.5-4.3-7.5-5.8-1.2 1.7-2.6 3.8-4.6 6.7-4.2-7.8-7.6-14.1-11.4-21.1-1.7 5.8-3.2 10.7-4.8 16.4-3.9-5-6-2.9-7.6 1.2-.9 2.1-1.8 4.2-2.9 6.1-.4.7-1.3 1.2-2.1 1.5-.3.1-1-.5-1.3-1-4-8-8-16.1-11.9-24.1l-1.8.3c-2.6 5.9-5.1 11.8-8.1 18.6-1.9-2.8-3-4.4-4.8-7.1-1 3.4-1.6 5.7-2.4 7.9-.7 2.1-1 4.7-2.4 6-5.5 5-9.5 10.6-9.6 18.4 0 1.4-1.3 3-2.4 4.1-1.5 1.5-3.5 2.6-5 4.1-1.9 2-3.5 4.3-5.6 6.9-2.1-5.7-3.5-10.7-5.8-15.1-1.7-3.3-4.7-4.8-7.4-.4-1.5 2.5-3 5-4.4 7.6-1.9 3.4-3.6 6.9-5.5 10.4-.6-.3-1.7-.6-1.8-.9-.1-1.4-.2-2.7-.2-4.3-2.9 1-3.9 1.7-6.1 2.8.2-2.7-.4-5.2.6-6.7 1.9-3.1.6-4.3-1.7-5.9-1.1-.7-1.6-2.3-2.4-3.5-3.1-4.3-6.2-8.6-10.1-14.1-2.7 8.5-5.2 16.2-7.8 24.6-5.3-9.3-9.9-17.3-14.5-25.4-.6.1-1.3.1-1.9.2-1.5 5-3 9.9-4.6 15.1-1.2-.2-3.1-.5-5-.7-2.5 6.4-4.5 12.6-7.2 18.4-2.4 5.2-5.5 10.1-8.2 15.1-.7-.3-1.4-.6-2.1-.8-1.2-7.8-2.5-15.7-3.8-24.2-1.4 5.5-2.5 10.1-3.6 14.7-.2.9-.5 1.9-.3 2.8l.3 1.8c.4 4.4-.6 9.4-2.5 11.8 1 .8 1.9 1.5 3.1 2.4-1.6 1.1-2.7 1.8-4.4 2.9 2 .7 3.2 1.1 5.3 1.8-1.9 2.7-3.5 4.9-5 7-7.5-8.8-16.1-15.9-19.1-28.1-4.5 7.4-7.9 13-11.6 19.1-7.1-.1-3.2-9.2-6.8-11.2-2.7 1.8-5.1 4.5-7.1 4.2-1.9-.3-3.2-3.7-4.8-5.8-.8 0-1.5-.1-2.3-.1-2.3 6.7-4.4 13.5-6.9 20.1-1.3 3.2.2 9.1-6.3 8.1-1-3-1.9-5.9-3-9.1 1.3-1.9 2.9-4.3 5.1-7.8-2.7 1.2-4.1 1.9-6 2.7-.2-2.7-.2-4.9-.4-7.1-.2-1.8-.6-3.5-.9-5.3-.7.2-1.3.3-2 .5-.1 2.6-.2 5.2-.4 8.2-7.1-2.1-6.7 2.3-5.7 6.7-1.5-.4-2.4-.6-3.9-.9 1.3 3.4 2.4 6.3 4.1 10.7-3.1.6-6.9 1.3-11.5 2.2-.2.3-.5.7-.8 1.2H1980V848c-.4.8-.8 1.3-1.2 1.3z" style="fill:#160d38"/></svg>