<?xml version="1.0" encoding="utf-8"?>
<!-- Generator: Adobe Illustrator 18.0.0, SVG Export Plug-In . SVG Version: 6.00 Build 0)  -->
<!DOCTYPE svg PUBLIC "-//W3C//DTD SVG 1.1//EN" "http://www.w3.org/Graphics/SVG/1.1/DTD/svg11.dtd">
<svg version="1.1" id="Layer_4" xmlns="http://www.w3.org/2000/svg" xmlns:xlink="http://www.w3.org/1999/xlink" x="0px" y="0px"
	 viewBox="0 0 1000 414" enable-background="new 0 0 1000 414" xml:space="preserve">
<path fill="#201B50" d="M610.7,0c-42.8,17-87,31.7-133.7,43c-62,14-121,18-182,35c-27,7-50,21-75,32c-14,6-23-12-31-13
	C122.2,85.9,63.2,126.3,0,149v238.9c52.5-10.3,105.1-19.4,159-24.9c26-2,54-10,77,5c13,9,21,24,36,27c102,19,193-30,292-40
	c7,0,15-1,22,1c23,6,45,9,69,5c75-13,146-22,221-26c42-2.3,83.1-10.2,124-20.1V0H610.7z"/>
<g>
</g>
<g>
</g>
<g>
</g>
<g>
</g>
<g>
</g>
<g>
</g>
</svg>
