<?xml version="1.0" standalone="no"?>
<!DOCTYPE svg PUBLIC "-//W3C//DTD SVG 20010904//EN"
 "http://www.w3.org/TR/2001/REC-SVG-20010904/DTD/svg10.dtd">
<svg version="1.0" xmlns="http://www.w3.org/2000/svg"
 width="1468.000000pt" height="1468.000000pt" viewBox="0 0 1468.000000 1468.000000"
 preserveAspectRatio="xMidYMid meet">
<metadata>
Created by potrace 1.11, written by Peter Selinger 2001-2013
</metadata>
<g transform="translate(0.000000,1468.000000) scale(0.100000,-0.100000)"
fill="#000000" stroke="none">
<path d="M3704 13558 c-9 -18 -139 -244 -289 -503 -149 -258 -315 -544 -367
-635 -52 -91 -281 -487 -508 -880 -496 -859 -640 -1110 -640 -1115 0 -3 -18
-34 -40 -70 -22 -36 -40 -67 -40 -69 0 -2 -25 -45 -55 -95 -30 -51 -55 -93
-55 -95 0 -3 -184 -322 -200 -346 -5 -8 -22 -37 -37 -65 -15 -27 -32 -58 -38
-67 -12 -21 -111 -191 -135 -233 -9 -16 -39 -66 -65 -110 -26 -44 -51 -89 -56
-100 -5 -11 -18 -33 -29 -50 -11 -16 -24 -39 -30 -50 -5 -11 -23 -42 -40 -70
-16 -27 -37 -66 -47 -85 -9 -19 -20 -37 -23 -40 -4 -3 -13 -17 -21 -31 -16
-30 -105 -186 -119 -209 -26 -42 -100 -172 -100 -177 0 -3 -8 -17 -19 -31 -19
-28 -43 -69 -94 -162 -16 -30 -33 -59 -37 -65 -20 -26 -120 -206 -120 -215 0
-5 -3 -10 -8 -10 -4 0 -18 -21 -32 -47 -13 -27 -38 -70 -55 -98 -17 -27 -34
-57 -38 -65 -4 -8 -18 -33 -32 -55 -13 -22 -31 -53 -40 -70 -8 -16 -26 -48
-39 -70 -14 -22 -37 -62 -52 -90 -16 -27 -33 -57 -39 -66 -5 -9 -18 -31 -28
-48 l-18 -32 53 -92 c30 -51 57 -99 61 -107 5 -8 20 -36 35 -61 15 -26 49 -85
76 -132 27 -48 54 -83 59 -80 6 3 7 1 3 -5 -4 -6 0 -22 8 -34 16 -25 29 -49
126 -219 35 -63 68 -115 72 -117 4 -2 8 -7 8 -12 0 -5 59 -111 131 -237 73
-125 141 -244 151 -263 11 -19 24 -39 28 -45 4 -5 19 -30 32 -55 51 -91 70
-125 78 -135 4 -5 22 -37 40 -70 18 -33 36 -62 39 -65 3 -3 22 -35 41 -72 19
-38 38 -68 42 -68 5 0 8 -6 8 -12 1 -7 16 -38 35 -68 18 -30 48 -82 66 -115
17 -33 40 -72 50 -87 11 -14 19 -29 19 -33 0 -3 16 -31 35 -61 19 -30 35 -56
35 -59 0 -3 29 -53 63 -112 35 -60 121 -208 191 -331 71 -122 132 -222 137
-222 5 0 8 -3 7 -7 -4 -12 26 -73 34 -73 5 0 8 -5 8 -10 0 -14 -39 55 839
-1465 131 -225 408 -706 617 -1068 l379 -657 3615 2 c3603 3 3614 3 3625 23
36 70 131 231 137 233 4 2 8 8 8 14 0 5 32 64 71 131 67 115 94 161 143 248
12 21 42 72 67 115 26 44 56 96 68 117 12 21 61 107 110 190 85 147 303 526
343 597 11 19 24 40 28 45 4 6 22 37 40 70 18 33 41 74 51 90 10 17 24 41 32
55 8 14 31 54 52 90 42 73 67 116 87 151 7 13 18 31 25 39 6 8 11 17 10 20 0
3 16 31 36 63 20 31 37 59 37 61 0 3 19 37 43 78 24 40 55 93 69 118 14 25 64
112 112 193 47 82 86 151 86 153 0 2 16 28 35 58 19 30 35 57 35 60 0 3 18 35
40 70 21 36 52 88 67 117 15 28 33 59 38 68 30 48 85 143 85 147 0 2 11 21 24
42 35 53 85 142 99 174 6 16 15 28 19 28 4 0 8 4 8 10 0 5 16 34 35 64 19 30
35 57 35 60 0 3 25 46 55 96 30 50 55 93 55 95 0 3 17 33 38 67 21 35 41 70
45 78 4 8 16 30 28 49 34 56 170 292 202 351 16 30 33 60 37 65 13 17 110 188
110 193 0 3 6 13 14 21 7 9 28 43 46 76 18 33 63 112 100 175 55 94 168 290
280 485 9 17 31 54 49 83 17 29 31 54 31 56 0 2 19 34 41 72 68 111 89 151 82
158 -4 3 -2 6 4 6 9 0 193 309 193 324 0 3 -811 6 -1803 6 l-1802 0 -93 -160
c-50 -87 -92 -164 -92 -170 0 -5 -3 -10 -7 -10 -5 0 -13 -10 -19 -23 -13 -26
-130 -231 -153 -267 -8 -14 -16 -28 -16 -32 0 -4 -6 -13 -12 -20 -7 -6 -13
-16 -13 -20 0 -5 -8 -21 -19 -36 -10 -15 -47 -76 -82 -137 -34 -60 -80 -139
-101 -174 -20 -35 -35 -68 -32 -72 3 -5 0 -9 -5 -9 -6 0 -22 -21 -36 -47 -14
-27 -33 -61 -43 -78 -242 -414 -322 -554 -322 -564 0 -6 -4 -11 -9 -11 -5 0
-11 -8 -14 -17 -3 -10 -19 -39 -34 -65 -15 -25 -66 -112 -113 -193 -47 -81
-98 -168 -113 -193 -15 -26 -35 -63 -45 -82 -9 -19 -20 -36 -24 -38 -5 -2 -8
-8 -8 -13 0 -5 -11 -26 -24 -47 -13 -20 -103 -174 -199 -342 l-176 -305 -1793
1 c-986 1 -1798 2 -1805 3 -9 1 -177 276 -192 316 -2 5 -7 12 -10 15 -3 3 -17
26 -30 52 -14 26 -28 45 -31 43 -4 -2 -7 2 -7 9 0 25 -144 266 -155 260 -7 -4
-8 -2 -4 4 6 10 -39 104 -68 142 -7 8 -18 29 -26 45 -8 17 -17 32 -20 35 -3 3
-11 16 -18 30 -7 14 -22 41 -33 60 -12 19 -31 53 -42 75 -12 22 -27 47 -33 55
-7 8 -27 42 -45 76 -85 153 -224 389 -231 392 -4 2 -8 8 -8 14 0 6 -48 93
-107 195 -60 101 -117 201 -129 221 -11 20 -40 69 -62 109 -23 39 -50 87 -61
105 -20 36 -204 353 -314 543 -38 66 -83 145 -100 175 -16 30 -38 66 -47 80
-36 52 -40 65 -26 91 11 22 100 176 374 649 52 91 122 212 155 270 33 58 68
119 78 135 11 17 22 37 26 45 3 8 16 31 28 50 12 19 23 39 23 43 1 4 10 19 22
34 11 14 20 30 20 36 0 6 6 18 14 26 7 9 25 36 38 61 14 25 35 61 46 80 12 19
30 51 40 70 10 19 76 133 146 252 70 120 130 226 133 235 4 10 10 20 13 23 4
3 18 25 32 50 14 25 39 69 57 98 17 29 28 58 25 64 -4 6 -2 8 3 5 6 -4 18 8
27 26 9 17 27 50 41 72 13 22 30 51 38 65 26 47 65 115 117 205 70 120 76 131
159 275 39 69 75 132 81 140 5 8 19 31 29 51 11 20 26 39 33 41 7 2 1628 4
3601 4 1974 -1 3593 1 3597 4 5 3 -20 53 -54 110 -34 58 -65 112 -70 120 -4 8
-17 31 -29 51 -12 20 -40 69 -61 107 -23 40 -44 68 -50 65 -6 -3 -8 -3 -4 2 8
8 -32 86 -103 204 -22 34 -39 67 -39 71 0 5 -3 10 -7 12 -5 2 -24 33 -43 70
-19 37 -38 68 -42 68 -5 0 -8 4 -8 9 0 5 -32 65 -71 133 -40 67 -85 148 -102
178 -16 30 -33 60 -37 65 -4 6 -17 26 -28 45 -75 135 -227 396 -231 400 -3 3
-14 21 -24 40 -23 46 -51 94 -57 100 -3 3 -11 16 -18 30 -7 14 -23 43 -36 65
-14 22 -32 56 -42 75 -9 19 -23 42 -29 50 -7 8 -30 47 -50 85 -21 39 -46 81
-55 95 -9 14 -20 32 -23 40 -4 8 -17 31 -28 50 -39 65 -212 364 -242 420 -17
30 -33 57 -36 60 -3 3 -17 25 -30 50 -14 25 -29 48 -34 51 -5 3 -7 8 -6 10 2
2 -20 46 -49 96 l-53 93 -3614 0 -3615 0 -16 -32z"/>
</g>
</svg>
